<?xml version="1.0" encoding="utf-8"?>
<!-- Generator: Adobe Illustrator 24.1.1, SVG Export Plug-In . SVG Version: 6.00 Build 0)  -->
<svg version="1.1" id="Слой_2" xmlns="http://www.w3.org/2000/svg" xmlns:xlink="http://www.w3.org/1999/xlink" x="0px" y="0px"
	 viewBox="0 0 3200 2000" style="enable-background:new 0 0 3200 2000;" xml:space="preserve">
<style type="text/css">
	.st0{fill:#EBF3FA;}
	.st1{fill:#ED985F;}
	.st2{fill:#233862;}
	.st3{fill:#FFB27D;}
	.st4{fill:#B5453C;}
	.st5{fill:#DD6D22;}
	.st6{fill:#9E332E;}
	.st7{fill:#ED7D2B;}
	.st8{fill:#F99746;}
	.st9{fill:#FFFFFF;}
	.st10{fill:#ADCBF9;}
	.st11{fill:#FCECDB;}
	.st12{fill:#F4D2B8;}
	.st13{fill:#86D1CD;}
	.st14{fill:#D86713;}
	.st15{fill:#EE9849;}
	.st16{fill:#F1A34F;}
	.st17{fill:#E78B37;}
	.st18{fill:#699DEE;}
	.st19{fill:#E9F3FE;}
	.st20{fill:#AFCDFB;}
	.st21{opacity:0.6;fill:#AFCDFB;}
	.st22{fill:#9E3732;}
	.st23{fill:#E49963;}
	.st24{fill:#163560;}
	.st25{fill:#599DAD;}
	.st26{fill:#6BB7BF;}
	.st27{fill:#5AA9AD;}
	.st28{fill:#D68D5D;}
	.st29{fill:#4A75CB;}
	.st30{fill:#2B478B;}
	.st31{fill:#F4A269;}
	.st32{fill:#C65447;}
	.st33{fill:#1C468A;}
	.st34{fill:#2E3552;}
	.st35{clip-path:url(#SVGID_2_);}
	.st36{fill:#2C3A64;}
	.st37{fill:#BC3F3F;}
	.st38{fill:#A02E2E;}
	.st39{fill:#E8945B;}
	.st40{fill:#D35C2B;}
	.st41{fill:#E58638;}
</style>
<g>
	<path class="st0" d="M2655.66,1578.87c0,0,297.89-311.55,50.38-648.84c-219.61-299.27-475.66-278.81-663.51-157.37
		c-80.01,51.73-369.59,286.74-565.93-17.78C1208.84,339.6,339.63,311.1,508.85,950.03c81.89,309.19-327.81,320.43-159.09,629.5
		L2655.66,1578.87z"/>
	<g id="girl_2_3_">
		<path class="st1" d="M673.81,1159.61c0,0-83.59,36.42-98.77,35.76c-15.17-0.66-108.67-28.48-108.67-28.48l2.38,16.08
			c0,0,72.16,41.5,97.38,43.85c24.84,2.32,109.76-22.29,117.96-27.49C692.29,1194.15,697.64,1164.87,673.81,1159.61z"/>
		<path class="st2" d="M686.37,1025.63c0,0,30.84-5.86,46.2,5.36c27.82,20.32,29.32,90.36,39.74,100.8
			c10.43,10.43,35.56,5.98,37.8,59.97c2.24,53.99-10.01,58.5,4.58,82.61c14.58,24.1-6.17,48.22-6.17,48.22s8.5-13.3,4.86-22.91
			c0,0-3.54,21.19-17,26.16c-13.46,4.97-15.46,8.61-17.61,15.9c0,0-114.86-58.86-114.99-100.61c-0.13-41.75-22.6-83.1-11.56-101.19
			c0,0-4.92,7.74-5.52,16.35c0,0-6.62-12.69,4.86-24.5c11.48-11.81-13.47-36.26-9.77-64.58
			C644.31,1047.77,657.95,1026.48,686.37,1025.63z"/>
		<path class="st3" d="M663.65,1199.39c7.34,5.09,16.55,9.29,28.1,11.96c43.32,10.01,59.92-26.6,66.15-51.74
			c-5.91-3.38-11.47-4.13-14.68-4.51c-3.13-0.37-6.42-0.61-9.15-0.75c-4.86-3.73-12.11-18.97-13.72-42.65l-2.04,0.55l-34.14,9.34
			c0,0,1.56,10.85,2.33,21.11c0.59,8.03,0.69,15.7-0.83,17.58c-2.66,0.58-4.26,0.96-4.26,0.96s0,0.01-0.02,0.03
			C680.95,1162.02,671.04,1178.31,663.65,1199.39z"/>
		<path class="st1" d="M684.19,1121.6c0,0,1.57,10.84,2.33,21.11c19.34-1.94,28.32-20.35,31.81-30.45L684.19,1121.6z"/>
		<path class="st3" d="M678.41,1131.79c0,0,45.91-2.53,43.89-31.1c-2.02-28.57,2.55-48.13-26.85-47.72
			c-29.4,0.41-34.32,11.71-35.96,21.41C657.85,1084.08,666.42,1131.71,678.41,1131.79z"/>
		<path class="st2" d="M659.72,1058.4c6.47-9.1,11.96-7.6,15.15-5.23c24.08-15.58,41.69,3.64,41.69,3.64
			c4.54,20.28,20.16,30.96,20.16,30.96s-7.99,5.76-27.61,2.19c-5.99-1.09-11.55-4.9-16.38-9.65c8.74,12.51,20.02,21.17,20.02,21.17
			c-23.78-8.99-35.32-40.34-36.48-43.65c-2.62,2.71-7.75,8.57-9.04,14.04c-1.76,7.44-9.37,19.07-13.78,18.87
			C653.45,1090.72,650.01,1072.04,659.72,1058.4z"/>
		<path class="st4" d="M770.99,1292.73c4.15-21.19,17.66-105.87,4.15-133.12c-4.85-9.79-23.91-10.67-44.81-9.81
			c-6.5,4.2-31.29,20.07-41.47,18.09c-0.11-0.02-0.31-0.07-0.57-0.13c-4.79-1.2-6.6-4.57-2.6-7.47c0.01-0.01-10.35-1-23.21,1.42
			c-7.26,1.37-26.85,11.5-26.85,11.5s9.86,17.82,24.41,23.97c-2.47,22.12,1.2,31.88,24.15,82.97c19.39,43.19-2.62,82.07-2.62,82.07
			s114.16,91.78,114.79,45.05C796.84,1372.09,765.69,1319.82,770.99,1292.73z"/>
		<path class="st5" d="M675.92,1462.02c-6.21-0.7-11.8-4.1-15.27-9.29c-0.55-0.82-1.14-1.71-1.76-2.66
			c-12.99-19.67-18.05-79.91-47.28-144.09c-7.12-15.63-32.67-18.43-39.64-36.1c0,0-17.15-57.25,32.83-58.94
			c49.98-1.69,133.85,159.29,135.17,176.17C741.25,1403.47,773.01,1472.97,675.92,1462.02z"/>
		<path class="st6" d="M477.27,1460.7h71.13c0,0,2.66-11.35-2.01-19.07c-4.13-6.83-2.55-10.72,0.51-16.37
			c-3.22,1.32-7.39,2.52-11.98,2.26c-3.54-0.2-7.29-1.81-10.58-3.72c-3.06,3.49-16.17,18.35-20.27,21.29
			C499.44,1448.43,478.71,1447.24,477.27,1460.7z"/>
		<path class="st6" d="M763.49,1181.81c0,0,9.26,84.23-50.79,101.88c-60.04,17.65-77.09-77.5-28.61-84.35
			C732.57,1192.5,763.49,1181.81,763.49,1181.81z"/>
		<path class="st7" d="M570.34,1227.49c-4.28,32.11-21.01,133.47-50.52,182.92c-9.51,15.94,23.97,24.88,24.15,24.83
			c4.49-1.17,11.97-8.33,15.42-11.44c23.96-21.59,72.58-82.72,72.58-131.73c0-23.9,0.42-69.54-16.96-81.14
			C604.31,1203.79,572.04,1214.74,570.34,1227.49z"/>
		<path class="st8" d="M718.33,1460.7c0,0-2.64-3.67-7.23-10.64c-5.47-8.29-11.52-24.59-18.87-45.49
			c-7.72-21.94-16.87-48.94-28.31-77.03c-3.53-8.67-7.28-17.45-11.27-26.21c-7.12-15.62-26.7-13.46-33.67-31.13
			c0,0-27.19-61.23,22.79-62.92c49.98-1.69,144.95,163.8,150.4,179.82C798.16,1404.66,827.3,1477.51,718.33,1460.7z"/>
		<path class="st4" d="M529.49,1460.7h71.13c0,0,2.66-11.35-2.01-19.07c-4.13-6.83-2.55-10.72,0.51-16.37
			c-3.22,1.32-7.39,2.52-11.98,2.26c-3.54-0.2-7.29-1.81-10.58-3.72c-3.06,3.49-16.17,18.35-20.27,21.29
			C551.65,1448.43,530.92,1447.24,529.49,1460.7z"/>
		<path class="st7" d="M692.23,1404.57c-7.72-21.94-16.87-48.94-28.31-77.03c2.99-21.28,9.43-39.9,20.27-47.4
			C684.19,1280.14,710.48,1361.58,692.23,1404.57z"/>
		<path class="st8" d="M611.86,1225.21c-4.28,32.11-10.32,135.74-39.82,185.19c-9.51,15.94,23.97,24.88,24.15,24.83
			c4.49-1.17,11.97-8.33,15.42-11.44c23.96-21.59,72.58-82.72,72.58-131.73c0-23.9-28.05-67.62-45.42-79.22
			C628.06,1205.7,613.56,1212.46,611.86,1225.21z"/>
		<g>
			<path class="st6" d="M457.88,1125.51l72.85-7.74c2.12-0.23,4.13,1.01,4.89,3l26.06,68.49c1.14,3-1,6.24-4.21,6.37l-72.29,2.92
				c-1.96,0.08-3.77-1.07-4.53-2.88L454.04,1132C452.82,1129.09,454.75,1125.84,457.88,1125.51z"/>
			<path class="st4" d="M451.55,1126.17l72.85-7.74c2.12-0.23,4.13,1.01,4.89,3l26.06,68.49c1.14,3-1,6.24-4.21,6.37l-72.29,2.92
				c-1.96,0.08-3.77-1.07-4.53-2.88l-26.63-63.67C446.49,1129.76,448.42,1126.5,451.55,1126.17z"/>
			<path class="st6" d="M491.93,1158.15c-0.89-2.44,0.37-4.43,2.82-4.43c2.44,0,5.15,1.98,6.04,4.43c0.89,2.44-0.37,4.43-2.82,4.43
				S492.82,1160.59,491.93,1158.15z"/>
			<path class="st6" d="M453.73,1132.64c-0.44-1.2,0.18-2.17,1.38-2.17s2.53,0.97,2.97,2.17c0.44,1.2-0.18,2.17-1.38,2.17
				S454.17,1133.84,453.73,1132.64z"/>
		</g>
		<path class="st3" d="M757.91,1159.61c0,0-100.96,37.18-116.13,36.42c-9.81-0.49-91.31-29.14-91.31-29.14s-6.05-9.3-12.62-11.24
			c0,0-11.59-5.31-14.9-6.31c-3.31-0.99-2.65,0.02-1.66,3.15c0.52,1.63,2.36,3.21,4.03,4.5c-5.57,1.53-11.07,3.6-13.63,4.1
			c-4.31,0.83-16.56,4.8-12.92,10.76c3.64,5.96,20.53,7.29,27.82,5.96c7.29-1.33,16.56,2.91,16.56,2.91s79.33,50.99,101.14,50.73
			c43.06-0.5,115.71-26.93,123.91-32.12C776.39,1194.15,781.74,1164.87,757.91,1159.61z"/>
		<path class="st3" d="M459.05,1160.93c0,0,7.31-11.56,9.7-12.03c7.29-1.44,7.29,8.16,5.74,14.35c-1.66,6.64-7.27,12.91-8.82,12.36
			C464.12,1175.06,457.34,1167.03,459.05,1160.93z"/>
		<path class="st3" d="M458.78,1163.25c0,0-2.34,12.96,9.97,19.73L458.78,1163.25z"/>
		<path class="st9" d="M669.82,1115.36c0,0,4.34-1.72,16.55-0.73c0,0-0.65,4.76-9.66,5.24
			C671.61,1120.13,669.82,1115.36,669.82,1115.36z"/>
		<path class="st4" d="M705.89,1177.95c0,0,9.03,28.59,40.04,35.09c0,0,51.21-15.78,25.71-50.67
			C771.65,1162.37,746.44,1143.64,705.89,1177.95z"/>
	</g>
	<g>
		<g>
			<g>
				<path class="st10" d="M681.44,807.52c0-2.89,0.06-5.84,0.13-8.73c0.83-21.63,4.49-42.75,10.91-63.16
					c-5.39,0.19-10.59,0.51-15.6,0.83c-5.14,17.33-8.28,35.24-9.5,53.4c-0.39,5.39-0.58,10.78-0.64,16.24v1.41
					c0,5.46,0.19,10.91,0.51,16.3c4.94,2.31,10.01,4.49,15.34,6.68c-0.51-5.14-0.9-10.33-1.03-15.53
					C681.5,812.46,681.44,810.03,681.44,807.52z M1152.57,709.12c-12.71-30.1-30.94-57.19-54.17-80.36
					c-23.24-23.24-50.26-41.46-80.36-54.24c-31.19-13.16-64.31-19.83-98.4-19.83c-34.15,0-67.27,6.67-98.46,19.83
					c-3.72,1.6-7.45,3.27-11.04,5.01c-5.97,2.89-11.87,5.97-17.52,9.31c-18.87,10.91-36.2,24.26-51.8,39.92
					c-3.27,3.21-6.42,6.55-9.5,10.01c-3.85,4.24-7.51,8.67-11.04,13.16c-5.65,7.19-10.85,14.7-15.66,22.4
					c-2.7,4.3-5.2,8.73-7.64,13.16c-3.79,7-7.19,14.19-10.33,21.63c-2.38,5.58-4.49,11.17-6.42,16.88
					c-1.22,3.47-2.31,6.93-3.34,10.46c-5.14,17.33-8.28,35.24-9.5,53.4c-0.39,5.39-0.58,10.78-0.64,16.24v1.41
					c0,5.46,0.19,10.91,0.51,16.3c0.26,4.43,0.71,8.86,1.22,13.29c2.7,23.69,8.79,46.73,18.16,68.81
					c12.71,30.1,30.94,57.19,54.17,80.43c23.24,23.17,50.26,41.4,80.36,54.17c31.19,13.16,64.32,19.83,98.46,19.83
					c34.08,0,67.2-6.68,98.4-19.83c30.1-12.77,57.13-31,80.36-54.17c22.59-22.59,40.5-48.91,53.15-78.05
					c0.32-0.77,0.71-1.6,1.03-2.37c1.41-3.34,2.76-6.68,3.98-10.01c10.59-28.18,15.92-57.9,15.92-88.38
					C1172.46,773.38,1165.79,740.25,1152.57,709.12z M1139.22,899.89c-0.06,0.13-0.06,0.19-0.13,0.32c-1.6,3.72-3.27,7.45-5.07,11.1
					c-11.55,23.94-27.02,45.64-46.02,64.64c-21.82,21.89-47.31,39.03-75.68,51.03c-29.4,12.45-60.53,18.74-92.69,18.74
					s-63.35-6.29-92.75-18.74c-28.37-12-53.79-29.14-75.68-51.03c-21.89-21.89-39.09-47.37-51.09-75.74
					c-7.7-18.29-13.03-37.23-15.92-56.74c-0.71-4.3-1.22-8.6-1.6-12.97c-0.51-5.14-0.9-10.33-1.03-15.53
					c-0.06-2.5-0.13-4.94-0.13-7.45c0-2.89,0.06-5.84,0.13-8.73c0.83-21.63,4.49-42.75,10.91-63.16c1.09-3.47,2.25-6.87,3.53-10.27
					c1.28-3.53,2.63-7.06,4.11-10.53c2.12-4.88,4.3-9.69,6.68-14.38c2.25-4.49,4.62-8.86,7.12-13.16
					c7-11.94,15.02-23.24,24.01-33.83c3.72-4.36,7.57-8.6,11.62-12.71c0.58-0.58,1.09-1.09,1.67-1.67
					c18.1-18.1,38.7-32.99,61.36-44.42c4.69-2.38,9.43-4.56,14.31-6.61c1.28-0.58,2.63-1.09,3.92-1.6
					c28.18-11.36,58.09-17.14,88.83-17.14c32.16,0,63.29,6.29,92.69,18.74c28.37,12,53.85,29.14,75.68,51.03
					c21.89,21.89,39.09,47.37,51.09,75.74c12.39,29.33,18.68,60.53,18.68,92.69C1157.77,839.55,1151.54,870.62,1139.22,899.89z"/>
			</g>
			<g>
				<path class="st10" d="M1199.62,858.49l-19.58-0.45c6.29,8.15,7.7,15.66,3.79,22.02c-3.92,6.48-13.29,11.81-27.28,15.85
					c-5.13,1.54-10.91,2.82-17.33,3.98c-17.14,3.08-38.51,4.88-63.48,5.13c-63.16,0.77-141.6-7.83-220.8-24.07
					c-53.34-10.98-102.63-24.52-143.91-39.41c-6.29-2.25-12.39-4.56-18.23-6.87c-3.47-1.35-6.87-2.76-10.21-4.17
					c-5.33-2.18-10.4-4.36-15.34-6.68c-3.47-1.54-6.8-3.14-10.08-4.75c-45.51-22.21-66.3-43.65-57-58.86
					c7.51-12.32,34.85-20.67,76.7-23.75c5.01-0.32,10.21-0.64,15.6-0.83c1.09-3.47,2.25-6.87,3.53-10.27
					c-5.46,0.13-10.72,0.39-15.79,0.64c-52.76,3.15-81,12.43-91.27,29.25c-11.94,19.58,4.36,45.85,56.55,71.4
					c7.19,3.53,14.89,7,22.98,10.46c5.07,2.12,10.33,4.24,15.73,6.35c2.5,0.96,5.01,1.93,7.51,2.89c6.16,2.31,12.45,4.62,18.94,6.87
					c40.57,14.06,87.81,26.77,138.51,37.23c70.93,14.51,141.4,23.11,201.67,24.52c8.86,0.26,17.46,0.26,25.8,0.19
					c21.63-0.26,40.89-1.54,57.38-3.85c6.23-0.83,12.07-1.86,17.52-3.02c25.74-5.33,42.68-13.67,49.42-24.71
					C1205.65,875.95,1205.07,867.47,1199.62,858.49z"/>
			</g>
			<g>
				<path class="st10" d="M1091.57,852.23c-0.25,0.46-0.51,0.91-0.79,1.35c-7.74,12.29-25.05,18.64-49.34,18.63
					c-11.62,0-24.85-1.45-39.38-4.4c-47.8-9.7-104.31-34.05-159.1-68.58c-53.87-33.94-99.57-73.61-129.01-111.93
					c-0.51-0.67-1.02-1.33-1.52-1.99c-2.79-3.7-5.4-7.35-7.82-10.94c-21.47-31.88-27.93-58.91-17.64-75.23
					c7.74-12.29,25.05-18.63,49.34-18.63c11.62,0,24.85,1.45,39.39,4.4c5.52,1.12,11.16,2.43,16.89,3.94
					c6.54,1.7,13.19,3.66,19.97,5.86c4.7-2.37,9.49-4.58,14.36-6.64c1.29-0.55,2.58-1.08,3.89-1.6c-6.99-2.53-13.89-4.84-20.69-6.91
					c-10.88-3.32-21.47-6.04-31.69-8.11c-51.59-10.47-88.19-3.23-103.07,20.37c-14.15,22.46-6.44,56.26,21.65,95.68
					c1.43,2.01,2.92,4.04,4.46,6.08c1.72,2.29,3.5,4.57,5.34,6.86c30.46,38.07,75.86,77.02,128.84,110.4
					c56.17,35.39,114.31,60.4,163.7,70.42c15.43,3.13,29.51,4.68,42.08,4.68c29.46,0,50.56-8.5,60.99-25.05
					c1.72-2.73,3.12-5.62,4.19-8.67H1091.57z"/>
			</g>
			<g>
				<path class="st10" d="M830.36,1039.3c-2.99,0-5.87-0.5-8.58-1.48c-43.38-15.73-23.32-144.06,17.57-256.81
					c37.82-104.28,98.93-209.85,142.56-209.85c2.99,0,5.87,0.5,8.58,1.48c24.7,8.96,26.21,53.16,23.12,88.67
					c-4.13,47.45-18.58,107.16-40.69,168.14C935.1,933.73,873.99,1039.3,830.36,1039.3z M981.92,584.56
					c-27.44,0-84.94,76.85-129.97,201.02c-21.73,59.91-35.91,118.42-39.94,164.73c-4.33,49.83,4.57,71.37,14.34,74.92
					c1.25,0.46,2.57,0.68,4.01,0.68c27.44,0,84.94-76.85,129.97-201.02c21.73-59.91,35.91-118.42,39.94-164.74
					c4.33-49.83-4.57-71.37-14.34-74.92C984.67,584.78,983.36,584.56,981.92,584.56z"/>
			</g>
			<g>
				<path class="st10" d="M1089.1,761.56c-48.32,0-92.47-4.59-131.88-13.74c-47.14-10.94-87.67-28.41-120.46-51.9
					c-56.44-40.44-70.31-84.4-70.87-86.25l12.81-3.91c0.13,0.42,13.54,42.16,66.79,79.94c49.49,35.11,144.43,73.9,315.67,59.27
					l1.14,13.35C1136.97,760.48,1112.54,761.56,1089.1,761.56z"/>
			</g>
			<g>
				<path class="st10" d="M1041.58,1024.64C947.9,954.9,855.37,923.68,794.25,909.77c-66.06-15.04-110.29-13.62-110.73-13.6
					l-0.49-13.39c1.86-0.07,46.44-1.5,114.19,13.93c62.38,14.2,156.8,46.06,252.36,117.19L1041.58,1024.64z"/>
			</g>
		</g>
	</g>
	<g>
		<path class="st8" d="M2821.07,1522.07c0,14.6-5.92,27.81-15.49,37.38c-9.56,9.57-22.79,15.49-37.39,15.49h-430.71v-102.52h433.94
			c2.72,0,5.39,0.22,7.99,0.64C2803.03,1476.88,2821.07,1497.36,2821.07,1522.07z"/>
		<path class="st11" d="M2417.44,1523.1c0,14.24-5.73,27.13-15.02,36.5c-0.06,0.06-0.1,0.1-0.16,0.16
			c-9.38,9.38-22.34,15.18-36.64,15.18h-489.36v-102.52h490.51c14.23,0,27.11,5.88,36.32,15.34
			C2411.96,1496.88,2417.44,1509.34,2417.44,1523.1z"/>
		<path class="st7" d="M2458.11,1567.26c0,2.13-0.85,4.04-2.24,5.42c-1.39,1.39-3.31,2.25-5.42,2.25h-591.62
			c-4.24,0-7.67-3.43-7.67-7.67c0-2.11,0.85-4.04,2.25-5.42c1.39-1.39,3.31-2.24,5.42-2.24h591.62
			C2454.68,1559.6,2458.11,1563.03,2458.11,1567.26z"/>
		<path class="st7" d="M2458.11,1480.08c0,2.13-0.85,4.04-2.24,5.42c-1.39,1.39-3.31,2.25-5.42,2.25h-591.62
			c-4.24,0-7.67-3.43-7.67-7.68c0-2.11,0.85-4.04,2.25-5.42c1.39-1.39,3.31-2.24,5.42-2.24h591.62
			C2454.68,1472.41,2458.11,1475.85,2458.11,1480.08z"/>
		<polygon class="st12" points="1876.26,1523.67 1941.87,1525.4 1876.26,1526.44 		"/>
		<polygon class="st12" points="1876.26,1539.76 2032.36,1541.48 1876.26,1542.52 		"/>
		<path class="st7" d="M2779.42,1473.05l-141.62,101.89h-300.32v-102.52h433.94C2774.14,1472.41,2776.82,1472.63,2779.42,1473.05z"
			/>
	</g>
	<g>
		<g>
			<path class="st13" d="M1085.59,1574.93H789.36v-120.55h299.45c27.39,0,49.6,22.21,49.6,49.6v18.13
				C1138.4,1551.29,1114.76,1574.93,1085.59,1574.93z"/>
			<path class="st11" d="M797.78,1574.93H456.46v-120.55h342.41c26.62,0,48.2,21.58,48.2,48.2v23.05
				C847.08,1552.86,825.01,1574.93,797.78,1574.93z"/>
			<path class="st13" d="M868.77,1574.93H446c-4.23,0-7.66-3.43-7.66-7.66v-2.71c0-4.23,3.43-7.66,7.66-7.66h422.77
				c4.23,0,7.66,3.43,7.66,7.66v2.71C876.43,1571.51,873,1574.93,868.77,1574.93z"/>
			<path class="st13" d="M868.77,1472.41H446c-4.23,0-7.66-3.43-7.66-7.66v-2.71c0-4.23,3.43-7.66,7.66-7.66h422.77
				c4.23,0,7.66,3.43,7.66,7.66v2.71C876.43,1468.99,873,1472.41,868.77,1472.41z"/>
		</g>
		<polygon class="st12" points="456.46,1514.66 503.82,1516.69 456.46,1517.91 		"/>
		<polygon class="st12" points="456.46,1533.57 569.13,1535.6 456.46,1536.82 		"/>
	</g>
	<g>
		<g>
			<path class="st14" d="M1252.51,1020.28l-43.97,522.86c0,0-4.61,31.69,18.97,31.75c38.76,0.09,192.94,0,192.94,0
				s-29.17-6.6-28.82-21.44c0.42-17.5,51.4-538.12,51.4-538.12L1252.51,1020.28z"/>
			<path class="st15" d="M1432.95,1565.41c-7.62,0.02-154.88,0.48-192.63,0c-16.45-0.21-19.34-14.63-19.47-23.96
				c-0.07-4.47,0.5-7.78,0.5-7.78l1.14-13.59l2.92-34.64l2.57-30.6l3.31-39.32l2.79-33.19l31.25-371.53l190.51-4.94
				c0,0-21.47,217.88-36.66,376.47c-1.7,17.67-3.31,34.61-4.8,50.43c-0.48,5.05-0.95,9.99-1.4,14.79
				c-1.41,15.01-2.7,28.79-3.82,40.95c-0.59,6.41-1.14,12.37-1.63,17.83c-1.94,21.39-3.07,35.05-3.09,37.64
				c-0.01,1.51,0.12,2.92,0.37,4.23C1407.94,1564.86,1430.09,1565.41,1432.95,1565.41z"/>
			<polygon class="st16" points="789.86,735.76 896.97,1166.01 911.63,1224.93 961.52,1425.33 1888.36,1425.33 1704.48,735.76 			
				"/>
			<polygon class="st15" points="789.85,735.76 775.01,740.71 941.79,1440.3 961.52,1425.33 			"/>
			<polygon class="st14" points="941.79,1440.3 1862.92,1440.3 1888.36,1425.33 961.52,1425.33 			"/>
			
				<rect x="1265.26" y="1565.62" transform="matrix(-1 -1.224647e-16 1.224647e-16 -1 2729.9658 3140.71)" class="st16" width="199.44" height="9.48"/>
			<polygon class="st16" points="1843.46,1298.27 1693.07,744.87 788.37,744.87 788.37,735.76 1704.48,735.76 1854.37,1297.04 			
				"/>
			<polygon class="st14" points="1414,1440.3 1412.97,1447.54 1225.41,1485.43 1227.98,1454.83 1229.21,1440.3 			"/>
			<path class="st17" d="M1432.95,1565.41c-7.62,0.02-154.88,0.48-192.63,0c-16.45-0.21-19.34-14.63-19.47-23.96l186.68-35.12
				c-1.94,21.39-3.07,35.05-3.09,37.64c-0.01,1.51,0.12,2.92,0.37,4.23C1407.94,1564.86,1430.09,1565.41,1432.95,1565.41z"/>
			<polygon class="st17" points="1368.67,1285.74 961.52,1425.33 911.63,1224.93 			"/>
			<polygon class="st18" points="789.85,735.76 1704.48,735.76 1852.88,1289.96 923.11,1289.96 			"/>
		</g>
		<path class="st14" d="M1449.51,1360.02c-2.64-13.59-15.8-24.61-29.39-24.61s-22.47,11.02-19.83,24.61
			c2.64,13.59,15.8,24.61,29.39,24.61S1452.16,1373.61,1449.51,1360.02z"/>
		<polygon class="st19" points="1809.75,1265.94 953.38,1265.94 856.39,879.6 848.96,849.97 842.61,824.7 827.74,765.44 
			1671.77,765.44 1688.1,824.7 1695.07,849.97 1703.24,879.6 		"/>
		<polygon class="st20" points="1688.1,824.7 842.61,824.7 827.74,765.44 1671.77,765.44 		"/>
		<g>
			<path class="st19" d="M862.66,792.22c-1.02-4.09,1.47-7.41,5.56-7.41c4.09,0,8.23,3.32,9.25,7.41c1.02,4.09-1.47,7.41-5.56,7.41
				C867.82,799.63,863.68,796.31,862.66,792.22z"/>
			<path class="st19" d="M887.27,792.22c-1.02-4.09,1.47-7.41,5.56-7.41c4.09,0,8.23,3.32,9.25,7.41c1.02,4.09-1.47,7.41-5.56,7.41
				C892.43,799.63,888.29,796.31,887.27,792.22z"/>
			<path class="st19" d="M913.77,792.22c-1.02-4.09,1.47-7.41,5.56-7.41c4.09,0,8.23,3.32,9.25,7.41c1.02,4.09-1.47,7.41-5.56,7.41
				C918.94,799.63,914.79,796.31,913.77,792.22z"/>
		</g>
	</g>
	<g>
		<path class="st18" d="M971.78,1206.93c0-17.09,14.31-30.95,31.97-30.95c17.65,0,31.97,13.86,31.97,30.95s-14.31,30.95-31.97,30.95
			C986.09,1237.88,971.78,1224.03,971.78,1206.93z"/>
		<path class="st19" d="M1001.18,1188.69l18.37,15.88c1.62,1.4,1.6,3.85-0.03,5.23l-18.05,15.23c-2.32,1.96-5.94,0.38-5.97-2.6
			l-0.31-31.11C995.14,1188.29,998.84,1186.67,1001.18,1188.69z"/>
		<path class="st20" d="M1724.48,1210.51c0,1.6-0.66,3.06-1.72,4.12c-1.06,1.06-2.51,1.72-4.12,1.72H1066.3
			c-3.21,0-5.83-2.63-5.83-5.83c0-1.6,0.66-3.06,1.72-4.12c1.06-1.06,2.51-1.72,4.12-1.72h652.35
			C1721.86,1204.67,1724.48,1207.3,1724.48,1210.51z"/>
		<path class="st18" d="M1138.92,1204.67v11.67h-72.62c-3.21,0-5.83-2.63-5.83-5.83c0-1.6,0.66-3.06,1.72-4.12
			c1.06-1.06,2.51-1.72,4.12-1.72H1138.92z"/>
	</g>
	<polygon class="st20" points="1643.9,1156.73 1076.79,1156.73 1012.56,924.61 1007.64,906.82 1003.44,891.64 993.58,856.04 
		1552.53,856.04 1563.34,891.64 1567.96,906.82 1573.37,924.61 	"/>
	<g>
		<polygon class="st19" points="1557.19,984.82 1370.73,984.82 1349.61,908.5 1348,902.65 1346.62,897.66 1343.37,885.96 
			1527.15,885.96 1530.7,897.66 1532.22,902.65 1534,908.5 		"/>
		<g>
			<polygon class="st21" points="1447.46,965.91 1382.81,965.91 1375.49,939.44 1374.92,937.42 1374.45,935.69 1373.32,931.63 
				1437.04,931.63 1438.28,935.69 1438.8,937.42 1439.42,939.44 			"/>
			<polygon class="st21" points="1529.77,965.91 1465.12,965.91 1457.79,939.44 1457.23,937.42 1456.75,935.69 1455.63,931.63 
				1519.35,931.63 1520.58,935.69 1521.11,937.42 1521.73,939.44 			"/>
			<path class="st20" d="M1483.44,900.49h-118.16c-0.93,0-1.68-0.76-1.68-1.68l0,0c0-0.93,0.76-1.68,1.68-1.68h118.16
				c0.93,0,1.68,0.76,1.68,1.68l0,0C1485.12,899.73,1484.37,900.49,1483.44,900.49z"/>
			<path class="st20" d="M1487.82,909.58h-118.16c-0.93,0-1.68-0.76-1.68-1.68l0,0c0-0.93,0.76-1.68,1.68-1.68h118.16
				c0.93,0,1.68,0.76,1.68,1.68l0,0C1489.5,908.82,1488.74,909.58,1487.82,909.58z"/>
		</g>
	</g>
	<path class="st20" d="M1508.25,922.78h-133.03c-1.04,0-1.9-0.85-1.9-1.89l0,0c0-1.04,0.85-1.9,1.9-1.9h133.03
		c1.04,0,1.9,0.85,1.9,1.9l0,0C1510.14,921.93,1509.29,922.78,1508.25,922.78z"/>
	<g>
		<polygon class="st19" points="1592.03,1104.16 1405.57,1104.16 1384.46,1027.84 1382.84,1021.99 1381.46,1017 1378.22,1005.3 
			1561.99,1005.3 1565.54,1017 1567.06,1021.99 1568.84,1027.84 		"/>
		<g>
			<polygon class="st21" points="1482.3,1085.25 1417.65,1085.25 1410.33,1058.78 1409.77,1056.76 1409.29,1055.03 1408.16,1050.97 
				1471.88,1050.97 1473.12,1055.03 1473.64,1056.76 1474.26,1058.78 			"/>
			<polygon class="st21" points="1564.61,1085.25 1499.96,1085.25 1492.63,1058.78 1492.07,1056.76 1491.6,1055.03 1490.47,1050.97 
				1554.19,1050.97 1555.42,1055.03 1555.95,1056.76 1556.57,1058.78 			"/>
			<path class="st20" d="M1518.28,1019.83h-118.16c-0.93,0-1.68-0.76-1.68-1.68l0,0c0-0.93,0.76-1.68,1.68-1.68h118.16
				c0.93,0,1.68,0.76,1.68,1.68l0,0C1519.96,1019.07,1519.21,1019.83,1518.28,1019.83z"/>
			<path class="st20" d="M1522.66,1028.92H1404.5c-0.93,0-1.68-0.76-1.68-1.68l0,0c0-0.93,0.76-1.68,1.68-1.68h118.16
				c0.93,0,1.68,0.76,1.68,1.68l0,0C1524.34,1028.16,1523.58,1028.92,1522.66,1028.92z"/>
			<path class="st20" d="M1525.86,1038H1407.7c-0.93,0-1.68-0.76-1.68-1.68l0,0c0-0.93,0.76-1.68,1.68-1.68h118.16
				c0.93,0,1.68,0.76,1.68,1.68l0,0C1527.54,1037.25,1526.78,1038,1525.86,1038z"/>
		</g>
	</g>
	<g>
		<path class="st8" d="M605.02,1510.33c0,0-10.3,4.95-13.71,13.08c-0.6,1.42-0.99,2.95-1.07,4.55c-0.57,10.8,0,35.25,0,35.25
			l-30.42-12.22l-30.34,12.22v-33.13c0-6.26,2.6-12.36,7.44-16.35c2.34-1.93,5.18-3.39,8.4-3.39H605.02z"/>
		<path class="st7" d="M605.02,1510.33c0,0-10.3,4.95-13.71,13.08l-60.95,0.48c0,0,2.39-11.64,14.97-13.56H605.02z"/>
	</g>
	<g>
		<g>
			<g>
				<path class="st4" d="M2088.9,1473.32h364.49v-155.97h-368.56c-34.63,0-62.71,28.08-62.71,62.71v26.48
					C2022.12,1443.42,2052.02,1473.32,2088.9,1473.32z"/>
				<path class="st11" d="M2444.41,1473.32h420.31v-155.97h-421.69c-33.66,0-60.95,27.29-60.95,60.95v32.7
					C2382.08,1445.41,2409.99,1473.32,2444.41,1473.32z"/>
				<path class="st4" d="M2355.5,1473.32h521.93c5.35,0,9.68-4.33,9.68-9.68v-3.96c0-5.35-4.34-9.68-9.68-9.68H2355.5
					c-5.35,0-9.68,4.33-9.68,9.68v3.96C2345.82,1468.98,2350.15,1473.32,2355.5,1473.32z"/>
				<path class="st4" d="M2355.5,1340.67h521.93c5.35,0,9.68-4.33,9.68-9.68v-3.96c0-5.35-4.34-9.68-9.68-9.68H2355.5
					c-5.35,0-9.68,4.33-9.68,9.68v3.96C2345.82,1336.34,2350.15,1340.67,2355.5,1340.67z"/>
			</g>
			<polygon class="st12" points="2864.72,1395.33 2806.21,1397.95 2864.72,1399.53 			"/>
			<polygon class="st12" points="2864.72,1359.44 2725.51,1362.06 2864.72,1363.64 			"/>
		</g>
		<g>
			<path class="st4" d="M2726.95,1361.54c0,0,9.19,4.95,12.23,13.08c0.54,1.42,0.88,2.95,0.95,4.55c0.51,10.8,0,35.25,0,35.25
				l27.13-12.22l27.05,12.22v-33.13c0-6.26-2.32-12.36-6.63-16.35c-2.09-1.93-4.62-3.39-7.49-3.39H2726.95z"/>
			<path class="st22" d="M2726.95,1361.54c0,0,9.19,4.95,12.23,13.08l54.36,0.48c0,0-2.13-11.64-13.35-13.56H2726.95z"/>
		</g>
	</g>
	<g>
		<path class="st23" d="M1976.23,1143.03c0,0-19.37,11.01-24.8,11.01c-5.42,0-26.71-4.12-32.65-1.08s-16.68,15.23-18.69,19.22
			c-3.62,7.17,14.59,4,23.2-2.1c1.25-0.89,2.8-1.21,4.3-0.89c4.46,0.97,13.72,2.66,18.19,1c6.01-2.23,37.7-4.7,37.7-4.7
			L1976.23,1143.03z"/>
		<path class="st24" d="M1954.33,1540.9c0,0-2.09,33.64-8.6,34.13c-0.87,0.06-33.01,0.06-33.01,0.06l-41.04-0.24
			c0,0,0.27-9.89,12.26-11.98c12-2.09,32.07-10.52,39.34-26.38C1930.94,1519.82,1954.33,1540.9,1954.33,1540.9z"/>
		<path class="st7" d="M2123.63,992.99c0,0-20.08,142.74-53.34,155.52c-16.41,6.31-88.93,20.61-110.38,22.04
			c0,0-5.25-4.26-3.97-21.62c0,0,75.98-27.89,86.77-43.06c16.06-22.58-9.97-92.23,10.18-113.43S2107,962.13,2123.63,992.99z"/>
		<path class="st25" d="M2116.86,1293.71c-5.86,9.94-12.63,19.25-19.62,28.07c-21.58,27.25-45.08,49.72-49.17,70.96
			c-0.81,4.23-2.11,8.79-3.79,13.59c-1.71,4.86-3.82,9.98-6.26,15.27c-9.16,19.9-22.86,42.19-36.53,62.46
			c-23.64,35.03-45.87,64.26-45.87,64.26l-40.77-1.74c1.63-4.09,19.42-52.46,43.2-111.57c9.66-24,19.93-49.52,29.84-74.14
			c1.32-3.29,2.64-6.56,3.95-9.81c3.03-7.53,6.01-14.95,8.92-22.17c22.33-55.5,40.13-99.7,40.13-99.7s89.27-33.82,98.54-11.9
			C2147.06,1235.36,2140.84,1253.06,2116.86,1293.71z"/>
		<path class="st24" d="M2048.74,1444.79c0,0,28.36,18.22,25.61,24.14c-0.37,0.79-16.04,28.86-16.04,28.86l-20.21,35.71
			c0,0-8.5-5.05-4.48-16.55c4.02-11.49,6.45-33.13-3.85-47.21C2018.93,1454.94,2048.74,1444.79,2048.74,1444.79z"/>
		<path class="st26" d="M2034.86,1476.82c0,0,17.72-15.63,20.85-27.1c0,0-73.03-87.5-88.87-107.11c-0.73-0.9-0.54-1.89,0.42-2.97
			c11.96-13.48,144.83-40.9,162.2-67.92c5.99-9.31,9.38-18.15,11.22-25.87c3.94-16.49,0.82-27.87,0.82-27.87l-132.7-3.84
			c0,0-110.49,68.8-123,115.7C1873.3,1376.76,2034.86,1476.82,2034.86,1476.82z"/>
		<path class="st27" d="M1967.26,1339.64c11.96-13.48,144.83-40.9,162.2-67.92c5.99-9.31,9.38-18.15,11.22-25.87v-16.79l-56.4-8.87
			c0,0-16,49.21-63.36,67.67C1976.55,1305.15,1968.15,1335.82,1967.26,1339.64z"/>
		<path class="st23" d="M2045.12,983.99c26.85,6.94,71.35-17.93,71.35-17.93s-17.28-11.61-23.68-37.13
			c-0.33-1.29-0.62-2.6-0.88-3.96c-2.81-0.6-8.11-1.72-13.79-2.92l-20.5,18.37c0,0,0.47,7.63,3.03,20.74
			c0.44,2.29,0.95,4.74,1.54,7.36C2051.18,975.34,2045.12,983.99,2045.12,983.99z"/>
		<path class="st8" d="M2144.89,1095.27c-3.84,51.72,1.21,130.37-3.15,143.99c-3.76,11.75-46.66,4.77-63.78,0.84
			c-6.34-1.45-14.01-3.53-21.94-5.98c-22.11-6.85-46.21-16.63-48.79-23.88c-0.1-0.29-0.19-0.56-0.24-0.84
			c-0.24-1.05-0.19-2.04,0.05-3.04c0.86-3.7,4.18-7.7,4.57-16.86c0.44-10.23,0.37-22.27,0.76-35.22c0.02-1.46,0.04-3.05,0.2-4.5
			l0.01-0.53c0.01-0.28,0.01-0.55,0.02-0.83c0.37-14.44,1.13-29.63,2-44.69c0.56-9.46,1.2-18.83,1.94-27.8
			c1.93-23.17,4.53-43.77,7.97-56.79c5.62-21.23,18.02-35.08,29.3-45.23l8.16-7c9.11,1.99,19.87,0.67,29.61-3.94
			c10.54-5,14.18-8.59,16.01-7.24C2131.92,974.5,2149.43,1032.05,2144.89,1095.27z"/>
		<path class="st7" d="M2056.02,1234.13c-22.11-6.85-46.21-16.63-48.79-23.88c-0.1-0.29-0.19-0.56-0.24-0.84
			c0.01-1.01,0.03-2.03,0.05-3.04c0.86-3.7,4.18-7.7,4.57-16.86c0.44-10.23,0.37-22.27,0.76-35.22c0.02-1.46,0.04-3.05,0.2-4.5
			l0.01-0.53c0.01-0.28,0.01-0.55,0.02-0.83l89.4-113.89C2101.98,1034.52,2162.08,1159.66,2056.02,1234.13z"/>
		<path class="st28" d="M2057.61,940.43c0,0,0.47,7.63,3.03,20.74c20.02-6.47,29.1-24.56,32.14-32.23c-0.33-1.29-0.62-2.6-0.88-3.96
			c-2.81-0.6-8.11-1.72-13.79-2.92L2057.61,940.43z"/>
		<path class="st23" d="M2054.92,951.99c0,0,43.67-7.29,38.71-34.41c-4.96-27.12-2.66-46.33-30.75-42.82
			c-28.09,3.51-31.6,14.84-32.15,24.3C2030.18,908.51,2043.43,953.19,2054.92,951.99z"/>
		<g>
			
				<rect x="1862.71" y="1081.26" transform="matrix(0.9511 -0.309 0.309 0.9511 -259.2491 631.7764)" class="st29" width="4.05" height="106.02"/>
			
				<rect x="1879.1" y="1177.47" transform="matrix(0.9998 -0.0214 0.0214 0.9998 -24.7755 41.5867)" class="st29" width="111.25" height="6.66"/>
		</g>
		<path class="st23" d="M1988.19,1188.25c0,0-35.74,9.42-49.14,8.43c-13.4-0.99-24.55-7.36-26.23-10.69
			c-1.69-3.33-5.23-9.23,3.89-8.14c9.12,1.09,21.58,3.03,21.97,1.28s-7.44-1.59-7.44-1.59s-2.37-3.44,0.61-3.56
			s11.67-2.48,14.89-0.87s6.21,7.57,8.56,7.32s29.91-12.41,29.91-12.41L1988.19,1188.25z"/>
		<path class="st8" d="M2114.77,998.85c0,0-4.22,144.08-35.87,160.46c-15.61,8.08-86.11,30.29-107.28,34.08
			c0,0-5.69-3.66-6.33-21.05c0,0,72.44-36.1,81.5-52.37c13.48-24.21-20.08-90.57-2.38-113.87
			C2062.1,982.81,2094.84,970.01,2114.77,998.85z"/>
		<path class="st30" d="M2092.78,928.94c0,0,0.5-9.31-5.24-14.64c0,0,2-9.33-1.69-10.87c-3.69-1.54-4.46,6.31-6.15,5.08
			c-1.69-1.23-9.23-7.07-12.46-15.69c-3.23-8.61-32.79,1.82-36.23,3.37c-3.45,1.55-14.52-4.14-16.67-8.75c0,0,6.15-4.92,8.92-8.61
			c2.77-3.69,22.15-28.61,49.21-21.53c27.07,7.07,30.76,19.99,29.22,31.07S2103.87,925.22,2092.78,928.94z"/>
	</g>
	<g>
		<g>
			<path class="st31" d="M2386.27,1048.51c0,0,13.86,20.51,21.77,63.63c6.92,37.76,12.99,51.7,22.99,59.45
				c10,7.74,65.71,30.61,65.71,30.61l-4.17,9.76c0,0-81.65-11.12-90.82-24.77c-9.17-13.65-44.14-94.27-41.42-112.84
				S2386.27,1048.51,2386.27,1048.51z"/>
			<g>
				<path class="st3" d="M2586.21,1498.95c-0.73,7.96,10.35,9.9,23.19,10.54c12.84,0.64,8.96,3.27,26.56,6.46
					c17.6,3.19,24.65-1.63,25.92-4.01c1.13-2.11-7.05-5.41-15.77-9.14c-1.1-0.46-2.2-0.95-3.29-1.43
					c-9.81-4.31-15.32-13.12-22.97-21.27c-7.25-7.73-14.13-32.47-14.13-32.47l-23.91-5.11c0,0,6.71,22.27,9.04,31.78
					c1.37,5.59-0.65,11.84-2.45,16.6C2587.45,1493.49,2586.47,1496.14,2586.21,1498.95z"/>
				<path class="st32" d="M2609.41,1509.49c12.84,0.64,8.96,3.27,26.56,6.46c17.6,3.19,24.65-1.63,25.92-4.01
					c1.13-2.11-7.05-5.41-15.77-9.14l-0.14,0.15c0,0-12.37,4.2-26.65,0.32c-11.64-3.16-22.9-10.12-30.92-12.36
					c-0.97,2.59-1.94,5.24-2.2,8.04C2585.48,1506.91,2596.57,1508.85,2609.41,1509.49z"/>
			</g>
			<path class="st24" d="M2348.09,1215.38c0,0,158.9-11.96,188.81,6.92s77.89,238.79,77.89,238.79s-2.96,2.37-9.57,3.09
				c-6.15,0.67-19.7-2.95-19.7-2.95s-68.95-98.39-73.81-123.18c-4.86-24.79-3.67-46.91-14.73-47.5
				c-11.06-0.59-148.92,16.76-169.77-19.98s-3.61-73.1-3.61-73.1L2348.09,1215.38z"/>
			<g>
				<path class="st3" d="M2525.41,1524.47c-0.73,7.96,10.35,9.9,23.19,10.54s8.96,3.27,26.56,6.46s24.65-1.63,25.92-4.01
					c1.13-2.11-7.05-5.41-15.77-9.14c-1.1-0.47-2.2-0.95-3.29-1.43c-9.81-4.31-15.32-13.12-22.97-21.27
					c-7.25-7.73-14.13-32.47-14.13-32.47l-23.91-5.11c0,0,6.71,22.27,9.05,31.78c1.37,5.59-0.65,11.84-2.45,16.6
					C2526.64,1519.01,2525.67,1521.66,2525.41,1524.47z"/>
				<path class="st32" d="M2548.6,1535.01c12.84,0.64,8.96,3.27,26.56,6.46s24.65-1.63,25.92-4.01c1.13-2.11-7.05-5.41-15.77-9.14
					l-0.14,0.15c0,0-12.37,4.2-26.65,0.32c-11.64-3.16-22.9-10.12-30.92-12.37c-0.97,2.59-1.94,5.24-2.2,8.04
					C2524.68,1532.43,2535.76,1534.37,2548.6,1535.01z"/>
			</g>
			<path class="st33" d="M2316.97,1225.23c0,0,141.16,6.68,170.31,26.71c29.16,20.03,68.54,241.64,68.54,241.64
				s-3.05,2.26-9.69,2.71c-6.17,0.43-19.57-3.71-19.57-3.71s-65.07-101-68.96-125.96c-3.89-24.96-1.84-47.01-12.87-48.04
				c-11.03-1.02-149.46,10.95-168.87-26.57C2256.47,1254.49,2316.97,1225.23,2316.97,1225.23z"/>
			<path class="st4" d="M2367.27,914.61c-6.26-4.13-14.04-5.06-19.52-5.1c1.5-1.36,4.3-1.7,4.3-1.7
				c-3.35-0.73-11.13,2.12-11.13,2.12c-45.86-21.28-57.88,47.54-57.97,63.71c-0.09,16.17-1.21,34.71-25.67,47.58
				c-48.13,25.33-12.43,77.54-12.43,77.54c0.35,0.24,32.08,42.25,32.08,42.25c-0.32-13.09,51.33-82.49,84.02-100.97
				c8.37-10.72,12.41-30.37,12.71-31.92c-2.36,15.64-5.64,24.28-8.38,29.08C2393.45,1014.57,2383.87,925.57,2367.27,914.61z"/>
			<path class="st3" d="M2311.04,1024.89c0,0,13.15-1.25,26.29,0c8.93,0.85,17.78,3.62,22.81,5.72
				c12.44,5.2,11.14,27.23-14.97,23.15C2319.07,1049.68,2309.21,1031.42,2311.04,1024.89z"/>
			<path class="st3" d="M2359.04,1040.95c0.15,0.08,3.72,18.95-13.37,18.19c-11.22-0.5-35.42-14.07-33.28-23.68
				c1.02-4.57,9.49-16.41,11.2-43.46l2.04,0.55l34.34,9.21c0,0-1.52,10.9-2.23,21.22
				C2357.14,1031.64,2357.12,1039.89,2359.04,1040.95z"/>
			<path class="st31" d="M2359.97,1001.76c0,0-1.52,10.9-2.23,21.22c-19.44-1.85-28.55-20.3-32.11-30.43L2359.97,1001.76z"/>
			<path class="st4" d="M2322.29,988.52c0,0-9.13-16.81-10.66-30.76c-1.09-9.96,6.35-46.12,42.67-38.42c0,0,10.58,1.76,20.14,9.19
				c7.6,5.91,18.32,18.28,3.35,49.27l-4.05,10.53L2322.29,988.52z"/>
			<path class="st3" d="M2365.83,1011.96c0,0-46.13-2.31-44.25-31.02c1.88-28.71-2.8-48.34,26.73-48.07
				c29.53,0.26,34.53,11.59,36.23,21.32C2386.24,963.93,2377.88,1011.83,2365.83,1011.96z"/>
			<path class="st4" d="M2369.34,933.57c0,0-14.86,32.83-34.55,36.52c-19.69,3.69-27.75-2.06-27.75-2.06s15.64-10.81,20.09-31.2
				C2327.13,936.83,2360.89,916.91,2369.34,933.57z"/>
			<path class="st4" d="M2366.03,936.1c0,0,8.92,8.15,10.73,15.61c1.81,7.46,1.84,22.58,6.26,22.36c0,0,11.03-22.25,1.21-35.91
				C2373.82,923.66,2366.03,936.1,2366.03,936.1z"/>
			<path class="st33" d="M2411.98,1217.78c-3.73,4.46-15.39,5.83-27.85,7.88c-9.8,1.62-20.1,3.65-27.42,7.95
				c-16.63,9.76-70.96,42.76-86.88,41.26c-6.17-0.58-5.02-12.37-1.28-28c5.89-24.7,18.21-58.99,18.21-73.9
				c0-8.14,2.71-27.4,6.32-49.42c0.29-1.78,0.59-3.56,0.89-5.37c7.15-42.81,17.06-93.29,17.06-93.29s11.05,24.11,32.58,24.11
				c21.52,0,16.52-18.38,16.52-18.38s19.64,2.31,24.28,7.31c4.65,5,16.41,26.61,18.75,32.5c0,0,0.48,7.5-18.09,11.07
				c0,0,4.52,20.36,5.06,33.92c0.4,10.02-6.84,41.4-8.92,60.91c-0.74,6.91-0.83,12.33,0.29,14.79c1.44,3.15,6.08,6.29,11.37,9.37
				C2403.37,1206.6,2416.41,1212.48,2411.98,1217.78z"/>
			<path class="st24" d="M2392.87,1200.49c11.92,20.32-32.32,26.42-39.64,30.73c-16.63,9.76-67.48,45.16-83.4,43.66
				c-6.17-0.58-5.02-12.37-1.28-28c5.89-24.7,18.21-58.99,18.21-73.9c0-8.14,2.71-27.4,6.32-49.42l19.17-18.4
				c0,0,20.54,53.08,40.12,61.78c10.26,4.56,20.98,7.56,28.85,9.39c-0.74,6.91-0.83,12.33,0.29,14.79
				C2382.94,1194.27,2387.59,1197.41,2392.87,1200.49z"/>
			<g>
				<rect x="2416.94" y="1215.55" class="st6" width="44.46" height="5.25"/>
				<path class="st6" d="M2451.95,1220.09c0.44-1.74,40.87-65.23,40.87-65.23h89.96l-45.12,63.52L2451.95,1220.09z"/>
				<path class="st4" d="M2455.74,1220.81c0.43-1.74,41-65.95,41-65.95h86.04l-42.93,65.95H2455.74z"/>
				<path class="st6" d="M2531.59,1188.05c-0.89,2.57-3.69,4.66-6.26,4.66c-2.57,0-3.94-2.08-3.05-4.66
					c0.89-2.57,3.69-4.66,6.26-4.66S2532.47,1185.47,2531.59,1188.05z"/>
			</g>
			<path class="st3" d="M2430.14,1192.98c-2.52-1.08-22.01,2.46-27.57,3.51c-17.65-3.46-75.66-15.05-78.48-18.68
				c-3.33-4.29-10.61-134.85-18.94-137.03c0,0-16.39-9.95-32.23,8.93c-15.85,18.88,11.26,153.84,34.74,160.77
				c26.08,7.7,101.42-1.23,101.42-1.23v0c6.19,2.11,17.01,3.3,22.75,5.22c7.58,2.53,14.32,0.42,16-2.53
				S2433.09,1194.25,2430.14,1192.98z"/>
			<path class="st33" d="M2311.04,1024.89c0,0-33.66,3.04-43.43,14.11c-9.77,11.07-12.63,41.07-12.63,41.07s29.64,23.93,65.35,14.64
				L2311.04,1024.89z"/>
		</g>
	</g>
	<path class="st34" d="M3041.75,1582.19H181.93c-1.79,0-3.25-1.46-3.25-3.25v-1.11c0-1.79,1.46-3.25,3.25-3.25h2859.82
		c1.79,0,3.25,1.46,3.25,3.25v1.11C3045,1580.73,3043.54,1582.19,3041.75,1582.19z"/>
	<g>
		<defs>
			<polygon id="SVGID_1_" points="1643.9,1156.73 1076.79,1156.73 1012.56,924.61 1007.64,906.82 1003.44,891.64 993.58,856.04 
				1552.53,856.04 1563.34,891.64 1567.96,906.82 1573.37,924.61 			"/>
		</defs>
		<clipPath id="SVGID_2_">
			<use xlink:href="#SVGID_1_"  style="overflow:visible;"/>
		</clipPath>
		<g class="st35">
			<path class="st3" d="M1344.33,966.72c0,0,3.14-12.45,8.39-13.11c5.25-0.66,13.13-3.98,14.79,0.21
				c1.65,4.18-12.53,25.82-18.18,20.47C1343.67,968.95,1344.33,966.72,1344.33,966.72z"/>
			<path class="st24" d="M1288.27,1382.81c0,0,5.91,6.67,8.08,14.42c0.48,1.72-0.55,3.13-2.27,3.13h-25.71
				c-2.49,0-4.95-2.34-4.99-4.75c-0.06-4.71,0.59-11.82,4.57-16.14C1274.29,1372.57,1288.27,1382.81,1288.27,1382.81z"/>
			<path class="st24" d="M1327.12,1375.98c0,0,7.87,23.84,12.57,24.18c0.63,0.05,23.4,0.05,23.4,0.05l29.38,0
				c0,0-2.42-7.17-11.31-8.65c-8.9-1.48-24.72-7.46-32.88-18.69C1339.69,1361.04,1327.12,1375.98,1327.12,1375.98z"/>
			<g>
				<path class="st36" d="M1275.35,1228.71c4.58,13.24,7.51,23.7,7.48,28.65c-0.12,22.17,43.69,122.28,43.69,122.28
					c14.13,5.99,30.3-0.06,30.3-0.06c-4.8-13.87-31.47-138.01-45.63-213.75c-5.95-31.8-9.99-54.04-9.99-54.04l-77.38-8.74
					C1223.83,1103.06,1259.47,1182.72,1275.35,1228.71z"/>
				<path class="st36" d="M1223.83,1103.06c0,0,35.64,79.66,51.52,125.65l35.85-62.87c-5.95-31.8-9.99-54.04-9.99-54.04
					L1223.83,1103.06z"/>
			</g>
			<path class="st36" d="M1265.19,1120.05c0,0,21.28,221.19,26.22,264.02c0,0-13.16,3.97-29.34-2.18c0,0-29.42-102.78-32.74-133.75
				c-3.32-30.96-36.59-126.68-30.96-135.58C1204,1103.65,1265.19,1120.05,1265.19,1120.05z"/>
			<path class="st3" d="M1210.74,931.43c0,0,8.18,19.66,8.48,25.53s-18.38,9.06-27.85,4.21s-7.97-9.17-7.97-9.17
				s-4.31-19.98-3.59-21.59C1180.53,928.8,1210.74,931.43,1210.74,931.43z"/>
			<path class="st37" d="M1342.12,964.43c0,0-33.43,41.57-34.82,46.92c-19.2-22.37-48.73-50.43-50.07-51.52
				c-3.78-3.07-10.56-4.94-17.43-6.07c-9.42-1.56-18.99-1.74-21.16-1.76c-0.31-0.04-0.48-0.04-0.47-0.01
				c0.89,3.32-2.72,9.45-10.64,10.01c-9.4,0.61-22.65-4.48-24.13-10.01c-0.07-0.28-22.04,1.11-18.18,42.13
				c0.04,0.55,0.09,1.16,0.2,1.77c1.48,13.77,5.81,31.79,14.65,55.51c3.17,8.51,13.63,71.71,16.74,71.76c0,0,2.69,1.38,8.68,3.1
				c3.11,0.88,7.19,1.88,12.2,2.82c10.65,1.99,25.67,3.76,45.84,3.76c36.88,0,46.22-10.5,46.22-10.5c1.98,0-20.51-50.83-32.28-94.49
				c12.24,7.14,25.24,13.94,26.62,14.78c6.18,3.75,10.51,5.31,13.53,5.49c0.01,0,0.02,0.01,0.02,0.01s0.15,0.02,0.41,0.01
				c1.77,0.03,3.05-0.43,3.98-1.19c2.78-1.46,6.57-4.68,10.42-11.76c5.07-9.33,11.09-28.22,16.26-40.81
				c2.86-6.97,5.07-14.59,7.99-20.88C1356.69,973.48,1349.56,965.85,1342.12,964.43z"/>
			<path class="st38" d="M1222.23,1066.81c7.36,30.57-6.65,50.09-16.75,59.43c-5.99-1.71-8.68-3.1-8.68-3.1
				c-3.11-0.06-13.57-63.25-16.74-71.76c-8.84-23.72-13.17-41.74-14.65-55.51c0.8-0.94,1.27-1.44,1.27-1.44
				S1211.3,1021.48,1222.23,1066.81z"/>
			<path class="st39" d="M1211.64,933.64c0,0-4.71,10.68-12.7,10.77c-7.98,0.1-19.03-10.6-19.03-10.6L1211.64,933.64z"/>
			<path class="st3" d="M1212.23,933.11c-1.65,1.65-5.73,3.93-9.16,5.44c-2.6,1.14-5.8,1.21-9.03,0.19
				c-4.83-1.52-12.16-3.91-14.13-4.93c-4.66-2.43-5.72-7.35-7.76-14.2c-2.42-8.1-4.94-14.46-5.28-19.13
				c-0.42-5.59,2.27-8.76,11.95-9.63c17.78-1.58,26.58,2.98,28.53,9.08c0.52,1.64,1.02,3.2,1.47,4.68
				C1214.65,923.65,1214.95,930.4,1212.23,933.11z"/>
			<path class="st36" d="M1208.07,902.19c0,0-4.16-4.39-9.3-2.67c-5.14,1.72-4.43,6.51-14.21,5.74c-9.78-0.77-13.29-5.3-14.41-3.03
				c-1.12,2.27,1.47,15.65,1.47,15.65s-31.01-43.89,8.01-43.89c0,0,39.55-2.43,32.18,42.18L1208.07,902.19z"/>
			<path class="st3" d="M1290.09,943.76l-0.04,0.03C1290.1,943.81,1290.09,943.76,1290.09,943.76z"/>
			<path class="st40" d="M1294.31,881.05c0.13-0.73,0.24-1.21,0.24-1.21C1294.4,880.18,1294.32,880.59,1294.31,881.05z"/>
			<g>
				<polygon class="st36" points="1356.38,1015.13 1349.99,1014.16 1367.92,912.51 1367.92,912.51 				"/>
			</g>
			<path class="st3" d="M1347.46,963c0,0,5.9,5.85,6.89,2.65c0.99-3.2,8.47-6.89,9.02-8.39c0.55-1.5-8.61-2.16-9.95-2.2
				C1352.08,955.03,1346.5,960.94,1347.46,963z"/>
			<path class="st33" d="M1196.82,960.73c0.51,0.13,7.4-1.73,16.79-0.61c0,0,0.7,8.49-1.73,9.18c-2.43,0.69-7.54,0.12-8.6,0
				C1202.21,969.19,1196.82,960.73,1196.82,960.73z"/>
			<path class="st33" d="M1203.28,969.31c0,0,28.44,119.44,36,127.04c7.56,7.6,13.51,9.98,13.51,9.98s5.97-7.22,5.87-10.67
				c-0.1-3.46-46.77-126.35-46.77-126.35H1203.28z"/>
			<path class="st3" d="M1243.12,1085.87c0,0,19.33,6.26,25.16,6.49c5.82,0.23,12.66-9.71,10.39-12.64
				c-0.66-0.85-9.1,3.04-11.5,1.72c-3.65-2-8.33-0.47-11.26-0.13s-14.17-5.97-14.17-5.97L1243.12,1085.87z"/>
			<path class="st37" d="M1249.9,1075.3c-31.42-22.2-53.49-33.38-60.4-36.68c1.92-16.42,1.06-42.52-6.1-86.65
				c0,0-30.49,3.38-33.75,14.04c-4.7,15.36,6.36,58.13,15.53,92.33c0,0,0.13,0.08,0.35,0.21c0.65,1.16,1.6,2.29,2.93,3.36
				c12.98,10.43,81.71,30.45,81.71,30.45C1255.15,1085.13,1249.9,1075.3,1249.9,1075.3z"/>
			<g>
				<polygon class="st11" points="1263.93,1078.36 1212.37,1063.02 1210.74,1070.4 1265.97,1085.95 				"/>
				<polygon class="st12" points="1290.01,1058.47 1263.93,1078.36 1265.97,1085.95 1295.98,1065.47 				"/>
				<g>
					<polygon class="st36" points="1266.55,1088.13 1207.72,1070.18 1207.91,1068.66 1265.97,1085.95 					"/>
				</g>
				<g>
					<polygon class="st36" points="1266.55,1088.13 1299.86,1064.99 1298.51,1063.62 1265.97,1085.95 					"/>
				</g>
			</g>
			<path class="st33" d="M1196.82,960.73c0,0-13.48-14-14.58-13.08c-1.1,0.92-2.49,4.01-1.84,4.89
				c0.65,0.87,18.06,10.69,18.06,10.69L1196.82,960.73z"/>
			<path class="st33" d="M1213.62,960.13c0,0,2.7-13.95,3.15-13.41c0.45,0.54,4.79,4.39,4.95,5.36c0.16,0.97-5.42,8.84-8.03,9.44
				C1211.09,962.11,1213.62,960.13,1213.62,960.13z"/>
		</g>
		<g class="st35">
			<path class="st3" d="M4135.08,985.3c0,0,7.47-14.35,13.72-15.11c6.25-0.76,16.37-4.59,16.98,0.24
				c0.61,4.82-22.42,29.77-27.28,23.61C4133.64,987.87,4135.08,985.3,4135.08,985.3z"/>
			<path class="st37" d="M3994.18,968.32c0,0,9.96,40.2,24.65,70.26c4.12,8.43,44,32.47,46.4,34.22
				c25.11,18.24,24.61-8.55,24.61-8.55c1.42-17.68-51.3-85.05-53.05-86.88c-3.4-3.54-10.65-5.7-18.22-7
				C4006.77,968.31,3994.18,968.32,3994.18,968.32z"/>
			<path class="st24" d="M3941.9,1465.03c0,0,4.76,7.69,4.86,16.62c0.02,1.99-1.6,3.6-3.58,3.6h-29.64c-2.87,0-4.99-2.7-4.28-5.48
				c1.38-5.43,4.33-13.63,10.25-18.61C3928.95,1453.22,3941.9,1465.03,3941.9,1465.03z"/>
			<path class="st24" d="M3988.8,1457.15c0,0,1.7,27.49,7.02,27.88c0.71,0.05,26.97,0.05,26.97,0.05l33.88,0
				c0,0-0.57-8.27-10.37-9.98c-9.8-1.71-26.2-8.6-32.14-21.55C4007.92,1439.93,3988.8,1457.15,3988.8,1457.15z"/>
			<g>
				<path class="st41" d="M3974.61,1287.36c1.19,15.27,1.34,27.32-0.23,33.04c-6.99,25.56,12.6,140.99,12.6,140.99
					c14.44,6.91,34.95-0.07,34.95-0.07c-1.25-15.99,6.36-159.12,13.43-246.44c2.96-36.66,5.18-62.31,5.18-62.31l-86.52-10.07
					C3954.03,1142.49,3970.52,1234.33,3974.61,1287.36z"/>
				<path class="st41" d="M3954.03,1142.49c0,0,16.49,91.84,20.58,144.87l60.76-72.49c2.96-36.66,5.18-62.31,5.18-62.31
					L3954.03,1142.49z"/>
			</g>
			<path class="st15" d="M3996.47,1162.08c0,0-43.8,255.02-51.33,304.4c0,0-16.4,4.58-33.15-2.52c0,0-2.17-118.5,3.57-154.2
				c5.73-35.7-3.05-146.06,6.19-156.32C3930.98,1143.17,3996.47,1162.08,3996.47,1162.08z"/>
			<path class="st3" d="M3991.96,944.61c0,0,3.36,22.66,1.89,29.43c-1.47,6.77-23.99,10.45-33.41,4.86
				c-9.42-5.59-6.35-10.58-6.35-10.58s1.2-23.04,2.53-24.89C3957.94,941.58,3991.96,944.61,3991.96,944.61z"/>
			<path class="st37" d="M4047.14,1164.7c0,0-14.02,12.11-56.54,12.11c-23.27,0-40.03-2.04-51.69-4.33
				c-5.48-1.08-9.88-2.23-13.19-3.25c-6.37-1.98-9.05-3.57-9.05-3.57c-3.57-0.06,3.89-72.92,2.87-82.74
				c-2.87-27.34-2.29-48.13,0.25-64c0.06-0.7,0.19-1.4,0.32-2.04c8.22-47.3,33.97-48.89,33.97-48.57c0,6.37,13.7,12.24,24.73,11.54
				c9.31-0.64,15.36-7.71,15.36-11.54c0-0.13,3.12,0.38,7.71,1.15c23.52,4.08,37.23,39.01,37.23,85.67
				C4039.11,1105.61,4049.44,1164.7,4047.14,1164.7z"/>
			<path class="st38" d="M3963.38,1100.7c-0.96,35.25-23.14,57.75-37.67,68.52c-6.37-1.98-9.05-3.57-9.05-3.57
				c-3.57-0.06,3.89-72.92,2.87-82.74c-2.87-27.34-2.29-48.13,0.25-64c1.21-1.08,1.91-1.66,1.91-1.66
				S3964.79,1048.43,3963.38,1100.7z"/>
			<path class="st39" d="M3992.32,947.16c0,0-8.73,12.31-17.97,12.42c-9.23,0.11-18.66-12.23-18.66-12.23L3992.32,947.16z"/>
			<path class="st3" d="M3993.16,946.55c-2.42,1.9-7.82,4.53-12.24,6.27c-3.35,1.32-7.06,1.4-10.47,0.22
				c-5.1-1.76-12.81-4.5-14.77-5.68c-4.63-2.8-4.33-8.48-4.56-16.37c-0.28-9.34-1.23-16.67-0.18-22.05
				c1.24-6.44,5.32-10.1,16.75-11.1c20.99-1.82,29.73,3.43,30.09,10.47c0.09,1.89,0.18,3.69,0.24,5.4
				C3998.87,935.64,3997.14,943.42,3993.16,946.55z"/>
			<path class="st36" d="M3997.91,910.9c0,0-3.44-5.07-9.89-3.08c-6.46,1.99-7.12,7.51-18.16,6.62
				c-11.04-0.88-13.69-6.11-15.67-3.49c-1.99,2.61-3.14,18.04-3.14,18.04s-22.19-50.6,22.79-50.6c0,0,46.35-2.8,24.07,48.64V910.9z"
				/>
			<path class="st37" d="M3954.09,968.29c0,0-36.2,3.9-43.25,16.19c-10.16,17.71-10.62,67.02-10.62,106.46
				c0,0,15.38,11.67,25.89-5.58C3936.07,1069.02,3946.69,1038.34,3954.09,968.29z"/>
			<path class="st3" d="M4079.64,958.82l-0.06,0.03C4079.63,958.88,4079.64,958.82,4079.64,958.82z"/>
			<path class="st40" d="M4103.88,886.52c0.38-0.84,0.64-1.39,0.64-1.39C4104.25,885.52,4104.04,885.99,4103.88,886.52z"/>
			<g>
				<polygon class="st36" points="4146.41,1031.6 4140.12,1030.54 4161.87,913 4164.04,913.37 				"/>
			</g>
			<path class="st3" d="M4139.06,986.05c0,0,8.55,2.56,8.75-1.22c0.2-3.78,7.77-11.71,7.97-13.52c0.2-1.82-10.6,2.68-12.16,3.4
				C4142.06,975.43,4137.36,984.52,4139.06,986.05z"/>
			<path class="st37" d="M4147.24,993.09c0,0-5.86-8.8-13.99-10.44c0,0-17.91,18.98-38.7,35.27c-15.28,11.97-19.79,26.12-21.52,34.8
				c-4.08,20.48,6.13,26.41,6.13,26.41s8.13,1.02,21.06-14.92c8.73-10.76,21.5-32.53,31.36-47.05
				C4137.03,1009.13,4141.93,1000.35,4147.24,993.09z"/>
			<path class="st33" d="M3966.86,978.39c0.55,0.16,9.07-1.99,19.55-0.7c0,0-1.82,9.79-4.83,10.59c-3.01,0.8-8.72,0.13-9.92,0
				S3966.86,978.39,3966.86,978.39z"/>
			<path class="st33" d="M3971.66,988.28c0,0-4.12,137.71,2.26,146.47c6.37,8.76,12.49,11.51,12.49,11.51s9.11-8.32,10.06-12.3
				c0.95-3.98-14.89-145.68-14.89-145.68H3971.66z"/>
			<path class="st3" d="M3981.58,1122.67c0,0,20.36,7.22,27,7.49c6.64,0.27,17.6-11.19,15.88-14.57c-0.5-0.98-11.43,3.51-13.8,1.99
				c-3.59-2.3-9.45-0.55-12.94-0.15c-3.49,0.4-14.5-6.89-14.5-6.89L3981.58,1122.67z"/>
			<path class="st37" d="M3932.03,1066.96c0,0,24.85,12.33,60.63,43.52c0,0,3.03,11.33-4.96,19.67c0,0-73.06-23.08-84.8-35.11
				C3891.16,1083.02,3921.07,1064.64,3932.03,1066.96z"/>
			<g>
				<polygon class="st11" points="4007.9,1114.01 3953.19,1096.32 3949.03,1104.84 4007.9,1122.76 				"/>
				<polygon class="st12" points="4044.11,1091.08 4007.9,1114.01 4007.9,1122.76 4048.83,1099.15 				"/>
				<g>
					<polygon class="st36" points="4007.9,1125.28 3945.61,1104.58 3946.31,1102.83 4007.9,1122.76 					"/>
				</g>
				<g>
					<polygon class="st36" points="4007.9,1125.28 4053.45,1098.6 4052.32,1097.01 4007.9,1122.76 					"/>
				</g>
			</g>
			<path class="st33" d="M3966.86,978.39c0,0-11.22-16.14-12.77-15.08s-4.11,4.63-3.63,5.63c0.48,1.01,17.52,12.33,17.52,12.33
				L3966.86,978.39z"/>
			<path class="st33" d="M3986.41,977.69c0,0,7.42-16.08,7.77-15.46c0.35,0.62,4.17,5.06,4.05,6.17
				c-0.12,1.12-8.98,10.19-12.17,10.88C3982.88,979.98,3986.41,977.69,3986.41,977.69z"/>
		</g>
	</g>
</g>
</svg>
