<?xml version="1.0" encoding="utf-8"?>
<!-- Generator: Adobe Illustrator 24.1.1, SVG Export Plug-In . SVG Version: 6.00 Build 0)  -->
<svg version="1.1" xmlns="http://www.w3.org/2000/svg" xmlns:xlink="http://www.w3.org/1999/xlink" x="0px" y="0px"
	 viewBox="0 0 500 500" style="enable-background:new 0 0 500 500;" xml:space="preserve">
<style type="text/css">
	.st0{fill:#7444AD;}
	.st1{fill:#FFFFFF;}
	.st2{fill:#54A25A;}
	.st3{fill:#5ECB73;}
	.st4{fill:#25C1CB;}
	.st5{fill:none;stroke:#130E42;stroke-width:0.9883;stroke-miterlimit:10;}
	.st6{fill:#D4E9FF;}
	.st7{fill:#130E42;}
	.st8{fill:#6FA4FF;}
	.st9{fill:#FF981A;}
	.st10{fill:#FFC21A;}
	.st11{fill:#D54D1A;}
	.st12{fill:#FF9F8D;}
	.st13{fill:#FFB6AB;}
	.st14{fill:#FF716A;}
	.st15{fill:#0F3C8B;}
	.st16{fill:#231D5A;}
	.st17{fill:none;stroke:#231D5A;stroke-width:0.4942;stroke-miterlimit:10;}
	.st18{fill:#456BFF;}
	.st19{fill:#FF5A61;}
	.st20{fill:#FF8E75;}
	.st21{fill:#484FB6;}
	.st22{fill:#C2E0FF;}
	.st23{fill:#00569C;}
	.st24{fill:#4582FF;}
	.st25{fill:#FF7E79;}
	.st26{fill:none;stroke:#6FA4FF;stroke-width:0.9883;stroke-miterlimit:10;}
</style>
<g id="BACKGROUND">
	<g>
		<g>
			<rect class="st0" width="500" height="500"/>
			<rect class="st1" width="500" height="500"/>
		</g>
	</g>
</g>
<g id="OBJECTS">
	<g>
		<path class="st2" d="M55.71,213.95c0,0,8.42-8.42,4.21-13.05c-4.21-4.63-5.47-5.89-5.05-13.05c0.42-7.16-9.26-5.47-9.26-11.79
			c0-6.31-2.53-10.52-8-11.79c-5.47-1.26-3.79-8.42-7.16-8.42c-3.37,0-7.16,4.63-4.63,8.84c2.53,4.21,5.05,6.31,4.21,11.37
			c-0.84,5.05,5.47,4.63,6.31,8.84c0.84,4.21-4.21,8.84,0.42,13.05c4.63,4.21,9.26,5.47,8,9.26
			C43.5,211.01,50.66,215.64,55.71,213.95z"/>
		<path class="st3" d="M55.17,220.1c0,0-10.39-10.39-5.19-16.1c5.19-5.71,6.75-7.27,6.23-16.1c-0.52-8.83,11.43-6.75,11.43-14.54
			c0-7.79,3.12-12.99,9.87-14.54c6.75-1.56,4.67-10.39,8.83-10.39s8.83,5.71,5.71,10.91c-3.12,5.19-6.23,7.79-5.19,14.02
			c1.04,6.23-6.75,5.71-7.79,10.91c-1.04,5.19,5.19,10.91-0.52,16.1c-5.71,5.19-11.43,6.75-9.87,11.43
			C70.24,216.47,61.41,222.18,55.17,220.1z"/>
		<path class="st4" d="M62.7,237.65H51.02c-2.86,0-5.29-2.11-5.68-4.95L42.22,210h29.27l-3.11,22.69
			C67.99,235.53,65.57,237.65,62.7,237.65z"/>
		<path class="st5" d="M440.31,169.75c0,0-10.05,9.25-1.61,25.33c8.44,16.09,2.41,33.78-4.83,38.6"/>
		<path class="st6" d="M418.8,221.93c0,0,8.44,3.92,8.44,12.37h-19.6L418.8,221.93z"/>
		<polygon class="st6" points="406.33,131.75 405.53,139.79 442.93,177.19 445.74,168.34 		"/>
		<g>
			
				<rect x="424.43" y="119.29" transform="matrix(0.7071 -0.7071 0.7071 0.7071 18.5288 346.432)" class="st7" width="6.03" height="63.13"/>
			
				<rect x="384.59" y="199.91" transform="matrix(0.5681 -0.8229 0.8229 0.5681 14.8321 438.9415)" class="st7" width="82.1" height="10.86"/>
		</g>
		<g>
			<g>
				<polygon class="st8" points="292.93,337.24 262.37,448.23 259.15,448.23 284.08,334.83 				"/>
				<polygon class="st8" points="267.19,337.24 236.63,448.23 233.41,448.23 258.35,334.83 				"/>
			</g>
			<g>
				<polygon class="st8" points="310.62,337.24 341.19,448.23 344.4,448.23 319.47,334.83 				"/>
				<polygon class="st8" points="336.36,337.24 366.92,448.23 370.14,448.23 345.21,334.83 				"/>
			</g>
		</g>
		<g>
			<path class="st9" d="M348.42,263.25c0,0-0.8-63.54-30.56-64.34c-29.76-0.8-48.26,23.32-51.47,52.28
				c-3.22,28.95-22.52,68.36-26.54,80.43c-4.02,12.06,52.28,16.09,67.56,11.26c15.28-4.83,47.45-5.63,45.04-39.41
				C350.03,269.68,348.42,263.25,348.42,263.25z"/>
			<path class="st10" d="M341.99,207.75c0,0,34.19,101.59,15.28,122.25c-21.72,23.73-105.36,14.88-108.58,10.05
				c-3.22-4.83,84.45,2.01,94.1-20.51c9.65-22.52-12.87-109.38-8.85-111.79C337.97,205.34,339.58,202.12,341.99,207.75z"/>
		</g>
		<g>
			<path class="st11" d="M279.66,110.03c0,0-22.52,9.35-16.89,37.8c2.41,3.62,8.85-1.61,20.91-0.8c12.06,0.8,29.36-4.02,28.55-12.47
				C311.43,126.12,301.37,104.4,279.66,110.03z"/>
			<g>
				<path class="st12" d="M236.23,154.67c0,0,0.8-8.85-6.03-12.47c-6.84-3.62-11.26-10.05-11.26-10.05s-2.81,1.61-1.21,4.42
					c1.61,2.81,3.22,3.62,3.22,5.63c0,2.01-1.21,3.62-1.21,3.62s-4.83-3.22-8.04-5.63c-3.22-2.41-8.85-10.86-10.05-10.05
					c-1.21,0.8-1.61,2.01,0.4,4.02c2.01,2.01,6.84,8.04,10.05,10.46c3.22,2.41-14.07-13.27-15.28-12.47
					c-1.21,0.8,1.21,4.42,4.42,7.64c3.22,3.22,11.26,7.24,16.09,9.65C222.15,151.85,236.23,154.67,236.23,154.67z"/>
				<path class="st13" d="M237.23,158.89c0,0,16.3,60.06,15.39,69.54c-0.91,9.48-17.2,9.48-19.61,2.24
					c-2.41-7.24-4.22-62.73-6.64-71.18c-2.41-8.44-22.32-13.27-22.32-13.27s-12.06-10.25-10.86-10.86c1.21-0.6,6.03,0,10.25,3.62
					c4.22,3.62,6.03,4.83,15.08,5.43c9.05,0.6,15.68,0,18.1,5.43C239.04,155.27,237.23,158.89,237.23,158.89z"/>
			</g>
			<path class="st14" d="M271.62,173.37c0,0-4.83-0.6-10.86,9.65c-6.03,10.25-29.56,44.03-19.3,50.07
				c10.25,6.03,18.1-1.21,21.11-7.24c3.02-6.03,27.75-34.99,25.94-42.83C286.7,175.18,278.86,170.96,271.62,173.37z"/>
			<g>
				<path class="st14" d="M165.71,428.76l-2.76,4.14c0,0-13.79,18.38-13.79,21.6c0,3.22,20.22-10.57,22.06-12.87
					c1.84-2.3,2.3-5.05,2.3-5.05l1.38-5.51L165.71,428.76z"/>
				<path class="st14" d="M213.96,431.51l1.84,5.05c0,0,1.38,16.54,5.51,20.68c4.14,3.22,6.43-19.3,4.6-23.9
					c-1.84-3.68-2.76-5.05-2.76-5.05L213.96,431.51z"/>
				<path class="st15" d="M274.16,285.84c0,0-49.63,0-89.15,24.81c-20.22,18.38,22.98,120.86,26.65,122.69
					c4.6,1.84,11.49-1.38,14.25-5.05c1.84-3.68-9.65-69.85-8.73-87.31l71.69-22.98L274.16,285.84z"/>
				<path class="st16" d="M177.65,433.81c-2.76,0.92-11.03,0-13.79-5.51c-2.76-5.51,32.17-89.15,50.55-108.45
					c18.38-19.3,53.31-34.01,53.31-34.01l9.12-26.62l50.67-4.83c0,0,17.41,41.55,9.14,59.01c0,0-1.84,19.3-33.09,21.14
					c-31.25,1.84-55.14,5.51-63.41,10.11C231.88,349.26,177.65,433.81,177.65,433.81z"/>
			</g>
			<path class="st14" d="M279.4,167.71c-7.02,2.01-12.54,7.37-15.08,14.22c-0.11,0.31-0.23,0.61-0.34,0.9
				c-1.61,4.02-10.46,16.09-4.02,25.74c6.43,9.65,9.65,12.87,9.65,28.15c0,15.28-2.41,16.09,0,20.91
				c4.02,4.83,26.54,13.67,63.54-0.8c5.85-2.29-7.24-21.72-4.02-38.6c3.22-16.89,9.65-36.19,3.22-44.23
				C326.83,167.08,303.63,160.79,279.4,167.71z"/>
			<path class="st14" d="M328.32,171.56c0,0,7.24,0.6,16.89,13.87c9.65,13.27,27.75,33.78,29.56,41.02
				c1.21,7.24-10.25,12.06-19.91,6.64c-9.65-5.43-27.14-25.94-33.78-33.78C314.44,191.47,315.05,168.54,328.32,171.56z"/>
			<path class="st13" d="M364.34,218.79c0,0,10.3,0.72,10.72,9.76c0.42,9.04-6.78,9.98-23.76,8.36c-16.98-1.62-45.42-2.7-50.87-3.05
				c-5.45-0.35-7.64,4.59-14.35,3.09c-6.71-1.5-7.4-3.28-10.41-3.14c-3.01,0.14-9.39,5.87-12.46,4.81
				c-3.07-1.06,6.95-6.36,12.83-9.66c5.88-3.3,18.44-5.91,23.32-4.93c4.88,0.98,37.86-3.98,49.31-4.51
				C360.12,218.99,364.34,218.79,364.34,218.79z"/>
			<path class="st12" d="M274.63,169.75c0,0-7.24,13.87,10.86,19.3c18.1,5.43,40.72-12.37,40.11-19.91
				C317.86,165.53,290.01,161.31,274.63,169.75z"/>
			<path class="st12" d="M271.21,136.57c0,0-4.02,9.65-1.21,13.67c2.81,4.02,13.67,2.81,16.09,5.63c2.41,2.81,3.22,9.25-1.61,12.47
				c-2.41,3.22,18.1,4.02,22.12-0.4c-0.4-2.41-6.84-11.66-6.03-17.29c0.8-5.63,3.22-15.68,4.02-24.13
				c0.8-8.44-8.85-12.47-14.48-13.27c-5.63-0.8-13.67,0.4-15.68,7.24c-2.01,6.84-6.03,13.27-7.24,14.48
				C265.99,136.17,271.21,136.57,271.21,136.57z"/>
			<path class="st11" d="M286.09,116.47c0,0-2.81,3.62,1.21,10.86c4.02,7.24,8.85,14.88,4.42,24.93c0,0,17.29,2.01,29.36-12.47
				c-1.21-4.42-6.84-21.72-18.1-28.95c-11.26-7.24-23.32-2.82-27.75,1.21c-4.42,4.02-13.17,15.13-12.37,25.59
				C262.87,140.85,267.7,110.49,286.09,116.47z"/>
			<path class="st17" d="M286.4,165.53c0,0,0.6,6.64,6.94,9.95c3.32,0.6,10.25-6.03,12.06-11.16"/>
			<circle class="st1" cx="293.33" cy="177.29" r="2.41"/>
		</g>
		<g>
			<g>
				<rect x="133.13" y="217.65" class="st1" width="50.57" height="8.79"/>
				<polygon class="st16" points="185.59,217.65 185.59,216.13 83.09,216.13 83.09,226.44 133.13,226.44 133.13,217.65 				"/>
			</g>
			<g>
				<rect x="138.28" y="212.19" class="st1" width="50.57" height="3.94"/>
				<polygon class="st18" points="190.75,212.19 190.75,210.67 88.24,210.67 88.24,216.13 138.28,216.13 138.28,212.19 				"/>
			</g>
			<g>
				<rect x="88.54" y="226.44" class="st19" width="102.51" height="10.31"/>
				<rect x="138.58" y="227.96" class="st1" width="52.47" height="8.8"/>
			</g>
			<g>
				<rect x="112.28" y="220.15" class="st20" width="12.28" height="2.73"/>
				<rect x="125.54" y="220.15" class="st21" width="1.52" height="2.73"/>
			</g>
		</g>
		<path class="st6" d="M179.16,98.37c0,1.57-1.27,2.85-2.85,2.85c-1.57,0-2.85-1.27-2.85-2.85c0-1.57,1.27-2.85,2.85-2.85
			C177.88,95.53,179.16,96.8,179.16,98.37z"/>
		<path class="st6" d="M272.42,77.46c0,2.67-2.16,4.83-4.83,4.83c-2.66,0-4.83-2.16-4.83-4.83c0-2.66,2.16-4.83,4.83-4.83
			C270.26,72.63,272.42,74.79,272.42,77.46z"/>
		<path class="st6" d="M173.85,152.71h-40.64c-1.17,0-2.11-0.95-2.11-2.11v-23.59c0-1.17,0.95-2.11,2.11-2.11h40.64
			c1.17,0,2.11,0.95,2.11,2.11v23.59C175.96,151.76,175.02,152.71,173.85,152.71z"/>
		<path class="st8" d="M175.03,125.5l-21.05,17.78l-21.44-18.11c-0.27,0.13-0.51,0.31-0.72,0.52l13.64,11.52l-14.36,12.13v0.79
			c0,0.11,0.02,0.21,0.03,0.31l15-12.66l7.85,6.63l7.85-6.63l14.13,11.93v-1.13l-13.46-11.37l13.09-11.06
			C175.44,125.91,175.25,125.69,175.03,125.5z"/>
		<g>
			<path class="st6" d="M316.1,95.96h-27.56c-0.79,0-1.43-0.64-1.43-1.43v-16c0-0.79,0.64-1.43,1.43-1.43h27.56
				c0.79,0,1.43,0.64,1.43,1.43v16C317.53,95.32,316.89,95.96,316.1,95.96z"/>
			<path class="st8" d="M316.9,77.51l-14.28,12.06l-14.54-12.28c-0.18,0.09-0.35,0.21-0.49,0.35l9.25,7.81l-9.74,8.23v0.53
				c0,0.07,0.01,0.14,0.02,0.21l10.17-8.59l5.33,4.5l5.33-4.5l9.58,8.09v-0.77l-9.13-7.71l8.88-7.5
				C317.18,77.78,317.05,77.63,316.9,77.51z"/>
		</g>
		<g>
			<g>
				<g>
					<path class="st8" d="M230.5,53.58H203.7c-1.05,0-1.9-0.85-1.9-1.9v-2.69c0-1.05,0.85-1.9,1.9-1.9h26.81
						c1.05,0,1.9,0.85,1.9,1.9v2.69C232.4,52.72,231.55,53.58,230.5,53.58z"/>
					<g>
						<rect x="205.37" y="48.78" class="st1" width="24.76" height="0.93"/>
						<rect x="205.37" y="51.01" class="st1" width="7.05" height="0.93"/>
					</g>
				</g>
				<g>
					<path class="st10" d="M237.21,42.67h-26.81c-1.05,0-1.9-0.85-1.9-1.9v-2.69c0-1.05,0.85-1.9,1.9-1.9h26.81
						c1.05,0,1.9,0.85,1.9,1.9v2.69C239.11,41.82,238.26,42.67,237.21,42.67z"/>
					<g>
						<rect x="212.08" y="37.88" class="st1" width="12.68" height="0.93"/>
						<rect x="212.08" y="40.11" class="st1" width="7.05" height="0.93"/>
					</g>
				</g>
			</g>
			<g>
				<g>
					<path class="st8" d="M230.5,31.91H203.7c-1.05,0-1.9-0.85-1.9-1.9v-2.69c0-1.05,0.85-1.9,1.9-1.9h26.81
						c1.05,0,1.9,0.85,1.9,1.9v2.69C232.4,31.06,231.55,31.91,230.5,31.91z"/>
					<g>
						<rect x="205.37" y="27.12" class="st1" width="24.76" height="0.93"/>
						<rect x="205.37" y="29.35" class="st1" width="7.05" height="0.93"/>
					</g>
				</g>
				<g>
					<path class="st10" d="M237.21,21.01h-26.81c-1.05,0-1.9-0.85-1.9-1.9v-2.69c0-1.05,0.85-1.9,1.9-1.9h26.81
						c1.05,0,1.9,0.85,1.9,1.9v2.69C239.11,20.16,238.26,21.01,237.21,21.01z"/>
					<g>
						<rect x="212.08" y="16.22" class="st1" width="12.68" height="0.93"/>
						<rect x="212.08" y="18.45" class="st1" width="7.05" height="0.93"/>
					</g>
				</g>
			</g>
		</g>
		<g>
			<path class="st22" d="M317.06,237.15h-63.83v-2.68h61.15C315.86,234.47,317.06,235.67,317.06,237.15L317.06,237.15z"/>
			<g>
				<path class="st22" d="M261.4,236.62h-98.53l-8.32-56.91c-0.25-1.74,1.09-3.3,2.85-3.3h92.7c1.43,0,2.65,1.05,2.85,2.47
					L261.4,236.62z"/>
				<path class="st16" d="M259.52,236.62h-98.53l-8.32-56.91c-0.25-1.74,1.09-3.3,2.85-3.3h92.7c1.43,0,2.65,1.05,2.85,2.47
					L259.52,236.62z"/>
			</g>
		</g>
		<path class="st23" d="M208.98,209.95c0.4,3.83-2.51,6.94-6.49,6.96c-3.99,0.02-7.54-3.07-7.94-6.9c-0.4-3.83,2.51-6.94,6.5-6.96
			C205.02,203.03,208.58,206.12,208.98,209.95z"/>
		<g>
			<g>
				<g>
					<g>
						<polygon class="st6" points="447.82,250.25 486.85,450.81 482.52,450.81 439.15,249.16 						"/>
						<polygon class="st8" points="422.49,250.25 461.52,450.81 457.18,450.81 413.82,249.16 						"/>
					</g>
					<g>
						<polygon class="st6" points="51.11,250.25 12.08,450.81 16.42,450.81 59.78,249.16 						"/>
						<polygon class="st8" points="76.45,250.25 37.42,450.81 41.75,450.81 85.12,249.16 						"/>
					</g>
				</g>
				<path class="st9" d="M465.75,252.42H33.19c-6.29,0-11.38-5.1-11.38-11.38l0,0h455.33l0,0
					C477.13,247.32,472.03,252.42,465.75,252.42z"/>
			</g>
			<rect x="11" y="235.9" class="st15" width="476.93" height="6.43"/>
		</g>
		<rect x="378.18" y="232.68" class="st7" width="78.82" height="4.02"/>
		<path class="st6" d="M456.2,171.96c0,4-3.24,7.24-7.24,7.24c-4,0-7.24-3.24-7.24-7.24c0-4,3.24-7.24,7.24-7.24
			C452.96,164.72,456.2,167.96,456.2,171.96z"/>
		<path class="st1" d="M452.98,171.96c0,2.22-1.8,4.02-4.02,4.02c-2.22,0-4.02-1.8-4.02-4.02c0-2.22,1.8-4.02,4.02-4.02
			C451.18,167.94,452.98,169.74,452.98,171.96z"/>
		
			<ellipse transform="matrix(0.2327 -0.9725 0.9725 0.2327 59.4162 195.709)" class="st6" cx="153.74" cy="60.2" rx="36.44" ry="36.44"/>
		<path class="st24" d="M166.27,92.85c-14.74-14.74-32.75-13.78-42.42-11.81c6.59,9.43,17.52,15.61,29.89,15.61
			c4.75,0,9.29-0.92,13.45-2.57C166.89,93.66,166.59,93.26,166.27,92.85z"/>
		<g>
			<path class="st12" d="M168.92,64.63c0,0,1.87,7.76-0.74,10.45s-10.64,0.48-12.8,2.31c-2.16,1.83-3.54,6.58-0.29,9.59
				c1.43,2.71-14.12,0.85-16.62-2.96c0.59-1.77,6.56-7.97,6.63-12.31c0.07-4.34-0.54-12.21-0.13-18.67
				c0.41-6.46,8.17-8.33,12.51-8.26c4.34,0.07,10.26,1.95,10.95,7.34c0.69,5.39,2.95,10.73,3.71,11.78
				C172.91,64.96,168.92,64.63,168.92,64.63z"/>
		</g>
		<path class="st15" d="M143.49,44.82c0,0-6.07,3.8-4.37,10.25c1.71,6.45,6.26,11.96,6.26,11.96l5.88-2.09c0,0-3.99-5.69-2.47-8.16
			c1.52-2.47,4.18-1.52,5.12,0.57c0.95,2.09,0.76,4.93,0.76,4.93l2.28-0.76c0,0,1.14-7.21-0.76-10.63c-1.9-3.42-2.85-3.61-2.85-3.61
			s1.9,3.04,6.64,1.52s6.26,1.9,9.49,2.47c3.23,0.57,4.56-2.66,4.56-2.66s-1.71,0.57-3.42-0.57c-1.71-1.14-2.85-6.26-7.21-8.73
			C159.06,36.85,146.53,34.95,143.49,44.82z"/>
		<path class="st25" d="M155.39,77.39c2.16-1.83,10.19,0.38,12.8-2.31c0.24-0.25,0.43-0.54,0.59-0.86
			c-0.81,0.59-1.91,1.03-3.46,1.17c-6.55,0.57-13.1-8.54-15.09-5.69c-1.99,2.85,1.71,7.97,0.57,12.81
			c-0.48,2.05-1.83,3.89-3.22,5.33c4.3,0.73,8.28,0.58,7.53-0.86C151.85,83.97,153.23,79.22,155.39,77.39z"/>
		<circle class="st6" cx="231.25" cy="92.57" r="30.41"/>
		<path class="st16" d="M233.31,79.87l-6.84-5.43c0,0-4.62,1.21-6.13,7.54c-1.51,6.33,7.84,7.84,2.71,13.57
			c-5.13,5.73-9.95,6.03-8.75,12.67c0.41,2.27-2.42,3.59-5.64,4.71c5.57,6.17,13.62,10.05,22.58,10.05c1.78,0,3.52-0.16,5.21-0.45
			c4.53-13.79,1.9-31.9,1.37-32.7C237.23,88.92,233.31,79.87,233.31,79.87z"/>
		<g>
			<path class="st12" d="M221.91,91.31c0,0-3.33,5.77-1.88,8.54c1.45,2.77,8.4,2.9,9.7,4.88s1.27,6.11-2.04,7.74
				c-1.79,1.83,11.1,4.02,14,1.56c-0.06-1.56-3.36-7.93-2.39-11.42c0.97-3.49,3.32-9.64,4.52-14.91c1.2-5.27-4.56-8.6-8.05-9.57
				c-3.49-0.97-8.67-0.87-10.5,3.29c-1.83,4.15-4.9,7.89-5.76,8.55C218.64,90.63,221.91,91.31,221.91,91.31z"/>
		</g>
		<path class="st10" d="M231.25,122.98c6.7,0,12.9-2.17,17.92-5.85c-2.01-2.49-4.93-3.33-6.51-4.69c-2.11-1.81-1.21-5.43-2.41-6.33
			c-1.21-0.9-10.25,0.6-10.25,0.6c0.9,4.22-2.41,6.64-8.75,9.35c-2.04,0.88-3.93,1.85-5.16,2.86
			C220.55,121.5,225.73,122.98,231.25,122.98z"/>
		<path class="st16" d="M260.53,100.79c-0.09-0.14-0.17-0.27-0.27-0.41c-4.02-5.43-9.45-4.83-11.66-12.47
			c-2.21-7.64-1.61-8.65-6.43-11.66c-4.83-3.02-10.66-4.83-15.68-1.81c0,0-5.45,2.69-1.22,6.98s7.25,2.07,8.26,6.9
			c1.01,4.83-3.62,7.04,0.2,10.46c3.82,3.42-0.2,5.83,2.01,12.06c1.28,3.6,4.5,7.67,8.63,9.18
			C252.18,116.28,258.15,109.28,260.53,100.79z"/>
		<g>
			<path class="st8" d="M129.15,23.4h-24.39c-2.33,0-4.22,1.89-4.22,4.22v32.37c0,2.33,1.89,4.22,4.22,4.22h13.12
				c0.92,1.36,3.15,4.33,5.64,5.4v-5.4h5.63c2.33,0,4.22-1.89,4.22-4.22V27.62C133.37,25.29,131.48,23.4,129.15,23.4z"/>
			<g>
				<g>
					
						<rect x="111.38" y="30.9" transform="matrix(-1 -1.224647e-16 1.224647e-16 -1 240.0625 63.3064)" class="st1" width="17.3" height="1.5"/>
					
						<rect x="120.05" y="35.66" transform="matrix(-1 -1.224647e-16 1.224647e-16 -1 248.7361 72.8196)" class="st1" width="8.63" height="1.5"/>
					
						<rect x="117.58" y="40.29" transform="matrix(-1 -1.224647e-16 1.224647e-16 -1 246.264 82.0827)" class="st1" width="11.1" height="1.5"/>
				</g>
				<g>
					
						<rect x="105.07" y="45.74" transform="matrix(-1 -1.224647e-16 1.224647e-16 -1 233.7544 92.9726)" class="st1" width="23.61" height="1.5"/>
					
						<rect x="116.91" y="50.49" transform="matrix(-1 -1.224647e-16 1.224647e-16 -1 245.5897 102.486)" class="st1" width="11.78" height="1.5"/>
					
						<rect x="113.53" y="55.12" transform="matrix(-1 -1.224647e-16 1.224647e-16 -1 242.2167 111.7489)" class="st1" width="15.15" height="1.5"/>
				</g>
			</g>
		</g>
		<g>
			<rect x="336.96" y="97.77" class="st8" width="43.43" height="57.91"/>
			<g>
				<rect x="332.54" y="93.75" class="st6" width="43.43" height="57.91"/>
				<g>
					<g>
						<rect x="339.52" y="109.72" class="st1" width="17.3" height="1.5"/>
						<rect x="339.52" y="114.48" class="st1" width="8.63" height="1.5"/>
						<rect x="339.52" y="119.11" class="st1" width="11.1" height="1.5"/>
					</g>
					<g>
						<rect x="339.52" y="124.55" class="st1" width="23.61" height="1.5"/>
						<rect x="339.52" y="129.31" class="st1" width="11.78" height="1.5"/>
						<rect x="339.52" y="133.94" class="st1" width="15.15" height="1.5"/>
					</g>
				</g>
			</g>
		</g>
		<g>
			<g>
				
					<ellipse transform="matrix(0.7071 -0.7071 0.7071 0.7071 51.7615 205.0479)" class="st6" cx="273.4" cy="40.04" rx="18.95" ry="18.95"/>
			</g>
			<path class="st8" d="M263.82,41.97c0.4-0.55,1.57-3.32,1.93-6.13c0.03-0.21,0.1-0.39,0.15-0.58c-0.61-0.57-1.12-1.36-0.94-2.35
				c0.4-2.21,3.42-3.82,7.84-3.42c4.42,0.4,4.22,2.81,4.22,2.81s1.41,0,3.02,2.21c1.59,2.18-0.55,10.03-2.15,10.04
				c-0.01,0.54-0.02,1.04-0.01,1.46c0.02,1.39,1.2,3.13,2.18,4.49c3.47-0.45,6.61-0.1,8.88,0.36c-3.43,4.9-9.11,8.12-15.54,8.12
				c-2.47,0-4.83-0.48-6.99-1.34c0.16-0.21,0.31-0.42,0.48-0.64c2.15-2.15,4.43-3.64,6.72-4.67c0.28-1.31-0.28-2.7-1.06-3.36
				c-0.07-0.06-0.15-0.11-0.24-0.16c-0.19-0.09-0.41-0.15-0.67-0.19c-0.26-0.04-0.55-0.06-0.85-0.07c-0.31-0.01-0.63-0.01-0.97-0.01
				c-0.33,0-0.68,0-1.01-0.01c-0.51-0.01-1-0.04-1.45-0.12c-0.15-0.03-0.29-0.06-0.43-0.1c-0.41-0.11-0.77-0.29-1.02-0.55
				c-0.12-0.13-0.22-0.28-0.31-0.45l0,0l0,0c-0.87-1.66-0.07-4.98-0.07-4.98S263.43,42.52,263.82,41.97z"/>
		</g>
		<rect x="100.31" y="108.22" class="st26" width="53.69" height="6.03"/>
		<rect x="320.48" y="70.22" class="st26" width="18.1" height="4.22"/>
		<g>
			<path class="st26" d="M310.83,47.3c0,1.33-1.08,2.41-2.41,2.41c-1.33,0-2.41-1.08-2.41-2.41s1.08-2.41,2.41-2.41
				C309.74,44.89,310.83,45.97,310.83,47.3z"/>
			<path class="st26" d="M321.68,47.3c0,1.33-1.08,2.41-2.41,2.41c-1.33,0-2.41-1.08-2.41-2.41s1.08-2.41,2.41-2.41
				C320.6,44.89,321.68,45.97,321.68,47.3z"/>
			<path class="st26" d="M332.54,47.3c0,1.33-1.08,2.41-2.41,2.41c-1.33,0-2.41-1.08-2.41-2.41s1.08-2.41,2.41-2.41
				C331.46,44.89,332.54,45.97,332.54,47.3z"/>
		</g>
		<g>
			<path class="st24" d="M94.28,93.95c0,0.89-0.72,1.61-1.61,1.61s-1.61-0.72-1.61-1.61s0.72-1.61,1.61-1.61
				S94.28,93.06,94.28,93.95z"/>
			<path class="st24" d="M104.73,93.95c0,0.89-0.72,1.61-1.61,1.61s-1.61-0.72-1.61-1.61s0.72-1.61,1.61-1.61
				S104.73,93.06,104.73,93.95z"/>
			<path class="st24" d="M115.19,93.95c0,0.89-0.72,1.61-1.61,1.61c-0.89,0-1.61-0.72-1.61-1.61s0.72-1.61,1.61-1.61
				C114.47,92.34,115.19,93.06,115.19,93.95z"/>
		</g>
	</g>
</g>
</svg>
