<?xml version="1.0" encoding="utf-8"?>
<!-- Generator: Adobe Illustrator 24.1.1, SVG Export Plug-In . SVG Version: 6.00 Build 0)  -->
<svg version="1.1" id="Layer_1" xmlns="http://www.w3.org/2000/svg" xmlns:xlink="http://www.w3.org/1999/xlink" x="0px" y="0px"
	 viewBox="0 0 841.89 595.28" style="enable-background:new 0 0 841.89 595.28;" xml:space="preserve">
<style type="text/css">
	.st0{fill:#52A25A;}
	.st1{fill:#6AB972;}
	.st2{fill:#39B9C6;}
	.st3{fill:none;stroke:#1F1C3E;stroke-width:0.9883;stroke-miterlimit:10;}
	.st4{fill:#D5E9F9;}
	.st5{fill:#1F1C3E;}
	.st6{fill:#789DD2;}
	.st7{fill:#F49625;}
	.st8{fill:#FCC11E;}
	.st9{fill:#D54E1B;}
	.st10{fill:#F39C8E;}
	.st11{fill:#F6B4AB;}
	.st12{fill:#ED6F6C;}
	.st13{fill:#1C3F86;}
	.st14{fill:#292457;}
	.st15{fill:none;stroke:#292457;stroke-width:0.4942;stroke-miterlimit:10;}
	.st16{fill:#FFFFFF;}
	.st17{fill:#4763AC;}
	.st18{fill:#EB5B64;}
	.st19{fill:#F18C77;}
	.st20{fill:#47519F;}
	.st21{fill:#C4DFF6;}
	.st22{fill:#05579D;}
	.st23{fill:#5176BA;}
	.st24{fill:#EF7B7A;}
	.st25{fill:none;stroke:#789DD2;stroke-width:0.9883;stroke-miterlimit:10;}
</style>
<g>
	<path class="st0" d="M170.17,261.68c0,0,10.6-10.6,5.3-16.42c-5.3-5.83-6.89-7.42-6.36-16.42c0.53-9.01-11.65-6.89-11.65-14.83
		c0-7.95-3.18-13.24-10.07-14.83c-6.89-1.59-4.77-10.6-9.01-10.6s-9.01,5.83-5.83,11.12c3.18,5.3,6.36,7.95,5.3,14.3
		c-1.06,6.36,6.89,5.83,7.95,11.12c1.06,5.3-5.3,11.12,0.53,16.42c5.83,5.3,11.65,6.89,10.07,11.65
		C154.81,257.97,163.81,263.8,170.17,261.68z"/>
	<path class="st1" d="M169.5,269.42c0,0-13.07-13.07-6.54-20.26c6.54-7.19,8.5-9.15,7.84-20.26c-0.65-11.11,14.38-8.5,14.38-18.3
		c0-9.81,3.92-16.34,12.42-18.3c8.5-1.96,5.88-13.07,11.11-13.07c5.23,0,11.11,7.19,7.19,13.73c-3.92,6.54-7.84,9.81-6.54,17.65
		c1.31,7.84-8.5,7.19-9.81,13.73c-1.31,6.54,6.54,13.73-0.65,20.26c-7.19,6.54-14.38,8.5-12.42,14.38
		C188.45,264.84,177.34,272.03,169.5,269.42z"/>
	<path class="st2" d="M178.97,291.5h-14.7c-3.6,0-6.66-2.66-7.15-6.23l-3.92-28.56h36.84l-3.92,28.56
		C185.63,288.84,182.57,291.5,178.97,291.5z"/>
	<path class="st3" d="M654.17,206.05c0,0-12.65,11.64-2.02,31.88c10.63,20.24,3.04,42.51-6.07,48.58"/>
	<path class="st4" d="M627.09,271.72c0,0,10.63,4.93,10.63,15.56h-24.67L627.09,271.72z"/>
	<polygon class="st4" points="611.41,158.23 610.39,168.35 657.46,215.42 661,204.28 	"/>
	<g>
		
			<rect x="634.18" y="142.55" transform="matrix(0.7071 -0.7071 0.7071 0.7071 57.9751 504.5021)" class="st5" width="7.59" height="79.44"/>
		
			<rect x="584.04" y="244.01" transform="matrix(0.5681 -0.8229 0.8229 0.5681 68.1038 631.4573)" class="st5" width="103.32" height="13.66"/>
	</g>
	<g>
		<g>
			<polygon class="st6" points="468.7,416.83 430.24,556.5 426.19,556.5 457.56,413.79 			"/>
			<polygon class="st6" points="436.31,416.83 397.85,556.5 393.8,556.5 425.18,413.79 			"/>
		</g>
		<g>
			<polygon class="st6" points="490.96,416.83 529.42,556.5 533.47,556.5 502.1,413.79 			"/>
			<polygon class="st6" points="523.35,416.83 561.81,556.5 565.86,556.5 534.49,413.79 			"/>
		</g>
	</g>
	<g>
		<path class="st7" d="M538.53,323.71c0,0-1.01-79.96-38.46-80.97c-37.45-1.01-60.73,29.35-64.78,65.79
			c-4.05,36.44-28.34,86.03-33.4,101.21c-5.06,15.18,65.79,20.24,85.02,14.17c19.23-6.07,59.72-7.08,56.68-49.59
			C540.56,331.81,538.53,323.71,538.53,323.71z"/>
		<path class="st8" d="M530.44,253.88c0,0,43.03,127.84,19.23,153.84c-27.33,29.86-132.59,18.72-136.64,12.65
			c-4.05-6.07,106.27,2.53,118.42-25.81c12.15-28.34-16.19-137.65-11.13-140.69C525.38,250.84,527.4,246.79,530.44,253.88z"/>
	</g>
	<g>
		<path class="st9" d="M452,130.9c0,0-28.34,11.77-21.25,47.57c3.04,4.55,11.13-2.02,26.32-1.01c15.18,1.01,36.94-5.06,35.93-15.69
			C491.98,151.15,479.32,123.82,452,130.9z"/>
		<g>
			<path class="st10" d="M397.34,187.08c0,0,1.01-11.13-7.59-15.69c-8.6-4.55-14.17-12.65-14.17-12.65s-3.54,2.02-1.52,5.57
				c2.02,3.54,4.05,4.55,4.05,7.08c0,2.53-1.52,4.55-1.52,4.55s-6.07-4.05-10.12-7.08c-4.05-3.04-11.13-13.66-12.65-12.65
				c-1.52,1.01-2.02,2.53,0.51,5.06c2.53,2.53,8.6,10.12,12.65,13.16c4.05,3.04-17.71-16.7-19.23-15.69
				c-1.52,1.01,1.52,5.57,5.57,9.62c4.05,4.05,14.17,9.11,20.24,12.15C379.63,183.53,397.34,187.08,397.34,187.08z"/>
			<path class="st11" d="M398.61,192.39c0,0,20.51,75.59,19.37,87.51c-1.15,11.93-21.64,11.93-24.68,2.82
				c-3.04-9.11-5.31-78.95-8.35-89.57c-3.04-10.63-28.09-16.7-28.09-16.7s-15.18-12.9-13.66-13.66c1.52-0.76,7.59,0,12.9,4.55
				c5.31,4.55,7.59,6.07,18.98,6.83c11.39,0.76,19.74,0,22.77,6.83C400.88,187.84,398.61,192.39,398.61,192.39z"/>
		</g>
		<path class="st12" d="M441.88,210.61c0,0-6.07-0.76-13.66,12.15c-7.59,12.9-37.2,55.41-24.29,63c12.9,7.59,22.77-1.52,26.57-9.11
			c3.8-7.59,34.92-44.03,32.64-53.9C460.85,212.89,450.98,207.57,441.88,210.61z"/>
		<g>
			<path class="st12" d="M308.59,532l-3.47,5.2c0,0-17.35,23.13-17.35,27.18s25.44-13.3,27.76-16.19c2.31-2.89,2.89-6.36,2.89-6.36
				l1.73-6.94L308.59,532z"/>
			<path class="st12" d="M369.31,535.47l2.31,6.36c0,0,1.73,20.82,6.94,26.02c5.2,4.05,8.1-24.29,5.78-30.07
				c-2.31-4.63-3.47-6.36-3.47-6.36L369.31,535.47z"/>
			<path class="st13" d="M445.07,352.15c0,0-62.45,0-112.19,31.23c-25.44,23.13,28.91,152.09,33.54,154.4
				c5.78,2.31,14.46-1.73,17.93-6.36c2.31-4.63-12.14-87.9-10.99-109.87l90.21-28.91L445.07,352.15z"/>
			<path class="st14" d="M323.63,538.36c-3.47,1.16-13.88,0-17.35-6.94c-3.47-6.94,40.48-112.19,63.61-136.48
				c23.13-24.29,67.08-42.79,67.08-42.79l11.48-33.5l63.76-6.07c0,0,21.91,52.29,11.5,74.27c0,0-2.31,24.29-41.64,26.6
				c-39.32,2.31-69.39,6.94-79.8,12.72C391.87,431.95,323.63,538.36,323.63,538.36z"/>
		</g>
		<path class="st12" d="M451.66,203.48c-8.84,2.52-15.78,9.27-18.97,17.89c-0.14,0.39-0.29,0.77-0.43,1.13
			c-2.02,5.06-13.16,20.24-5.06,32.39c8.1,12.15,12.15,16.19,12.15,35.42c0,19.23-3.04,20.24,0,26.32
			c5.06,6.07,33.4,17.21,79.96-1.01c7.36-2.88-9.11-27.33-5.06-48.58c4.05-21.25,12.15-45.55,4.05-55.67
			C511.36,202.7,482.16,194.77,451.66,203.48z"/>
		<path class="st12" d="M513.23,208.33c0,0,9.11,0.76,21.25,17.46c12.15,16.7,34.92,42.51,37.2,51.62
			c1.52,9.11-12.9,15.18-25.05,8.35c-12.15-6.83-34.16-32.64-42.51-42.51C495.77,233.38,496.53,204.54,513.23,208.33z"/>
		<path class="st11" d="M558.56,267.77c0,0,12.96,0.91,13.49,12.29c0.53,11.37-8.53,12.56-29.9,10.52
			c-21.37-2.04-57.15-3.4-64.01-3.84c-6.86-0.44-9.61,5.77-18.06,3.89c-8.45-1.88-9.31-4.12-13.1-3.95
			c-3.79,0.18-11.81,7.39-15.67,6.05c-3.86-1.34,8.74-8.01,16.15-12.16c7.4-4.15,23.21-7.44,29.35-6.2c6.14,1.23,47.64-5,62.05-5.68
			C553.25,268.02,558.56,267.77,558.56,267.77z"/>
		<path class="st10" d="M445.67,206.05c0,0-9.11,17.46,13.66,24.29c22.77,6.83,51.24-15.56,50.48-25.05
			C500.07,200.74,465.03,195.43,445.67,206.05z"/>
		<path class="st10" d="M441.37,164.3c0,0-5.06,12.15-1.52,17.21c3.54,5.06,17.21,3.54,20.24,7.08c3.04,3.54,4.05,11.64-2.02,15.69
			c-3.04,4.05,22.77,5.06,27.83-0.51c-0.51-3.04-8.6-14.68-7.59-21.76c1.01-7.09,4.05-19.74,5.06-30.36
			c1.01-10.63-11.13-15.69-18.22-16.7c-7.08-1.01-17.21,0.51-19.74,9.11c-2.53,8.6-7.59,16.7-9.11,18.22
			C434.79,163.8,441.37,164.3,441.37,164.3z"/>
		<path class="st9" d="M460.09,139c0,0-3.54,4.55,1.52,13.66c5.06,9.11,11.13,18.72,5.57,31.38c0,0,21.76,2.53,36.94-15.69
			c-1.52-5.57-8.6-27.33-22.77-36.44c-14.17-9.11-29.35-3.54-34.92,1.52c-5.57,5.06-16.57,19.04-15.56,32.2
			C430.87,169.68,436.94,131.47,460.09,139z"/>
		<path class="st15" d="M460.47,200.74c0,0,0.76,8.35,8.73,12.53c4.18,0.76,12.9-7.59,15.18-14.04"/>
		<circle class="st16" cx="469.2" cy="215.54" r="3.04"/>
	</g>
	<g>
		<g>
			<rect x="267.59" y="266.33" class="st16" width="63.64" height="11.07"/>
			<polygon class="st14" points="333.62,266.33 333.62,264.42 204.62,264.42 204.62,277.4 267.59,277.4 267.59,266.33 			"/>
		</g>
		<g>
			<rect x="274.08" y="259.46" class="st16" width="63.64" height="4.96"/>
			<polygon class="st17" points="340.11,259.46 340.11,257.55 211.11,257.55 211.11,264.42 274.08,264.42 274.08,259.46 			"/>
		</g>
		<g>
			<rect x="211.49" y="277.4" class="st18" width="129" height="12.98"/>
			<rect x="274.46" y="279.31" class="st16" width="66.03" height="11.07"/>
		</g>
		<g>
			<rect x="241.36" y="269.48" class="st19" width="15.46" height="3.43"/>
			<rect x="258.05" y="269.48" class="st20" width="1.91" height="3.43"/>
		</g>
	</g>
	<path class="st4" d="M325.52,116.23c0,1.98-1.6,3.58-3.58,3.58c-1.98,0-3.58-1.6-3.58-3.58c0-1.98,1.6-3.58,3.58-3.58
		C323.92,112.65,325.52,114.25,325.52,116.23z"/>
	<path class="st4" d="M442.89,89.91c0,3.35-2.72,6.07-6.07,6.07c-3.35,0-6.07-2.72-6.07-6.07c0-3.35,2.72-6.07,6.07-6.07
		C440.17,83.84,442.89,86.56,442.89,89.91z"/>
	<path class="st4" d="M319.39,184.61h-52.23c-1.17,0-2.11-0.95-2.11-2.11v-30.78c0-1.17,0.95-2.11,2.11-2.11h52.23
		c1.17,0,2.11,0.95,2.11,2.11v30.78C321.5,183.67,320.56,184.61,319.39,184.61z"/>
	<path class="st6" d="M320.33,150.37l-26.49,22.38l-26.99-22.79c-0.34,0.17-0.64,0.39-0.9,0.66l17.16,14.5l-18.07,15.26v0.99
		c0,0.14,0.02,0.26,0.04,0.4l18.87-15.94l9.88,8.35l9.88-8.35l17.78,15.02v-1.42l-16.94-14.31l16.47-13.91
		C320.85,150.88,320.61,150.61,320.33,150.37z"/>
	<g>
		<path class="st4" d="M498.23,113.19H462.8c-0.79,0-1.43-0.64-1.43-1.43V90.88c0-0.79,0.64-1.43,1.43-1.43h35.43
			c0.79,0,1.43,0.64,1.43,1.43v20.87C499.66,112.55,499.02,113.19,498.23,113.19z"/>
		<path class="st6" d="M498.87,89.97l-17.97,15.18l-18.3-15.46c-0.23,0.11-0.44,0.26-0.61,0.45l11.64,9.83l-12.25,10.35v0.67
			c0,0.09,0.02,0.18,0.03,0.27l12.8-10.81l6.7,5.66l6.7-5.66l12.06,10.19v-0.96l-11.49-9.7l11.17-9.44
			C499.22,90.32,499.05,90.13,498.87,89.97z"/>
	</g>
	<g>
		<g>
			<g>
				<path class="st6" d="M390.63,59.85h-34.72c-1.05,0-1.9-0.85-1.9-1.9v-4.37c0-1.05,0.85-1.9,1.9-1.9h34.72
					c1.05,0,1.9,0.85,1.9,1.9v4.37C392.53,59,391.68,59.85,390.63,59.85z"/>
				<g>
					<rect x="358.51" y="53.82" class="st16" width="31.16" height="1.17"/>
					<rect x="358.51" y="56.63" class="st16" width="8.87" height="1.17"/>
				</g>
			</g>
			<g>
				<path class="st8" d="M399.07,46.14h-34.72c-1.05,0-1.9-0.85-1.9-1.9v-4.37c0-1.05,0.85-1.9,1.9-1.9h34.71
					c1.05,0,1.9,0.85,1.9,1.9v4.37C400.97,45.29,400.12,46.14,399.07,46.14z"/>
				<g>
					<rect x="366.95" y="40.11" class="st16" width="15.95" height="1.17"/>
					<rect x="366.95" y="42.91" class="st16" width="8.87" height="1.17"/>
				</g>
			</g>
		</g>
		<g>
			<g>
				<path class="st6" d="M390.63,32.6h-34.72c-1.05,0-1.9-0.85-1.9-1.9v-4.37c0-1.05,0.85-1.9,1.9-1.9h34.72
					c1.05,0,1.9,0.85,1.9,1.9v4.37C392.53,31.75,391.68,32.6,390.63,32.6z"/>
				<g>
					<rect x="358.51" y="26.57" class="st16" width="31.16" height="1.17"/>
					<rect x="358.51" y="29.37" class="st16" width="8.87" height="1.17"/>
				</g>
			</g>
			<g>
				<path class="st8" d="M399.07,18.88h-34.71c-1.05,0-1.9-0.85-1.9-1.9v-4.37c0-1.05,0.85-1.9,1.9-1.9h34.72
					c1.05,0,1.9,0.85,1.9,1.9v4.37C400.97,18.03,400.12,18.88,399.07,18.88z"/>
				<g>
					<rect x="366.95" y="12.85" class="st16" width="15.95" height="1.17"/>
					<rect x="366.95" y="15.65" class="st16" width="8.87" height="1.17"/>
				</g>
			</g>
		</g>
	</g>
	<g>
		<path class="st21" d="M499.06,290.87h-80.33v-3.38h76.95C497.55,287.5,499.06,289.01,499.06,290.87L499.06,290.87z"/>
		<g>
			<path class="st21" d="M429.02,290.21H305.03l-10.47-71.62c-0.32-2.19,1.38-4.15,3.59-4.15H414.8c1.8,0,3.33,1.32,3.59,3.1
				L429.02,290.21z"/>
			<path class="st14" d="M426.65,290.21H302.66l-10.47-71.62c-0.32-2.19,1.38-4.15,3.59-4.15h116.65c1.8,0,3.33,1.32,3.59,3.1
				L426.65,290.21z"/>
		</g>
	</g>
	<path class="st22" d="M363.05,256.64c0.5,4.82-3.16,8.74-8.17,8.76c-5.02,0.02-9.49-3.87-10-8.68c-0.5-4.82,3.16-8.74,8.17-8.76
		C358.07,247.94,362.54,251.82,363.05,256.64z"/>
	<g>
		<g>
			<g>
				<g>
					<polygon class="st4" points="663.62,307.35 712.74,559.75 707.28,559.75 652.71,305.99 					"/>
					<polygon class="st6" points="631.74,307.35 680.85,559.75 675.4,559.75 620.82,305.99 					"/>
				</g>
				<g>
					<polygon class="st4" points="164.38,307.35 115.27,559.75 120.73,559.75 175.3,305.99 					"/>
					<polygon class="st6" points="196.26,307.35 147.15,559.75 152.61,559.75 207.18,305.99 					"/>
				</g>
			</g>
			<path class="st7" d="M686.18,310.08H141.83c-7.91,0-14.33-6.41-14.33-14.32l0,0h573l0,0
				C700.5,303.67,694.09,310.08,686.18,310.08z"/>
		</g>
		<rect x="113.91" y="289.3" class="st13" width="600.19" height="8.1"/>
	</g>
	<rect x="575.98" y="285.25" class="st5" width="99.19" height="5.06"/>
	<path class="st4" d="M674.16,208.84c0,5.03-4.08,9.11-9.11,9.11c-5.03,0-9.11-4.08-9.11-9.11c0-5.03,4.08-9.11,9.11-9.11
		C670.08,199.73,674.16,203.81,674.16,208.84z"/>
	<path class="st16" d="M670.11,208.84c0,2.79-2.27,5.06-5.06,5.06c-2.79,0-5.06-2.27-5.06-5.06c0-2.79,2.27-5.06,5.06-5.06
		C667.84,203.78,670.11,206.04,670.11,208.84z"/>
	
		<ellipse transform="matrix(0.2327 -0.9725 0.9725 0.2327 158.9058 337.7978)" class="st4" cx="293.54" cy="68.19" rx="45.86" ry="45.86"/>
	<path class="st23" d="M309.3,109.27c-18.55-18.55-41.22-17.35-53.38-14.87c8.29,11.87,22.04,19.64,37.62,19.64
		c5.98,0,11.69-1.16,16.93-3.24C310.09,110.3,309.71,109.79,309.3,109.27z"/>
	<g>
		<path class="st10" d="M312.64,73.77c0,0,2.35,9.76-0.93,13.15c-3.28,3.39-13.39,0.6-16.11,2.9c-2.71,2.3-4.45,8.29-0.36,12.07
			c1.8,3.42-17.77,1.07-20.92-3.73c0.75-2.23,8.25-10.03,8.34-15.49c0.09-5.46-0.68-15.36-0.16-23.49
			c0.52-8.13,10.28-10.48,15.74-10.39c5.46,0.09,12.91,2.45,13.78,9.24c0.87,6.79,3.71,13.5,4.67,14.83
			C317.66,74.18,312.64,73.77,312.64,73.77z"/>
	</g>
	<path class="st13" d="M280.64,48.84c0,0-7.64,4.78-5.49,12.9c2.15,8.12,7.88,15.05,7.88,15.05l7.4-2.63c0,0-5.02-7.17-3.11-10.27
		c1.91-3.11,5.25-1.91,6.45,0.72c1.19,2.63,0.96,6.21,0.96,6.21l2.87-0.96c0,0,1.43-9.08-0.96-13.38c-2.39-4.3-3.58-4.54-3.58-4.54
		s2.39,3.82,8.36,1.91c5.97-1.91,7.88,2.39,11.94,3.11c4.06,0.72,5.73-3.34,5.73-3.34s-2.15,0.72-4.3-0.72s-3.58-7.88-9.08-10.99
		C300.22,38.81,284.46,36.42,280.64,48.84z"/>
	<path class="st24" d="M295.61,89.82c2.71-2.3,12.83,0.48,16.11-2.9c0.3-0.31,0.54-0.68,0.75-1.09c-1.01,0.74-2.41,1.3-4.36,1.47
		c-8.24,0.72-16.48-10.75-18.99-7.17c-2.51,3.58,2.15,10.03,0.72,16.12c-0.61,2.58-2.3,4.89-4.06,6.71
		c5.41,0.92,10.42,0.73,9.47-1.08C291.16,98.11,292.9,92.13,295.61,89.82z"/>
	<circle class="st4" cx="391.08" cy="108.93" r="38.27"/>
	<path class="st14" d="M393.67,92.95l-8.6-6.83c0,0-5.82,1.52-7.72,9.49c-1.9,7.97,9.87,9.87,3.42,17.08
		c-6.45,7.21-12.53,7.59-11.01,15.94c0.52,2.86-3.05,4.51-7.1,5.93c7,7.76,17.14,12.64,28.42,12.64c2.24,0,4.43-0.2,6.56-0.57
		c5.71-17.35,2.39-40.15,1.72-41.15C398.61,104.33,393.67,92.95,393.67,92.95z"/>
	<g>
		<path class="st10" d="M379.32,107.35c0,0-4.19,7.26-2.37,10.74c1.82,3.49,10.58,3.65,12.2,6.14c1.63,2.49,1.6,7.68-2.57,9.74
			c-2.25,2.31,13.97,5.06,17.62,1.96c-0.07-1.96-4.23-9.97-3.01-14.37c1.22-4.39,4.18-12.13,5.69-18.76
			c1.51-6.63-5.74-10.82-10.14-12.04c-4.39-1.22-10.91-1.09-13.21,4.13c-2.3,5.23-6.16,9.92-7.25,10.76
			C375.21,106.49,379.32,107.35,379.32,107.35z"/>
	</g>
	<path class="st8" d="M391.08,147.2c8.44,0,16.23-2.74,22.56-7.36c-2.53-3.13-6.21-4.2-8.2-5.9c-2.66-2.28-1.52-6.83-3.04-7.97
		c-1.52-1.14-12.9,0.76-12.9,0.76c1.14,5.31-3.04,8.35-11.01,11.77c-2.57,1.1-4.94,2.32-6.5,3.6
		C377.61,145.34,384.13,147.2,391.08,147.2z"/>
	<path class="st14" d="M427.93,119.27c-0.12-0.17-0.22-0.34-0.35-0.51c-5.06-6.83-11.89-6.07-14.68-15.69
		c-2.78-9.62-2.02-10.88-8.1-14.68c-6.07-3.8-13.41-6.07-19.74-2.28c0,0-6.86,3.39-1.53,8.78s9.12,2.61,10.39,8.68
		c1.27,6.07-4.55,8.86,0.25,13.16c4.81,4.3-0.25,7.34,2.53,15.18c1.61,4.53,5.67,9.65,10.86,11.56
		C417.42,138.76,424.93,129.96,427.93,119.27z"/>
	<g>
		<path class="st6" d="M262.59,21.88h-30.7c-2.93,0-5.31,2.38-5.31,5.31v40.73c0,2.93,2.38,5.31,5.31,5.31h16.51
			c1.16,1.71,3.96,5.44,7.1,6.79v-6.79h7.08c2.93,0,5.31-2.38,5.31-5.31V27.19C267.91,24.26,265.53,21.88,262.59,21.88z"/>
		<g>
			<g>
				
					<rect x="240.23" y="31.32" transform="matrix(-1 -1.224647e-16 1.224647e-16 -1 502.2294 64.5349)" class="st16" width="21.78" height="1.89"/>
				
					<rect x="251.14" y="37.31" transform="matrix(-1 -1.224647e-16 1.224647e-16 -1 513.1446 76.5068)" class="st16" width="10.86" height="1.89"/>
				
					<rect x="248.03" y="43.14" transform="matrix(-1 -1.224647e-16 1.224647e-16 -1 510.0337 88.1637)" class="st16" width="13.97" height="1.89"/>
			</g>
			<g>
				
					<rect x="232.29" y="49.99" transform="matrix(-1 -1.224647e-16 1.224647e-16 -1 494.2911 101.868)" class="st16" width="29.71" height="1.89"/>
				
					<rect x="247.18" y="55.97" transform="matrix(-1 -1.224647e-16 1.224647e-16 -1 509.1851 113.84)" class="st16" width="14.82" height="1.89"/>
				
					<rect x="242.94" y="61.8" transform="matrix(-1 -1.224647e-16 1.224647e-16 -1 504.9404 125.4968)" class="st16" width="19.07" height="1.89"/>
			</g>
		</g>
	</g>
	<g>
		<rect x="524.11" y="115.47" class="st6" width="54.65" height="72.87"/>
		<g>
			<rect x="518.54" y="110.41" class="st4" width="54.65" height="72.87"/>
			<g>
				<g>
					<rect x="527.32" y="130.51" class="st16" width="21.78" height="1.89"/>
					<rect x="527.32" y="136.5" class="st16" width="10.86" height="1.89"/>
					<rect x="527.32" y="142.32" class="st16" width="13.97" height="1.89"/>
				</g>
				<g>
					<rect x="527.32" y="149.18" class="st16" width="29.71" height="1.89"/>
					<rect x="527.32" y="155.16" class="st16" width="14.82" height="1.89"/>
					<rect x="527.32" y="160.99" class="st16" width="19.07" height="1.89"/>
				</g>
			</g>
		</g>
	</g>
	<g>
		<g>
			
				<ellipse transform="matrix(0.7071 -0.7071 0.7071 0.7071 99.7964 326.579)" class="st4" cx="444.11" cy="42.82" rx="23.85" ry="23.85"/>
		</g>
		<path class="st6" d="M432.07,45.25c0.5-0.69,1.98-4.18,2.43-7.71c0.03-0.26,0.12-0.49,0.19-0.73c-0.77-0.72-1.41-1.71-1.18-2.96
			c0.51-2.78,4.3-4.81,9.87-4.3c5.57,0.51,5.31,3.54,5.31,3.54s1.77,0,3.8,2.78c2,2.75-0.69,12.63-2.7,12.64
			c-0.02,0.67-0.02,1.31-0.02,1.84c0.03,1.74,1.51,3.94,2.74,5.65c4.37-0.56,8.32-0.13,11.17,0.45
			c-4.31,6.17-11.46,10.21-19.56,10.21c-3.11,0-6.08-0.6-8.8-1.68c0.2-0.26,0.39-0.53,0.6-0.8c2.71-2.71,5.58-4.58,8.45-5.88
			c0.35-1.65-0.36-3.4-1.34-4.23c-0.09-0.07-0.19-0.14-0.31-0.2c-0.23-0.11-0.52-0.19-0.84-0.24c-0.32-0.05-0.69-0.08-1.07-0.09
			c-0.39-0.01-0.8-0.02-1.22-0.02c-0.42,0-0.85,0-1.27-0.01c-0.64-0.01-1.26-0.05-1.83-0.15c-0.19-0.03-0.37-0.07-0.54-0.12
			c-0.52-0.14-0.97-0.36-1.28-0.69c-0.16-0.16-0.28-0.36-0.39-0.56l0,0l0,0c-1.1-2.09-0.09-6.27-0.09-6.27
			S431.57,45.94,432.07,45.25z"/>
	</g>
	<rect x="226.29" y="128.63" class="st25" width="67.56" height="7.59"/>
	<rect x="503.36" y="80.8" class="st25" width="22.77" height="5.31"/>
	<g>
		<path class="st25" d="M491.22,51.96c0,1.68-1.36,3.04-3.04,3.04c-1.68,0-3.04-1.36-3.04-3.04c0-1.68,1.36-3.04,3.04-3.04
			C489.86,48.92,491.22,50.28,491.22,51.96z"/>
		<path class="st25" d="M504.88,51.96c0,1.68-1.36,3.04-3.04,3.04c-1.68,0-3.04-1.36-3.04-3.04c0-1.68,1.36-3.04,3.04-3.04
			C503.52,48.92,504.88,50.28,504.88,51.96z"/>
		<path class="st25" d="M518.54,51.96c0,1.68-1.36,3.04-3.04,3.04c-1.68,0-3.04-1.36-3.04-3.04c0-1.68,1.36-3.04,3.04-3.04
			C517.18,48.92,518.54,50.28,518.54,51.96z"/>
	</g>
	<g>
		<path class="st23" d="M218.7,110.66c0,1.12-0.91,2.02-2.02,2.02s-2.02-0.91-2.02-2.02c0-1.12,0.91-2.02,2.02-2.02
			S218.7,109.54,218.7,110.66z"/>
		<path class="st23" d="M231.86,110.66c0,1.12-0.91,2.02-2.02,2.02s-2.02-0.91-2.02-2.02c0-1.12,0.91-2.02,2.02-2.02
			S231.86,109.54,231.86,110.66z"/>
		<path class="st23" d="M245.02,110.66c0,1.12-0.91,2.02-2.02,2.02c-1.12,0-2.02-0.91-2.02-2.02c0-1.12,0.91-2.02,2.02-2.02
			C244.11,108.64,245.02,109.54,245.02,110.66z"/>
	</g>
</g>
</svg>
