<?xml version="1.0" encoding="UTF-8"?>
<!DOCTYPE svg PUBLIC "-//W3C//DTD SVG 1.1//EN" "http://www.w3.org/Graphics/SVG/1.1/DTD/svg11.dtd">
<!-- Creator: CorelDRAW 2019 (64-Bit) -->
<svg xmlns="http://www.w3.org/2000/svg" xml:space="preserve" width="36.8439mm" height="7.9068mm" version="1.1" style="shape-rendering:geometricPrecision; text-rendering:geometricPrecision; image-rendering:optimizeQuality; fill-rule:evenodd; clip-rule:evenodd"
viewBox="0 0 3496.93 750.45"
 xmlns:xlink="http://www.w3.org/1999/xlink">
 <defs>
  <style type="text/css">
   <![CDATA[
    .fil0 {fill:#FEFEFE}
    .fil1 {fill:#FEFEFE;fill-rule:nonzero}
   ]]>
  </style>
 </defs>
 <g id="Layer_x0020_1">
  <metadata id="CorelCorpID_0Corel-Layer"/>
  <polygon class="fil0" points="72.4,202.98 192.16,462.46 319.36,0.53 505.81,9.08 280.55,750.45 123.73,750.45 -0,485.28 "/>
  <polygon class="fil0" points="471.6,295.12 636.97,295.12 719.03,0 910.71,0 705.41,750.45 517.85,750.45 585.65,480.63 428.82,480.63 "/>
  <polygon class="fil1" points="1187.71,619.04 1036.17,195.49 1128.85,195.49 1236.41,509 1339.64,195.49 1430.73,195.49 1280.09,619.04 "/>
  <path id="1" class="fil1" d="M1501.03 406.67l-73.36 -13.01c8.29,-29.97 22.58,-52.15 42.8,-66.55 20.21,-14.39 50.27,-21.59 90.11,-21.59 36.18,0 63.19,4.24 80.94,12.82 17.65,8.57 30.17,19.42 37.37,32.63 7.19,13.21 10.85,37.37 10.85,72.66l-1.19 94.65c0,26.92 1.28,46.83 3.84,59.64 2.56,12.82 7.39,26.53 14.49,41.12l-80.45 0c-2.07,-5.32 -4.74,-13.21 -7.79,-23.66 -1.28,-4.83 -2.27,-7.98 -2.86,-9.46 -13.8,13.6 -28.59,23.76 -44.36,30.56 -15.78,6.81 -32.54,10.25 -50.39,10.25 -31.44,0 -56.29,-8.57 -74.43,-25.73 -18.15,-17.06 -27.21,-38.74 -27.21,-64.97 0,-17.26 4.14,-32.74 12.42,-46.35 8.28,-13.51 19.82,-23.96 34.79,-31.15 14.89,-7.19 36.38,-13.51 64.48,-18.93 37.86,-7.09 64.18,-13.8 78.78,-19.91l0 -8.18c0,-15.77 -3.84,-27.01 -11.54,-33.82 -7.78,-6.7 -22.38,-10.06 -43.77,-10.06 -14.49,0 -25.73,2.87 -33.82,8.68 -8.18,5.71 -14.69,15.87 -19.71,30.36zm108.85 65.66c-10.35,3.45 -26.82,7.59 -49.4,12.42 -22.48,4.83 -37.26,9.57 -44.16,14.09 -10.55,7.59 -15.88,17.07 -15.88,28.6 0,11.44 4.24,21.19 12.72,29.48 8.49,8.28 19.23,12.42 32.35,12.42 14.59,0 28.59,-4.83 41.89,-14.4 9.77,-7.39 16.27,-16.27 19.32,-26.92 2.07,-6.9 3.16,-20.11 3.16,-39.53l0 -16.17z"/>
  <path id="2" class="fil1" d="M2048.9 619.04l-81.04 0 0 -156.46c0,-33.12 -1.77,-54.53 -5.23,-64.19 -3.55,-9.76 -9.17,-17.25 -17.06,-22.67 -7.89,-5.42 -17.35,-8.09 -28.4,-8.09 -14.19,0 -26.91,3.85 -38.15,11.54 -11.33,7.69 -19.02,17.94 -23.17,30.56 -4.23,12.72 -6.31,36.18 -6.31,70.49l0 138.82 -81.04 0 0 -307.01 75.12 0 0 45.05c26.92,-34.41 60.73,-51.57 101.65,-51.57 17.94,0 34.41,3.26 49.3,9.66 14.99,6.51 26.22,14.69 33.82,24.65 7.69,10.06 13.01,21.39 15.97,34.11 3.06,12.72 4.53,30.87 4.53,54.53l0 190.57z"/>
  <polygon id="3" class="fil1" points="2131.63,619.04 2131.63,195.49 2217.4,195.49 2217.4,362.31 2384.22,362.31 2384.22,195.49 2469.99,195.49 2469.99,619.04 2384.22,619.04 2384.22,433.88 2217.4,433.88 2217.4,619.04 "/>
  <path id="4" class="fil1" d="M2618.58 406.67l-73.36 -13.01c8.29,-29.97 22.58,-52.15 42.8,-66.55 20.21,-14.39 50.27,-21.59 90.11,-21.59 36.18,0 63.19,4.24 80.94,12.82 17.65,8.57 30.17,19.42 37.37,32.63 7.19,13.21 10.85,37.37 10.85,72.66l-1.19 94.65c0,26.92 1.28,46.83 3.84,59.64 2.56,12.82 7.39,26.53 14.49,41.12l-80.45 0c-2.07,-5.32 -4.74,-13.21 -7.79,-23.66 -1.28,-4.83 -2.27,-7.98 -2.86,-9.46 -13.8,13.6 -28.59,23.76 -44.36,30.56 -15.78,6.81 -32.54,10.25 -50.39,10.25 -31.44,0 -56.29,-8.57 -74.43,-25.73 -18.15,-17.06 -27.21,-38.74 -27.21,-64.97 0,-17.26 4.14,-32.74 12.42,-46.35 8.28,-13.51 19.82,-23.96 34.79,-31.15 14.89,-7.19 36.38,-13.51 64.48,-18.93 37.86,-7.09 64.18,-13.8 78.78,-19.91l0 -8.18c0,-15.77 -3.84,-27.01 -11.54,-33.82 -7.78,-6.7 -22.38,-10.06 -43.77,-10.06 -14.49,0 -25.73,2.87 -33.82,8.68 -8.18,5.71 -14.69,15.87 -19.71,30.36zm108.85 65.66c-10.35,3.45 -26.82,7.59 -49.4,12.42 -22.48,4.83 -37.26,9.57 -44.16,14.09 -10.55,7.59 -15.88,17.07 -15.88,28.6 0,11.44 4.24,21.19 12.72,29.48 8.49,8.28 19.23,12.42 32.35,12.42 14.59,0 28.59,-4.83 41.89,-14.4 9.77,-7.39 16.27,-16.27 19.32,-26.92 2.07,-6.9 3.16,-20.11 3.16,-39.53l0 -16.17z"/>
  <path id="5" class="fil1" d="M3154.62 403.12l-79.86 14.2c-2.67,-15.88 -8.78,-27.8 -18.34,-35.89 -9.57,-7.99 -21.89,-12.03 -37.07,-12.03 -20.22,0 -36.38,7 -48.41,21 -12.03,14 -18.04,37.37 -18.04,70.2 0,36.47 6.11,62.21 18.34,77.3 12.22,15.08 28.59,22.58 49.1,22.58 15.38,0 28,-4.44 37.76,-13.21 9.86,-8.78 16.76,-23.86 20.8,-45.36l79.86 13.61c-8.28,36.67 -24.16,64.38 -47.62,83.11 -23.46,18.73 -54.92,28.09 -94.46,28.09 -44.76,0 -80.54,-14.2 -107.17,-42.49 -26.72,-28.39 -40.02,-67.63 -40.02,-117.81 0,-50.78 13.4,-90.21 40.12,-118.51 26.73,-28.29 62.91,-42.4 108.55,-42.4 37.27,0 66.95,8.09 89.03,24.16 21.99,16.07 37.77,40.53 47.43,73.45z"/>
  <polygon id="6" class="fil1" points="3213.28,619.04 3213.28,195.49 3294.33,195.49 3294.33,420.18 3389.27,312.02 3489.24,312.02 3384.53,424.22 3496.93,619.04 3409.38,619.04 3331.89,480.51 3294.33,520.73 3294.33,619.04 "/>
 </g>
</svg>
