<?xml version="1.0" encoding="UTF-8"?>
<!DOCTYPE svg PUBLIC "-//W3C//DTD SVG 1.1//EN" "http://www.w3.org/Graphics/SVG/1.1/DTD/svg11.dtd">
<!-- Creator: CorelDRAW 2019 (64-Bit) -->
<svg xmlns="http://www.w3.org/2000/svg" xml:space="preserve" width="59.6525mm" height="12.8016mm" version="1.1" style="shape-rendering:geometricPrecision; text-rendering:geometricPrecision; image-rendering:optimizeQuality; fill-rule:evenodd; clip-rule:evenodd"
viewBox="0 0 5244.03 1125.38"
 xmlns:xlink="http://www.w3.org/1999/xlink">
 <defs>
  <style type="text/css">
   <![CDATA[
    .fil0 {fill:#FEFEFE}
    .fil1 {fill:#FEFEFE;fill-rule:nonzero}
   ]]>
  </style>
 </defs>
 <g id="Layer_x0020_1">
  <metadata id="CorelCorpID_0Corel-Layer"/>
  <polygon class="fil0" points="108.56,304.4 288.16,693.51 478.91,0.8 758.52,13.63 420.71,1125.38 185.53,1125.38 -0,727.72 "/>
  <polygon class="fil0" points="707.21,442.56 955.21,442.56 1078.26,0 1365.71,0 1057.83,1125.38 776.57,1125.38 878.24,720.74 643.06,720.74 "/>
  <polygon class="fil1" points="1781.1,928.32 1553.86,293.15 1692.83,293.15 1854.14,763.32 2008.94,293.15 2145.55,293.15 1919.64,928.32 "/>
  <path id="1" class="fil1" d="M2250.96 609.85l-109.99 -19.52c12.41,-44.94 33.85,-78.21 64.17,-99.8 30.3,-21.59 75.4,-32.38 135.13,-32.38 54.26,0 94.77,6.36 121.38,19.22 26.47,12.86 45.25,29.12 56.04,48.94 10.79,19.81 16.26,56.03 16.26,108.96l-1.78 141.94c0,40.36 1.92,70.22 5.77,89.45 3.84,19.22 11.09,39.77 21.73,61.65l-120.65 0c-3.1,-7.98 -7.09,-19.81 -11.67,-35.48 -1.93,-7.24 -3.4,-11.98 -4.29,-14.2 -20.7,20.4 -42.87,35.63 -66.53,45.84 -23.66,10.2 -48.79,15.38 -75.56,15.38 -47.16,0 -84.42,-12.86 -111.62,-38.59 -27.21,-25.57 -40.81,-58.1 -40.81,-97.43 0,-25.87 6.21,-49.09 18.63,-69.49 12.42,-20.25 29.71,-35.93 52.19,-46.72 22.32,-10.8 54.56,-20.25 96.69,-28.39 56.77,-10.65 96.25,-20.7 118.13,-29.87l0 -12.27c0,-23.66 -5.77,-40.51 -17.3,-50.71 -11.68,-10.06 -33.56,-15.09 -65.64,-15.09 -21.74,0 -38.59,4.29 -50.72,13.01 -12.27,8.58 -22.03,23.81 -29.57,45.54zm163.23 98.47c-15.52,5.18 -40.22,11.38 -74.07,18.63 -33.71,7.25 -55.89,14.35 -66.24,21.14 -15.81,11.38 -23.81,25.58 -23.81,42.88 0,17.15 6.36,31.79 19.08,44.2 12.71,12.42 28.83,18.64 48.49,18.64 21.89,0 42.88,-7.25 62.84,-21.59 14.64,-11.09 24.39,-24.39 28.98,-40.36 3.1,-10.36 4.73,-30.16 4.73,-59.29l0 -24.25z"/>
  <path id="2" class="fil1" d="M3072.57 928.32l-121.54 0 0 -234.64c0,-49.68 -2.65,-81.76 -7.83,-96.24 -5.32,-14.64 -13.75,-25.88 -25.58,-34.01 -11.82,-8.13 -26.02,-12.12 -42.57,-12.12 -21.29,0 -40.37,5.77 -57.22,17.3 -17,11.53 -28.54,26.91 -34.74,45.84 -6.36,19.07 -9.47,54.26 -9.47,105.71l0 208.17 -121.53 0 0 -460.4 112.66 0 0 67.57c40.37,-51.6 91.07,-77.33 152.44,-77.33 26.91,0 51.6,4.88 73.92,14.49 22.48,9.76 39.33,22.03 50.72,36.96 11.53,15.09 19.52,32.09 23.95,51.16 4.59,19.07 6.8,46.28 6.8,81.76l0 285.79z"/>
  <polygon id="3" class="fil1" points="3196.61,928.32 3196.61,293.15 3325.24,293.15 3325.24,543.32 3575.4,543.32 3575.4,293.15 3704.03,293.15 3704.03,928.32 3575.4,928.32 3575.4,650.65 3325.24,650.65 3325.24,928.32 "/>
  <path id="4" class="fil1" d="M3926.84 609.85l-109.99 -19.52c12.41,-44.94 33.85,-78.21 64.17,-99.8 30.3,-21.59 75.4,-32.38 135.13,-32.38 54.26,0 94.77,6.36 121.38,19.22 26.47,12.86 45.25,29.12 56.04,48.94 10.79,19.81 16.26,56.03 16.26,108.96l-1.78 141.94c0,40.36 1.92,70.22 5.77,89.45 3.84,19.22 11.09,39.77 21.73,61.65l-120.65 0c-3.1,-7.98 -7.09,-19.81 -11.67,-35.48 -1.93,-7.24 -3.4,-11.98 -4.29,-14.2 -20.7,20.4 -42.87,35.63 -66.53,45.84 -23.66,10.2 -48.79,15.38 -75.56,15.38 -47.16,0 -84.42,-12.86 -111.62,-38.59 -27.21,-25.57 -40.81,-58.1 -40.81,-97.43 0,-25.87 6.21,-49.09 18.63,-69.49 12.42,-20.25 29.71,-35.93 52.19,-46.72 22.32,-10.8 54.56,-20.25 96.69,-28.39 56.77,-10.65 96.25,-20.7 118.13,-29.87l0 -12.27c0,-23.66 -5.77,-40.51 -17.3,-50.71 -11.68,-10.06 -33.56,-15.09 -65.64,-15.09 -21.74,0 -38.59,4.29 -50.72,13.01 -12.27,8.58 -22.03,23.81 -29.57,45.54zm163.23 98.47c-15.52,5.18 -40.22,11.38 -74.07,18.63 -33.71,7.25 -55.89,14.35 -66.24,21.14 -15.81,11.38 -23.81,25.58 -23.81,42.88 0,17.15 6.36,31.79 19.08,44.2 12.71,12.42 28.83,18.64 48.49,18.64 21.89,0 42.88,-7.25 62.84,-21.59 14.64,-11.09 24.39,-24.39 28.98,-40.36 3.1,-10.36 4.73,-30.16 4.73,-59.29l0 -24.25z"/>
  <path id="5" class="fil1" d="M4730.7 604.53l-119.76 21.29c-3.99,-23.81 -13.16,-41.7 -27.5,-53.82 -14.35,-11.97 -32.83,-18.04 -55.59,-18.04 -30.31,0 -54.56,10.5 -72.6,31.49 -18.04,20.99 -27.05,56.03 -27.05,105.27 0,54.71 9.16,93.29 27.5,115.92 18.33,22.62 42.87,33.85 73.62,33.85 23.07,0 41.99,-6.65 56.63,-19.81 14.79,-13.16 25.13,-35.78 31.19,-68.01l119.76 20.4c-12.42,55 -36.22,96.54 -71.41,124.64 -35.19,28.09 -82.35,42.14 -141.64,42.14 -67.13,0 -120.8,-21.29 -160.72,-63.73 -40.06,-42.58 -60.02,-101.42 -60.02,-176.68 0,-76.14 20.11,-135.28 60.17,-177.71 40.07,-42.43 94.33,-63.58 162.78,-63.58 55.89,0 100.39,12.12 133.51,36.22 32.97,24.1 56.63,60.77 71.12,110.15z"/>
  <polygon id="6" class="fil1" points="4818.67,928.32 4818.67,293.15 4940.21,293.15 4940.21,630.1 5082.58,467.92 5232.5,467.92 5075.48,636.17 5244.03,928.32 5112.75,928.32 4996.53,720.59 4940.21,780.91 4940.21,928.32 "/>
 </g>
</svg>
