<?xml version="1.0" encoding="utf-8"?>
<!-- Generator: Adobe Illustrator 24.1.1, SVG Export Plug-In . SVG Version: 6.00 Build 0)  -->
<svg version="1.1" id="Layer_1" xmlns="http://www.w3.org/2000/svg" xmlns:xlink="http://www.w3.org/1999/xlink" x="0px" y="0px"
	 viewBox="0 0 756 504" style="enable-background:new 0 0 756 504;" xml:space="preserve">
<style type="text/css">
	.st0{fill:#BCE4FA;}
	.st1{fill:#BCE3FA;}
	.st2{fill:none;stroke:#FFFFFF;stroke-width:0.7047;stroke-linecap:round;stroke-linejoin:round;stroke-miterlimit:10;}
	.st3{fill:none;stroke:#FFFFFF;stroke-width:1.1364;stroke-linecap:round;stroke-linejoin:round;stroke-miterlimit:10;}
	.st4{fill:none;stroke:#FFFFFF;stroke-width:0.8174;stroke-linecap:round;stroke-linejoin:round;stroke-miterlimit:10;}
	.st5{fill:none;stroke:#FFFFFF;stroke-width:0.7781;stroke-linecap:round;stroke-linejoin:round;stroke-miterlimit:10;}
	.st6{fill:none;stroke:#FFFFFF;stroke-width:0.9754;stroke-linecap:round;stroke-linejoin:round;stroke-miterlimit:10;}
	.st7{fill:none;stroke:#FFFFFF;stroke-width:0.8986;stroke-linecap:round;stroke-linejoin:round;stroke-miterlimit:10;}
	.st8{fill:none;stroke:#6EA8B5;stroke-width:2;stroke-linecap:round;stroke-linejoin:round;stroke-miterlimit:10;}
	.st9{fill:#6EA8B5;}
	.st10{opacity:0.39;}
	.st11{fill:#629BD4;}
	.st12{fill:#0A589E;}
	.st13{fill:#FFFFFF;}
	.st14{fill:#A4D1DE;}
	.st15{fill:#E2F2F8;}
	.st16{fill:#BFE2EB;}
	.st17{opacity:0.24;}
	.st18{fill:none;stroke:#A4D1DE;stroke-miterlimit:10;}
	.st19{fill:#BEE2EB;}
	.st20{fill:#ACDAE5;}
	.st21{clip-path:url(#SVGID_2_);}
	.st22{fill:#F8C8CF;}
	.st23{fill:#283068;}
	.st24{fill:#F8C9D0;}
	.st25{fill:#23595F;}
	.st26{fill:#E7E9F7;}
	.st27{fill:#EE84AA;}
	.st28{fill:#571F16;}
	.st29{fill:#191934;}
	.st30{fill:none;stroke:#571F16;stroke-width:1.0274;stroke-linecap:round;stroke-linejoin:round;stroke-miterlimit:10;}
	.st31{fill:none;stroke:#EE84AA;stroke-width:0.7706;stroke-linecap:round;stroke-linejoin:round;stroke-miterlimit:10;}
	.st32{fill:#232952;}
	.st33{fill:#1B4B4D;}
	.st34{fill:#05579D;}
	.st35{fill:#192847;}
	.st36{fill:#292E34;stroke:#1A4248;stroke-linecap:round;stroke-linejoin:round;stroke-miterlimit:10;}
	.st37{fill:#265D64;}
	.st38{fill:none;stroke:#571F16;stroke-linecap:round;stroke-linejoin:round;stroke-miterlimit:10;}
	.st39{fill:none;stroke:#EE84AA;stroke-width:0.75;stroke-linecap:round;stroke-linejoin:round;stroke-miterlimit:10;}
	.st40{fill:#E0F2FD;}
	.st41{fill:#192847;stroke:#192847;stroke-miterlimit:10;}
	.st42{fill:#699CD4;}
	.st43{fill:none;stroke:#FFFFFF;stroke-width:2;stroke-linecap:round;stroke-linejoin:round;stroke-miterlimit:10;}
	.st44{fill:none;stroke:#FFFFFF;stroke-width:2.2165;stroke-linecap:round;stroke-linejoin:round;stroke-miterlimit:10;}
</style>
<path class="st0" d="M399.56,441.4l-0.77-0.15c1.36-7.09,5.52-13.54,11.42-17.69l0.45,0.64
	C404.92,428.24,400.88,434.51,399.56,441.4z"/>
<g>
	<path class="st1" d="M399,443.28c0.25-5.82,2.5-19.83,7.82-28.6"/>
	<path class="st0" d="M399.39,443.3l-0.78-0.03c0.23-5.54,2.47-19.87,7.87-28.78l0.67,0.4C401.83,423.66,399.62,437.82,399.39,443.3
		z"/>
</g>
<path class="st0" d="M399.46,442.6l-0.78-0.07c0.99-11.19,0.72-22.58-0.77-32.05l0.77-0.12
	C400.19,419.89,400.46,431.34,399.46,442.6z"/>
<path class="st0" d="M410.81,420.9c1.23-2.19,2.92-4.45,5.39-4.93c2.06-0.4,4.11,0.54,6.18,0.94c1.73,0.33,3.52,0.28,5.27,0.45
	c1.76,0.17,3.57,0.59,4.92,1.72c1.36,1.13,2.12,3.12,1.4,4.73c-0.87,1.96-3.38,2.54-5.52,2.51c-3.71-0.05-7.32-1.18-11-1.66
	c-1.77-0.23-3.59-0.3-5.36-0.04c-1.35,0.2-3.39,1.52-4.6,1.33C408.85,424.4,409.8,422.68,410.81,420.9z"/>
<path class="st0" d="M409.45,406.38c1.73-3.75,4.46-7.42,8.43-8.53c3.36-0.94,6.91,0.1,10.4,0.2c1.62,0.04,3.25-0.12,4.86,0.12
	c1.6,0.24,3.24,0.97,4.07,2.37c1.3,2.18,0.06,5.2-2.09,6.56c-2.15,1.36-4.86,1.43-7.39,1.15c-2.53-0.28-5.04-0.88-7.58-0.68
	c-3.23,0.25-6.26,1.78-8.79,3.8c-2,1.59-3.57,4.19-5.64,5.54C404.69,415.99,408.79,407.82,409.45,406.38z"/>
<path class="st0" d="M401.34,400.34c-0.64-3.95-3.61-7.17-4.56-11.05c-0.72-2.91-0.26-6.02-1-8.93c-0.62-2.42-2.07-4.61-4.06-6.11
	c-1.4-1.06-3.17-1.79-4.9-1.48c-2.65,0.47-4.36,3.32-4.38,6.01c-0.02,2.69,1.28,5.21,2.73,7.47c1.45,2.26,3.12,4.44,4.01,6.98
	c1.26,3.61,0.84,7.65,2.16,11.24c0.57,1.57,1.49,3,2.64,4.21c0.73,0.76,3.06,3.09,4.25,2.86c1.15-0.22,2.13-3.96,2.47-5.02
	C401.33,404.53,401.68,402.42,401.34,400.34z"/>
<path class="st0" d="M398.59,441.61c-0.47-6.27-2.14-18.1-8.11-26.97l0.65-0.44c6.07,9.02,7.77,21.01,8.24,27.35L398.59,441.61z"/>
<path class="st0" d="M390.09,407.34c-0.98-2.76-2.49-5.38-4.73-7.27c-2.26-1.9-5.11-2.95-7.96-3.72c-2.96-0.8-6.03-1.35-9.09-1.15
	c-3.06,0.2-6.13,1.19-8.46,3.19c-1.05,0.9-1.96,2.04-2.27,3.38c-0.31,1.35,0.09,2.91,1.21,3.71c0.83,0.59,1.91,0.7,2.93,0.75
	c4.51,0.25,9.06-0.05,13.53,0.59s9.01,2.36,11.86,5.86c0.69,0.85,1.28,1.79,2.09,2.53c0.45,0.4,1.79,1.41,2.44,0.93
	c0.61-0.45,0.14-1.8,0.04-2.36C391.3,411.61,390.84,409.43,390.09,407.34z"/>
<path class="st0" d="M398.4,442.58c-0.4-7.92-3.93-15.59-9.7-21.03l0.54-0.57c5.91,5.58,9.54,13.44,9.94,21.56L398.4,442.58z"/>
<path class="st0" d="M386.17,416.58c-2.07-1.1-4.4-1.81-6.65-2.44c-2.18-0.61-4.47-1.23-6.69-0.8c-2.47,0.48-4.5,2.17-6.42,3.8
	c-1.48,1.26-2.97,2.53-4.13,4.09c-0.57,0.76-1.07,1.71-0.79,2.62c0.37,1.17,1.83,1.57,3.05,1.51c2.2-0.12,4.22-1.16,6.27-1.96
	c3.27-1.26,6.77-1.91,10.27-1.94c3.17-0.03,6.74-0.06,9.72,1.2c-0.6-0.25-1.49-2.71-1.89-3.32c-0.63-0.96-1.28-1.94-2.29-2.51
	C386.48,416.75,386.33,416.66,386.17,416.58z"/>
<path class="st0" d="M623.98,433.08c1.22-3.11,3.27-6.06,6.16-7.71c2.65-1.51,5.91-1.9,8.09-4.06c1.77-1.76,2.43-4.3,3.22-6.65
	s1.97-4.86,4.19-5.93c2.6-1.25,5.52-0.01,7.82,1.47c2.3,1.48,4.65,3.29,7.46,3.19c2.25-0.08,4.39-1.39,6.64-1.55
	c3.11-0.21,5.76,1.78,8.11,3.68c1.7,1.37,3.48,2.86,4.07,5c0.72,2.61-0.61,5.64-2.77,7.44c-2.16,1.81-5,2.54-7.71,2.6
	c-2.47,0.06-5.34-0.23-7.07,1.68c-1.7,1.88-1.24,4.8-2.39,7.05c-1.19,2.31-3.93,3.49-6.42,3.48c-2.49,0-4.82-0.96-7.09-1.87
	c-2.27-0.91-4.63-1.81-7.13-1.7c-2.78,0.12-5.42,1.48-8.05,2.58c-2.26,0.95-6.51,2.68-8.29,0.34
	C621.22,440.04,623.09,435.36,623.98,433.08z"/>
<path class="st2" d="M623.3,441.85c13.31-11.43,28.84-19,45.6-22.22"/>
<path class="st0" d="M636.46,424.27c0.31-3.77-0.4-7.7,0.84-11.27c2.21-6.36,9.87-9.68,11.79-16.13c2.3-7.71-4.72-15.58-3.5-23.53
	c0.51-3.35,2.44-6.3,3.64-9.47c1.2-3.17,1.51-7.14-0.82-9.61c-2.44-2.58-6.87-2.28-9.77-0.22s-4.57,5.4-5.93,8.69
	c-1.35,3.29-2.54,6.73-4.83,9.46c-4.17,4.97-11.67,7.15-13.95,13.22c-2.32,6.18,2.07,12.72,2.85,19.27
	c0.59,4.96-0.92,9.9-2.27,14.72c-1.34,4.82-2.53,9.92-1.3,14.76c1.64,6.45,7.45,10.56,13.02,6.42
	C631.73,436.51,635.88,431.36,636.46,424.27z"/>
<path class="st3" d="M622.7,442.16c-2.21-23.02,2.85-47.99,14.67-67.87"/>
<path class="st0" d="M607.98,433.48c-2.43-3.43-3.82-7.72-7.12-10.33c-3.78-3-9.02-3.03-13.82-3.42
	c-4.81-0.39-10.23-1.75-12.46-6.03c-1.22-2.35-1.22-5.14-2.07-7.64c-0.94-2.75-2.86-5.03-4.21-7.6c-1.34-2.57-2.05-5.84-0.49-8.29
	c1.58-2.48,5.04-3.21,7.87-2.41c2.83,0.8,5.15,2.79,7.27,4.83c2.12,2.04,4.19,4.22,6.8,5.56c4.33,2.21,9.47,1.8,14.33,1.59
	c4.86-0.2,10.16,0,13.92,3.1c3.09,2.55,4.5,6.56,5.76,10.37c1.82,5.45,3.68,10.88,5.45,16.35c1.09,3.36,3.17,8.51-0.33,11.15
	C622.71,445.36,611.54,438.49,607.98,433.48z"/>
<path class="st4" d="M626.93,440.91c-7.72-17.92-24.06-33.18-43.62-39.91"/>
<path class="st0" d="M158.91,435.03c2.21-3.29,3.49-7.51,6.46-9.92c3.41-2.75,8.1-2.39,12.41-2.44c4.31-0.04,9.18-1.01,11.22-5.17
	c1.12-2.28,1.13-5.1,1.92-7.57c0.86-2.71,2.6-4.87,3.83-7.37c1.22-2.5,1.88-5.75,0.51-8.34c-1.4-2.62-4.49-3.61-7.03-3.01
	c-2.54,0.6-4.64,2.44-6.55,4.34c-1.91,1.9-3.78,3.95-6.14,5.11c-3.9,1.92-8.5,1.12-12.86,0.55c-4.36-0.56-9.11-0.74-12.5,2.11
	c-2.79,2.35-4.08,6.3-5.25,10.05c-1.67,5.37-3.38,10.72-5.01,16.11c-1,3.32-2.91,8.36,0.21,11.29
	C145.61,445.95,155.68,439.84,158.91,435.03z"/>
<path class="st5" d="M141.87,441.15c7.06-17.54,21.82-31.75,39.4-37.12"/>
<path class="st0" d="M132.19,425.82c-0.24-3.47,0.32-7.08-0.67-10.37c-1.77-5.85-7.91-8.9-9.45-14.83
	c-1.84-7.09,3.78-14.33,2.81-21.65c-0.41-3.08-1.96-5.79-2.92-8.71c-0.96-2.92-1.21-6.57,0.66-8.84c1.96-2.38,5.5-2.1,7.83-0.2
	c2.32,1.9,3.66,4.97,4.75,7.99c1.08,3.02,2.04,6.19,3.87,8.7c3.34,4.57,9.35,6.57,11.17,12.16c1.86,5.69-1.66,11.7-2.28,17.73
	c-0.47,4.57,0.74,9.11,1.82,13.54c1.08,4.43,2.03,9.12,1.04,13.58c-1.31,5.93-5.97,9.71-10.43,5.91
	C135.97,437.08,132.65,432.34,132.19,425.82z"/>
<path class="st6" d="M143.21,442.27c1.77-21.17-2.29-44.14-11.75-62.43"/>
<path class="st0" d="M142.91,430.14c-1.54-4.3-4.08-8.44-7.61-10.88c-3.23-2.24-7.17-3.01-9.85-6.11c-2.18-2.51-3.03-5.99-4.04-9.23
	c-1-3.24-2.49-6.72-5.19-8.33c-3.17-1.88-6.66-0.44-9.4,1.39c-2.74,1.82-5.53,4.08-8.91,3.73c-2.71-0.28-5.32-2.22-8.04-2.6
	c-3.75-0.53-6.9,1.96-9.69,4.34c-2.01,1.71-4.12,3.59-4.79,6.44c-0.81,3.47,0.87,7.66,3.52,10.26c2.65,2.61,6.09,3.82,9.36,4.11
	c2.98,0.27,6.44,0.11,8.56,2.82c2.09,2.66,1.61,6.58,3.05,9.7c1.48,3.21,4.82,5.01,7.83,5.2c3.01,0.19,5.79-0.92,8.5-1.98
	s5.54-2.09,8.55-1.75c3.36,0.38,6.57,2.41,9.76,4.1c2.75,1.46,7.91,4.12,10,1.09C146.39,439.75,144.03,433.28,142.91,430.14z"/>
<path class="st7" d="M143.93,442.03c-16.31-16.46-35.22-27.88-55.5-33.52"/>
<g>
	<path class="st8" d="M613.47,152.67c0,3.17-2.57,5.74-5.74,5.74c-3.17,0-5.74-2.57-5.74-5.74c0-3.17,2.57-5.74,5.74-5.74
		C610.89,146.93,613.47,149.5,613.47,152.67z"/>
	<line class="st8" x1="611.88" y1="156.63" x2="615.93" y2="160.69"/>
</g>
<g>
	<path class="st1" d="M405.93,104.41c-0.26,0-0.51-0.1-0.71-0.29l-6.04-6.04c-0.39-0.39-0.39-1.02,0-1.41s1.02-0.39,1.41,0
		l6.04,6.04c0.39,0.39,0.39,1.02,0,1.41C406.44,104.31,406.19,104.41,405.93,104.41z"/>
	<path class="st1" d="M399.89,104.41c-0.26,0-0.51-0.1-0.71-0.29c-0.39-0.39-0.39-1.02,0-1.41l6.04-6.04c0.39-0.39,1.02-0.39,1.41,0
		s0.39,1.02,0,1.41l-6.04,6.04C400.4,104.31,400.15,104.41,399.89,104.41z"/>
</g>
<path class="st0" d="M503.48,408.05c-0.26,0-0.51-0.1-0.71-0.29l-6.04-6.04c-0.39-0.39-0.39-1.02,0-1.41s1.02-0.39,1.41,0l6.04,6.04
	c0.39,0.39,0.39,1.02,0,1.41C503.99,407.95,503.73,408.05,503.48,408.05z"/>
<path class="st0" d="M497.43,408.05c-0.26,0-0.51-0.1-0.71-0.29c-0.39-0.39-0.39-1.02,0-1.41l6.04-6.04c0.39-0.39,1.02-0.39,1.41,0
	s0.39,1.02,0,1.41l-6.04,6.04C497.95,407.95,497.69,408.05,497.43,408.05z"/>
<path class="st0" d="M81.22,355.84c-0.55,0-1-0.45-1-1v-8.54c0-0.55,0.45-1,1-1s1,0.45,1,1v8.54
	C82.22,355.4,81.78,355.84,81.22,355.84z"/>
<g>
	<line class="st0" x1="85.5" y1="350.57" x2="76.95" y2="350.57"/>
	<path class="st0" d="M85.5,351.57h-8.54c-0.55,0-1-0.45-1-1s0.45-1,1-1h8.54c0.55,0,1,0.45,1,1S86.05,351.57,85.5,351.57z"/>
</g>
<path class="st9" d="M121.22,300.13c-3.41,0-6.19-2.78-6.19-6.19c0-3.41,2.78-6.19,6.19-6.19s6.19,2.78,6.19,6.19
	C127.41,297.36,124.64,300.13,121.22,300.13z M121.22,289.76c-2.31,0-4.19,1.88-4.19,4.19s1.88,4.19,4.19,4.19
	c2.31,0,4.19-1.88,4.19-4.19S123.53,289.76,121.22,289.76z"/>
<path class="st9" d="M327.84,386.03c-3.41,0-6.19-2.78-6.19-6.19s2.78-6.19,6.19-6.19c3.41,0,6.19,2.78,6.19,6.19
	S331.25,386.03,327.84,386.03z M327.84,375.66c-2.31,0-4.19,1.88-4.19,4.19s1.88,4.19,4.19,4.19s4.19-1.88,4.19-4.19
	S330.15,375.66,327.84,375.66z"/>
<path class="st1" d="M637.37,306.87c-3.41,0-6.19-2.78-6.19-6.19s2.78-6.19,6.19-6.19c3.41,0,6.19,2.78,6.19,6.19
	S640.78,306.87,637.37,306.87z M637.37,296.5c-2.31,0-4.19,1.88-4.19,4.19s1.88,4.19,4.19,4.19s4.19-1.88,4.19-4.19
	S639.68,296.5,637.37,296.5z"/>
<g class="st10">
	<g>
		<circle class="st1" cx="38.74" cy="178.77" r="1.88"/>
		<circle class="st1" cx="51.86" cy="178.77" r="1.88"/>
		<circle class="st1" cx="64.99" cy="178.77" r="1.88"/>
		<circle class="st1" cx="78.11" cy="178.77" r="1.88"/>
		<circle class="st1" cx="91.24" cy="178.77" r="1.88"/>
		<circle class="st1" cx="104.36" cy="178.77" r="1.88"/>
		<circle class="st1" cx="117.49" cy="178.77" r="1.88"/>
	</g>
	<g>
		<circle class="st1" cx="38.74" cy="191.89" r="1.88"/>
		<circle class="st1" cx="51.86" cy="191.89" r="1.88"/>
		<circle class="st1" cx="64.99" cy="191.89" r="1.88"/>
		<circle class="st1" cx="78.11" cy="191.89" r="1.88"/>
		<circle class="st1" cx="91.24" cy="191.89" r="1.88"/>
		<circle class="st1" cx="104.36" cy="191.89" r="1.88"/>
		<circle class="st1" cx="117.49" cy="191.89" r="1.88"/>
	</g>
	<g>
		<circle class="st1" cx="38.74" cy="205.02" r="1.88"/>
		<circle class="st1" cx="51.86" cy="205.02" r="1.88"/>
		<circle class="st1" cx="64.99" cy="205.02" r="1.88"/>
		<circle class="st1" cx="78.11" cy="205.02" r="1.88"/>
		<circle class="st1" cx="91.24" cy="205.02" r="1.88"/>
		<circle class="st1" cx="104.36" cy="205.02" r="1.88"/>
		<circle class="st1" cx="117.49" cy="205.02" r="1.88"/>
	</g>
	<g>
		<circle class="st1" cx="38.74" cy="218.14" r="1.88"/>
		<circle class="st1" cx="51.86" cy="218.14" r="1.88"/>
		<circle class="st1" cx="64.99" cy="218.14" r="1.88"/>
		<circle class="st1" cx="78.11" cy="218.14" r="1.88"/>
		<circle class="st1" cx="91.24" cy="218.14" r="1.88"/>
		<circle class="st1" cx="104.36" cy="218.14" r="1.88"/>
		<circle class="st1" cx="117.49" cy="218.14" r="1.88"/>
	</g>
</g>
<g class="st10">
	<g>
		<circle class="st11" cx="252.21" cy="402.86" r="1.88"/>
		<circle class="st11" cx="265.34" cy="402.86" r="1.88"/>
		<circle class="st11" cx="278.46" cy="402.86" r="1.88"/>
		<circle class="st11" cx="291.59" cy="402.86" r="1.88"/>
		<circle class="st11" cx="304.71" cy="402.86" r="1.88"/>
	</g>
	<g>
		<circle class="st11" cx="252.21" cy="415.99" r="1.88"/>
		<circle class="st11" cx="265.34" cy="415.99" r="1.88"/>
		<circle class="st11" cx="278.46" cy="415.99" r="1.88"/>
		<circle class="st11" cx="291.59" cy="415.99" r="1.88"/>
		<circle class="st11" cx="304.71" cy="415.99" r="1.88"/>
	</g>
</g>
<g class="st10">
	<g>
		<circle class="st1" cx="628.8" cy="119.67" r="1.88"/>
		<circle class="st1" cx="641.93" cy="119.67" r="1.88"/>
		<circle class="st1" cx="655.05" cy="119.67" r="1.88"/>
	</g>
	<g>
		<circle class="st1" cx="628.8" cy="132.8" r="1.88"/>
		<circle class="st1" cx="641.93" cy="132.8" r="1.88"/>
		<circle class="st1" cx="655.05" cy="132.8" r="1.88"/>
	</g>
</g>
<g class="st10">
	<g>
		<circle class="st1" cx="724.79" cy="283.88" r="1.88"/>
		<circle class="st1" cx="724.79" cy="297.01" r="1.88"/>
		<circle class="st1" cx="724.79" cy="310.13" r="1.88"/>
		<circle class="st1" cx="724.79" cy="323.26" r="1.88"/>
		<circle class="st1" cx="724.79" cy="336.38" r="1.88"/>
		<circle class="st1" cx="724.79" cy="349.51" r="1.88"/>
		<circle class="st1" cx="724.79" cy="362.63" r="1.88"/>
	</g>
	<g>
		<circle class="st1" cx="711.66" cy="283.88" r="1.88"/>
		<circle class="st1" cx="711.66" cy="297.01" r="1.88"/>
		<circle class="st1" cx="711.66" cy="310.13" r="1.88"/>
		<circle class="st1" cx="711.66" cy="323.26" r="1.88"/>
		<circle class="st1" cx="711.66" cy="336.38" r="1.88"/>
		<circle class="st1" cx="711.66" cy="349.51" r="1.88"/>
		<circle class="st1" cx="711.66" cy="362.63" r="1.88"/>
	</g>
	<g>
		<circle class="st1" cx="698.54" cy="283.88" r="1.88"/>
		<circle class="st1" cx="698.54" cy="297.01" r="1.88"/>
		<circle class="st1" cx="698.54" cy="310.13" r="1.88"/>
		<circle class="st1" cx="698.54" cy="323.26" r="1.88"/>
		<circle class="st1" cx="698.54" cy="336.38" r="1.88"/>
		<circle class="st1" cx="698.54" cy="349.51" r="1.88"/>
		<circle class="st1" cx="698.54" cy="362.63" r="1.88"/>
	</g>
	<g>
		<circle class="st1" cx="685.41" cy="283.88" r="1.88"/>
		<circle class="st1" cx="685.41" cy="297.01" r="1.88"/>
		<circle class="st1" cx="685.41" cy="310.13" r="1.88"/>
		<circle class="st1" cx="685.41" cy="323.26" r="1.88"/>
		<circle class="st1" cx="685.41" cy="336.38" r="1.88"/>
		<circle class="st1" cx="685.41" cy="349.51" r="1.88"/>
		<circle class="st1" cx="685.41" cy="362.63" r="1.88"/>
	</g>
</g>
<path class="st12" d="M553.4,359.72H212.6c-6.46,0-11.7-5.24-11.7-11.7V139.91c0-6.46,5.24-11.7,11.7-11.7H553.4
	c6.46,0,11.7,5.24,11.7,11.7v208.11C565.1,354.48,559.86,359.72,553.4,359.72z"/>
<path class="st13" d="M552.91,351.63H213.09c-5.27,0-9.55-4.28-9.55-9.55V140.05c0-5.27,4.28-9.55,9.55-9.55h339.82
	c5.27,0,9.55,4.28,9.55,9.55v202.03C562.46,347.36,558.18,351.63,552.91,351.63z"/>
<path class="st14" d="M441.15,149.4v142.54c0,4.3-3.48,7.78-7.78,7.78H218.75c-1.93,0-3.7-0.7-5.06-1.87
	c-1.66-1.43-2.72-3.54-2.72-5.91V149.4c0-4.3,3.49-7.78,7.78-7.78h214.62c1.93,0,3.71,0.7,5.06,1.87
	C440.1,144.92,441.15,147.03,441.15,149.4z"/>
<path class="st15" d="M547.25,202.56H458.4c-4.3,0-7.78-3.48-7.78-7.78V149.4c0-4.3,3.48-7.78,7.78-7.78h88.84
	c4.3,0,7.78,3.48,7.78,7.78v45.37C555.03,199.07,551.54,202.56,547.25,202.56z"/>
<path class="st15" d="M547.25,279.25H458.4c-4.3,0-7.78-3.48-7.78-7.78V226.1c0-4.3,3.48-7.78,7.78-7.78h88.84
	c4.3,0,7.78,3.48,7.78,7.78v45.37C555.03,275.77,551.54,279.25,547.25,279.25z"/>
<path class="st15" d="M547.25,351.63H458.4c-4.3,0-7.78-3.48-7.78-7.78V302.8c0-4.3,3.48-7.78,7.78-7.78h88.84
	c4.3,0,7.78,3.48,7.78,7.78v41.05C555.03,348.15,551.54,351.63,547.25,351.63z"/>
<path class="st15" d="M328.34,315.02H213.79c-1.56,0-2.82-1.26-2.82-2.82v0c0-1.56,1.26-2.82,2.82-2.82h114.54
	c1.56,0,2.82,1.26,2.82,2.82v0C331.16,313.75,329.9,315.02,328.34,315.02z"/>
<path class="st15" d="M328.34,341.6H213.79c-1.56,0-2.82-1.26-2.82-2.82v-11.29c0-1.56,1.26-2.82,2.82-2.82h114.54
	c1.56,0,2.82,1.26,2.82,2.82v11.29C331.16,340.34,329.9,341.6,328.34,341.6z"/>
<path class="st15" d="M413.14,315.02h25.19c1.56,0,2.82-1.26,2.82-2.82v0c0-1.56-1.26-2.82-2.82-2.82h-25.19
	c-1.56,0-2.82,1.26-2.82,2.82v0C410.32,313.75,411.58,315.02,413.14,315.02z"/>
<path class="st15" d="M370.4,315.02h25.19c1.56,0,2.82-1.26,2.82-2.82v0c0-1.56-1.26-2.82-2.82-2.82H370.4
	c-1.56,0-2.82,1.26-2.82,2.82v0C367.58,313.75,368.85,315.02,370.4,315.02z"/>
<path class="st15" d="M388.37,341.6h49.96c1.56,0,2.82-1.26,2.82-2.82v-11.29c0-1.56-1.26-2.82-2.82-2.82h-49.96
	c-1.56,0-2.82,1.26-2.82,2.82v11.29C385.55,340.34,386.81,341.6,388.37,341.6z"/>
<path class="st16" d="M502.82,188.34c-8.96,0-16.25-7.29-16.25-16.25s7.29-16.25,16.25-16.25s16.25,7.29,16.25,16.25
	S511.78,188.34,502.82,188.34z M502.82,156.84c-8.41,0-15.25,6.84-15.25,15.25s6.84,15.25,15.25,15.25s15.25-6.84,15.25-15.25
	S511.23,156.84,502.82,156.84z"/>
<path class="st16" d="M508.64,170.81l-8.99-5.19c-0.99-0.57-2.22,0.14-2.22,1.28v10.38c0,1.14,1.23,1.85,2.22,1.28l8.99-5.19
	C509.63,172.8,509.63,171.38,508.64,170.81z"/>
<g class="st17">
	<circle class="st18" cx="502.82" cy="248.79" r="15.75"/>
	<path class="st14" d="M508.64,247.51l-8.99-5.19c-0.99-0.57-2.22,0.14-2.22,1.28v10.38c0,1.14,1.23,1.85,2.22,1.28l8.99-5.19
		C509.63,249.5,509.63,248.08,508.64,247.51z"/>
</g>
<path class="st16" d="M502.82,339.58c-8.96,0-16.25-7.29-16.25-16.25s7.29-16.25,16.25-16.25s16.25,7.29,16.25,16.25
	S511.78,339.58,502.82,339.58z M502.82,308.08c-8.41,0-15.25,6.84-15.25,15.25s6.84,15.25,15.25,15.25s15.25-6.84,15.25-15.25
	S511.23,308.08,502.82,308.08z"/>
<path class="st19" d="M508.64,322.04l-8.99-5.19c-0.99-0.57-2.22,0.14-2.22,1.28v10.38c0,1.14,1.23,1.85,2.22,1.28l8.99-5.19
	C509.63,324.04,509.63,322.61,508.64,322.04z"/>
<path class="st20" d="M438.43,143.49L213.69,297.85c-1.66-1.43-2.72-3.54-2.72-5.91V149.4c0-4.3,3.49-7.78,7.78-7.78h214.62
	C435.3,141.62,437.08,142.32,438.43,143.49z"/>
<g>
	<defs>
		<rect id="SVGID_1_" x="210.97" y="104.17" width="259.06" height="195.55"/>
	</defs>
	<clipPath id="SVGID_2_">
		<use xlink:href="#SVGID_1_"  style="overflow:visible;"/>
	</clipPath>
	<g class="st21">
		<polygon class="st22" points="364.11,540.15 367.52,581.76 349.78,581.76 340.58,540.15 		"/>
		<path class="st23" d="M347.86,573.05c0,0-7.71,12.44-1.92,14.66c5.79,2.21,43.83,2.41,53.22,1.01
			c9.39-1.41-20.96-14.28-27.9-16.29C364.32,570.41,362.08,580.96,347.86,573.05z"/>
		<polygon class="st22" points="250.55,540.15 247.13,581.76 264.87,581.76 274.08,540.15 		"/>
		<path class="st24" d="M423.33,241.84c0,0,12.84-10.13,13.17-13.03c0.64-5.46,2.6-9.74,14.34-13.36c0,0,0.91,1.74-0.72,3.63
			c-1.78,2.05-3.19,2.77-3.19,2.77s3.11,1.19,7.74-2.43c4.63-3.61,6.58-6.75,8.53-5.98c0,0,2.3-2.09,3.39-1.75
			c0,0,0.8,0.24,0.65,1.1c1.81-0.28,1.44,4.94-1.78,9.18c-4.63,6.1-10.41,11.35-15.14,13.08c-3.55,1.3-18.22,16.23-18.22,16.23
			L423.33,241.84z"/>
		<path class="st25" d="M383.71,293.52c-5.6,1.89-36.67-45.89-36.67-45.89c-12.01-13.82-1.23-59.34,9.64-43.38
			c0,0,28.27,51.14,31.32,55.26C391.79,264.63,404.4,286.53,383.71,293.52z"/>
		<polygon class="st23" points="266.78,340.95 238.92,552.4 274.93,558.82 304.84,422.29 341.76,560.95 370.76,554.48 348.7,340.95 
					"/>
		<path class="st25" d="M348.69,340.95h-81.92c0,0-6.3-2.77-0.82-14.85c2.05-4.51,1.16-16.13,0.82-32.08
			c-0.69-31.54-10.05-83.89,1.5-89.89c6.92-3.61,21.62-8.36,32.29-11.61c0.64-0.18,1.26-0.37,1.87-0.55
			c6.23-1.86,10.68-3.09,10.68-3.09s5.16,0.75,15.64,3.85c0.57,0.17,1.16,0.35,1.77,0.53c2.73,0.83,5.77,1.8,9.15,2.95
			c18.32,6.23,16.26,4.01,18.69,26.89C360.31,241.37,348.69,340.95,348.69,340.95z"/>
		<path class="st26" d="M330.53,193.25c-0.24,3.88-1.98,7.31-4.63,9.82c-2.69,2.57-6.34,4.13-10.32,4.13
			c-8.21,0-14.85-6.57-15.02-14.68c0.64-0.18,1.26-0.37,1.87-0.55c6.23-1.86,10.68-3.09,10.68-3.09s5.16,0.75,15.64,3.85
			C329.32,192.89,329.92,193.07,330.53,193.25z"/>
		<path class="st22" d="M328.73,160.5l-1.29,24.92l-0.37,7.11c-0.15,3.02-1.48,5.71-3.54,7.65c-2.04,1.94-4.8,3.12-7.82,3.12
			c-6.39,0-11.54-5.27-11.37-11.65l0.32-12.69l0.54-21.08L328.73,160.5z"/>
		<path class="st27" d="M328.73,165.48l-1.29,23.47c-11.04,0.44-19.09-4.04-22.78-10.02l0.54-16.05L328.73,165.48z"/>
		<path class="st28" d="M297.87,136.1c0,0-10.58-1.32-9.37,11.94c0.94,10.28,14.91,24,14.91,24S312.23,141.06,297.87,136.1z"/>
		<path class="st29" d="M341.08,145.65c-0.72,1.64-1.83,3.07-2.74,4.61c-0.9,1.54-1.62,3.3-1.42,5.08
			c-0.18-2.89-2.09-5.32-3.74-7.69c-1.65-2.38-3.15-5.26-2.36-8.04c0.75-2.67,5.58-6.88,8.52-5.15
			C342.61,136.38,342.36,142.74,341.08,145.65z"/>
		<path class="st24" d="M337.49,146.18c0,0,0.82,8.12-0.32,17.11c-1.32,10.39-0.85,22.59-16.16,23.41
			c-16.34,0.87-21.75-17.42-21.75-17.42s-8.68-1.62-9.27-7.48c-0.59-5.87,5.47-6.2,7.45-4.55c0,0,2.24-21.87,22.45-21.87
			C337.72,135.37,337.49,146.18,337.49,146.18z"/>
		<g>
			<path class="st28" d="M318.29,162.87c0,0.89-0.72,1.62-1.62,1.62c-0.89,0-1.62-0.72-1.62-1.62s0.72-1.62,1.62-1.62
				C317.57,161.25,318.29,161.98,318.29,162.87z"/>
			<path class="st28" d="M332.93,162.87c0,0.89-0.72,1.62-1.62,1.62c-0.89,0-1.62-0.72-1.62-1.62s0.72-1.62,1.62-1.62
				C332.21,161.25,332.93,161.98,332.93,162.87z"/>
			<path class="st30" d="M310.78,157.24c0,0,2.4-3.95,7.51-2.53"/>
			<path class="st30" d="M327.1,154.65c0,0,3.69-3.37,7.32,0.32"/>
			<path class="st31" d="M323.86,158.66c0,0,1.75,4.47,3.24,7.25c1.49,2.78-2.91,4.02-2.91,4.02"/>
			<path class="st31" d="M318,174.93c0,0,3.61,3.5,8.25,1.36"/>
			<path class="st31" d="M297.15,163.68c0,0-0.05-5.03-3.81-3.66"/>
		</g>
		<path class="st28" d="M302.11,140.3c0,0,9.19,9.36,4.16,12.94c-5.6,3.99-6.47,9.63-6.47,9.63s0.12-1.99-2.37-5.63
			C294.94,153.59,289.51,140.65,302.11,140.3z"/>
		<path class="st25" d="M383.71,293.52c6.68,4.35,57.45-49.88,57.45-49.88l-9.01-11.79c0,0-38.6,24.22-44.15,27.66
			C380,264.46,361.24,278.9,383.71,293.52z"/>
		<path class="st23" d="M266.8,573.05c0,0,7.71,12.44,1.92,14.66c-5.79,2.21-43.83,2.41-53.22,1.01
			c-9.39-1.41,20.96-14.28,27.9-16.29C250.33,570.41,252.57,580.96,266.8,573.05z"/>
		<polygon class="st32" points="304.84,422.29 314.77,377.46 310.57,443.8 		"/>
		<path class="st33" d="M356.71,261.99c0,0,2.27-24.79,1.88-32.66c0,0,3.23,20.81,3.31,40.04L356.71,261.99z"/>
		<path class="st25" d="M270.92,253.54c0,0,11.89-50.91-0.83-50.31c0,0-4.15,0.5-12.27,13.1c-5.68,8.81-11.9,24.08-23.24,48.92
			c-5.36,11.74-12.06,27.63,0.38,28.48c6.73,0.46,13.79-3.22,17.95-10.95C260.53,268.62,270.92,253.54,270.92,253.54z"/>
		<path class="st33" d="M281.56,316.92l64.71-15.25C346.26,301.66,325.91,316.92,281.56,316.92z"/>
		<g>
			<path class="st33" d="M264.18,263.77c0,0,10.44-18.49,15.99-27.51l-13.03,70.73C267.14,306.99,265.87,278.11,264.18,263.77z"/>
			<polygon class="st33" points="305.79,287.86 267.09,305.93 269.08,287.35 			"/>
		</g>
		<g>
			<g>
				<path class="st9" d="M329.52,289.9h-13.58c-2.76,0-4.85-2.5-4.35-5.22l6.39-34.89c0.38-2.1,2.21-3.62,4.35-3.62h13.58
					c2.76,0,4.85,2.5,4.35,5.22l-6.39,34.89C333.48,288.37,331.65,289.9,329.52,289.9z"/>
				<path class="st14" d="M331.2,291.37h-13.58c-2.76,0-4.85-2.5-4.35-5.22l6.39-34.89c0.38-2.1,2.21-3.62,4.35-3.62h13.58
					c2.76,0,4.85,2.5,4.35,5.22l-6.39,34.89C335.17,289.85,333.34,291.37,331.2,291.37z"/>
				<path class="st9" d="M323.83,260.9h-2.43c-0.53,0-0.93-0.48-0.83-1l1.56-8.52c0.07-0.4,0.42-0.69,0.83-0.69h2.43
					c0.53,0,0.93,0.48,0.83,1l-1.56,8.52C324.59,260.61,324.24,260.9,323.83,260.9z"/>
			</g>
			<path class="st24" d="M293.03,272.5c0,0,6.62-0.22,11.69-1.77c2.18-0.67,6.5-1.45,7.93-3.52c1.44-2.09,1.31-6.6,2.75-6.79
				c1.11-0.15,3.33,3.38,2.76,5.76c-0.56,2.33-0.83,3.62-1.68,4.66c-0.28,0.35,9.05,1.01,14.96-0.29c4.05-0.89,2.85,3.12,0.1,4.38
				c0,0,0.98,2.45-1.89,3.28c0,0,0.03,3.27-2.71,3.42c-0.31,0.76-0.84,2.38-3.21,2.96c-3.45,0.85-8.66,1.17-13.91,0.7
				c-2.67-0.24-14.99,1.92-14.99,1.92L293.03,272.5z"/>
			<path class="st25" d="M234.56,293.92c9.45,1.65,65.78-4.71,65.78-4.71l-1.4-19.71c0,0-45.9,2.14-52.02,1.59
				C226.68,269.3,222.8,291.87,234.56,293.92z"/>
		</g>
		<path class="st28" d="M304.33,125.45c0.97-0.97,2.05-2,3.41-2.15c1.36-0.15,2.91,1.12,2.46,2.42c4.63-2.01,9.47-3.51,14.42-4.47
			c1.24-0.24,2.58-0.43,3.73,0.11c1.14,0.55,1.85,2.14,1.07,3.13c2.4,0.9,5.06,0.31,7.61,0.01c2.55-0.3,5.46-0.17,7.19,1.72
			c1.61,1.75,1.64,4.39,1.59,6.77c-0.08,3.26-0.16,6.54-0.9,9.72c-1.1,4.7-3.66,9.04-7.25,12.27c1.07-3.66-0.84-7.72-3.85-10.07
			c-3-2.35-6.87-3.29-10.66-3.72c-4.54-0.52-9.16-0.4-13.68,0.34c-3.41,0.56-8.28,2.99-11.67,1.45
			C290.3,139.57,301.44,128.34,304.33,125.45z"/>
	</g>
</g>
<path class="st34" d="M420.43,156.57h-47.02c-3.6,0-6.52-2.92-6.52-6.52v-19.72c0-3.6,2.92-6.52,6.52-6.52h47.02
	c3.6,0,6.52,2.92,6.52,6.52v19.72C426.95,153.65,424.03,156.57,420.43,156.57z"/>
<polygon class="st34" points="376.95,154.45 376.95,163.43 386.57,153.81 "/>
<g>
	<circle class="st14" cx="380.7" cy="140.19" r="3.75"/>
	<circle class="st14" cx="396.92" cy="140.19" r="3.75"/>
	<circle class="st14" cx="413.14" cy="140.19" r="3.75"/>
</g>
<polygon class="st22" points="549.77,412.48 547.64,438.39 558.69,438.39 564.43,412.48 "/>
<path class="st12" d="M559.89,432.97c0,0,4.8,7.75,1.2,9.13c-3.6,1.38-27.3,1.5-33.15,0.63c-5.85-0.88,13.05-8.89,17.37-10.15
	C549.63,431.32,551.03,437.89,559.89,432.97z"/>
<polygon class="st22" points="607.87,412.48 609.99,438.39 598.94,438.39 593.21,412.48 "/>
<path class="st12" d="M597.74,432.97c0,0-4.8,7.75-1.2,9.13c3.6,1.38,27.3,1.5,33.15,0.63c5.85-0.88-13.05-8.89-17.37-10.15
	C608,431.32,606.6,437.89,597.74,432.97z"/>
<path class="st34" d="M547.55,270.81l-5.01,155.35h23.33l5.03-103.47l19.99,106.44l25.41-4.23c0,0-22.94-116.11-26.84-154.08H547.55
	z"/>
<polygon class="st35" points="570.9,322.68 567.9,300.68 569.71,338.93 "/>
<line class="st36" x1="581.96" y1="270.81" x2="608.96" y2="425.77"/>
<path class="st28" d="M576.34,156.3c4.98,0.01,10.27,2.62,11.95,7.31c1.3,3.61,0.32,7.87,2.14,11.25c1.34,2.5,4.02,4.11,5.23,6.67
	c2.5,5.32-2.37,11.64-0.82,17.3c1.43,5.24,7.92,8.24,8.46,13.65c0.35,3.45-2.08,6.76-5.21,8.26c-3.12,1.51-6.78,1.5-10.2,0.93
	c-8.39-1.41-16.29-6.01-24.79-5.57c-3.5,0.18-7.16,1.2-10.39-0.15c-2.31-0.96-3.98-2.99-5.45-5.01c-1.69-2.32-3.31-4.96-3.15-7.82
	c0.23-4.2,4.04-7.14,6.32-10.67c2.33-3.61,3.31-8.12,2.66-12.37c-3.09-20.2,8.27-19.58,9.72-19.61c1.33-0.03,5.75-2.74,7.5-3.25
	C572.28,156.65,574.3,156.3,576.34,156.3z"/>
<path class="st24" d="M522.97,241.05c-4.81-3.83-24.37-16.77-24.56-18.58c-0.36-3.4-1.55-6.09-8.84-8.41c0,0-0.58,1.08,0.43,2.27
	c1.09,1.29,1.97,1.74,1.97,1.74s-1.94,0.72-4.8-1.56c-2.86-2.28-4.05-4.25-5.27-3.78c0,0-1.42-1.31-2.1-1.11c0,0-0.5,0.14-0.41,0.68
	c-1.13-0.19-0.93,3.06,1.04,5.73c2.84,3.83,7.85,6.75,10.79,7.86c2.2,0.83,16.63,22.17,26.3,24.48
	C520.3,251.01,525.21,242.83,522.97,241.05z"/>
<path class="st24" d="M538.1,222.12c0,0-21.62,15.08-23.71,18.83c-2.09,3.75-0.53,13.76,9.1,7.33c9.63-6.43,24.83-18.1,24.83-18.1
	L538.1,222.12z"/>
<path class="st11" d="M549.21,208.39c0,0-5.94,1.5-9.9,6.21c-3.32,3.95-8.67,10.31-8.67,10.31l16.4,12.74
	C547.05,237.64,551.05,214.48,549.21,208.39z"/>
<path class="st11" d="M589.46,270.81h-41.92c0,0,0.17-7.19-2.16-18.36c-2.34-11.16-1.17-17,1.16-22.83
	c2.34-5.83-1.83-19.31,2.67-21.23c1.83-0.78,5.01-2.04,8.13-3.25c0.79-0.3,1.57-0.61,2.32-0.9c3.62-1.4,6.67-2.56,6.67-2.56h7.55
	c0,0,5.2,1.72,10.54,3.85c0.7,0.28,1.41,0.57,2.11,0.86c0,0.01,0,0.01,0,0.01c2.69,1.13,5.26,2.32,7.01,3.41
	C599.21,213.31,589.46,270.81,589.46,270.81z"/>
<g>
	<path class="st24" d="M563.79,183.13l0.8,15.52l0.23,4.43c0.09,1.88,0.92,3.56,2.2,4.77c1.27,1.21,2.99,1.94,4.87,1.94
		c3.98,0,7.18-3.28,7.08-7.25l-0.2-7.9l-0.34-13.13L563.79,183.13z"/>
	<path class="st27" d="M563.79,183.13l0.8,14.62c6.87,0.28,11.89-2.52,14.19-6.24l-0.34-10L563.79,183.13z"/>
	<path class="st24" d="M558.33,171.11c0,0-0.51,5.06,0.2,10.65c0.82,6.47,1.54,13.88,10.07,14.58
		c10.16,0.83,13.55-10.85,13.55-10.85s4.72-1.1,5.3-4.32c0.58-3.23-2.94-4.2-4.17-3.18c0,0-1.4-13.62-13.98-13.62
		C558.18,164.37,558.33,171.11,558.33,171.11z"/>
</g>
<path class="st37" d="M586.53,206.39C586.53,206.4,586.53,206.4,586.53,206.39c-8.6,10.48-18.74,9.99-18.74,9.99
	c-8-1.75-10.45-11.24-10.45-11.24c0.79-0.3,1.57-0.61,2.32-0.9c3.62-1.4,6.67-2.56,6.67-2.56h7.55c0,0,5.2,1.72,10.54,3.85
	C585.12,205.81,585.83,206.1,586.53,206.39z"/>
<path class="st24" d="M584.42,205.53c-8.77,9.53-16.37,8.53-16.37,8.53c-8.17-3.13-8.39-9.82-8.39-9.82
	c3.62-1.4,6.67-2.56,6.67-2.56h7.55C573.88,201.68,579.08,203.4,584.42,205.53z"/>
<path class="st28" d="M562.71,161.43c0,0,1.17,9.85-5.16,13.1C557.55,174.53,554.38,162.6,562.71,161.43z"/>
<path class="st28" d="M560.79,162.37c0,0,2.25,8.58,7.83,9.08c5.58,0.5,4.59,5.02,9.53,5.54c2.94,0.31,4.25,3.37,4.25,3.37
	s0.43-3.04,3.09-4.12C588.16,175.16,579.2,152.45,560.79,162.37z"/>
<g>
	<path class="st28" d="M570.26,183.02c0,0.54,0.43,0.97,0.97,0.97c0.54,0,0.97-0.43,0.97-0.97c0-0.54-0.43-0.97-0.97-0.97
		C570.7,182.05,570.26,182.49,570.26,183.02z"/>
	<path class="st28" d="M561.48,183.02c0,0.54,0.43,0.97,0.97,0.97s0.97-0.43,0.97-0.97c0-0.54-0.44-0.97-0.97-0.97
		S561.48,182.49,561.48,183.02z"/>
	<path class="st38" d="M574.77,179.64c0,0-1.44-2.37-4.51-1.52"/>
	<path class="st38" d="M564.98,178.09c0,0-2.22-2.02-4.39,0.19"/>
	<path class="st39" d="M566.92,180.5c0,0-1.05,2.68-1.94,4.35c-0.89,1.67,1.75,2.41,1.75,2.41"/>
	<path class="st39" d="M572.74,189.17c0,0-1.71,2.49-4.69,1.78"/>
	<path class="st39" d="M583.25,182.34c0,0,0.03-3.02,2.28-2.19"/>
</g>
<path class="st11" d="M548.4,260.83H510c-0.76,0-1.38-0.62-1.38-1.38l0,0c0-0.76,0.62-1.38,1.38-1.38h38.4
	c0.76,0,1.38,0.62,1.38,1.38l0,0C549.77,260.22,549.16,260.83,548.4,260.83z"/>
<path class="st9" d="M551.28,258.08h-38.75l-7.38-29.74c-0.32-1.27,0.65-2.51,1.96-2.51h34.59c0.93,0,1.74,0.63,1.96,1.53
	L551.28,258.08z"/>
<path class="st0" d="M548.62,258.08h-38.75l-7.38-29.74c-0.32-1.27,0.65-2.51,1.96-2.51h34.59c0.93,0,1.74,0.63,1.96,1.53
	L548.62,258.08z"/>
<path class="st34" d="M578.12,260.83h-29.06c-0.71,0-1.29-0.58-1.29-1.29v-0.17c0-0.71,0.58-1.29,1.29-1.29h29.06
	c0.71,0,1.29,0.58,1.29,1.29v0.17C579.41,260.26,578.84,260.83,578.12,260.83z"/>
<path class="st40" d="M526.97,240.07c0.71,1.84,0.12,3.79-1.31,4.34c-1.43,0.55-3.17-0.5-3.88-2.34c-0.71-1.84-0.12-3.79,1.31-4.34
	C524.52,237.18,526.26,238.23,526.97,240.07z"/>
<polygon class="st34" points="591.58,258.08 589.06,225.42 593.9,239.17 "/>
<path class="st24" d="M591.91,228.74c0,0,5.98,32.14,7.46,37.4c0.96,3.4,7.94,5.72,10.13,1.22c0.48-0.99,0.37-2.64,0.32-4.32
	c-0.34-10.39-7.61-36.83-7.61-36.83L591.91,228.74z"/>
<path class="st11" d="M593.55,209.81c0,0,3.57,1.83,6.57,7c3,5.17,7.14,14.29,6.88,16.5c-1.56,4.25-13.88,8.65-13.88,8.65
	S584.89,214.91,593.55,209.81z"/>
<path class="st24" d="M600.46,259.93c0,0-18.99-0.42-22.59-2.56c-4.88-2.91-6.01-1.65-8.84-2.35c-4.54-1.13-4.04-0.21-4.04-0.21
	s0.21,2.63,3.72,2.96c1.77,0.17,4.42,0.92,3.86,1.35c0,0-14.08,1.47-16.91,1.72c-2.83,0.25-1.45,2.43,0.71,2.93
	c0,0,1.29,1.63,3.38,1.13c0,0-0.46,0.92,4.96,0.92c5.42,0,10.86-2.88,13.61-1.63s17.6,7,27.02,5.67c4.5-0.64,4.53-2.8,4.53-5.08
	C609.87,260.83,606.95,260.33,600.46,259.93z"/>
<polygon class="st22" points="206.47,412.48 200.21,438.39 189.16,438.39 191.82,412.48 "/>
<path class="st34" d="M187.96,432.97c0,0-4.8,7.75-1.2,9.13c3.6,1.38,27.3,1.5,33.15,0.63c5.85-0.88-13.05-8.89-17.37-10.15
	C198.22,431.32,196.82,437.89,187.96,432.97z"/>
<polygon class="st22" points="171.68,412.48 167.89,438.39 156.84,438.39 157.02,412.48 "/>
<path class="st34" d="M155.64,432.97c0,0-4.8,7.75-1.2,9.13c3.6,1.38,27.3,1.5,33.15,0.63c5.85-0.88-13.05-8.89-17.37-10.15
	C165.9,431.32,164.5,437.89,155.64,432.97z"/>
<path class="st34" d="M153.11,287.17l0.82,138.26h17.54l12.39-101.58l14.12,41.22l-10.57,60.37h19.08c0,0,16.77-52.17,16.09-62.41
	s-20.04-80.07-20.04-80.07L153.11,287.17z"/>
<polygon class="st35" points="183.85,323.85 185.71,304.98 187.84,335.51 "/>
<line class="st41" x1="163.01" y1="285.5" x2="161.99" y2="425.44"/>
<path class="st24" d="M216.72,223.85c0,0,11.33,21.43,11.58,28.01s-7,5.11-10.75-0.82c-3.75-5.94-9.75-22.78-9.75-22.78
	L216.72,223.85z"/>
<path class="st11" d="M218.84,225.64c0,0-3.25,5.78-11.04,9.31c-1.61,0.73-2.97-1.2-3.98-3.49c-1.17-2.67-1.85-5.82-1.85-5.82
	s-8.93-27.63-1.06-26.64c0,0,6.7,0.47,11.62,10.17c1.29,2.53,3.3,7.63,4.98,12.47C217.99,223.02,218.44,224.37,218.84,225.64z"/>
<path class="st34" d="M218.84,225.64c0,0-3.25,5.78-11.04,9.31c-1.61,0.73-2.97-1.2-3.98-3.49c3.05-1.37,8.82-4.45,13.69-9.82
	C217.99,223.02,218.44,224.37,218.84,225.64z"/>
<path class="st11" d="M202.94,284.47c-4.95,5.62-37.54,4.79-49.84,2.7c-2.16-0.37-4.29-1.2-0.88-8.72
	c1.28-2.81,0.73-10.04,0.51-19.98c-0.43-19.65-6.26-52.25,0.93-55.99c4.31-2.25,13.46-5.21,20.11-7.23c0.4-0.11,0.79-0.23,1.17-0.35
	c3.88-1.16,6.65-1.93,6.65-1.93s3.21,0.47,9.74,2.4c0.35,0.1,0.73,0.22,1.11,0.33c1.7,0.52,3.59,1.12,5.7,1.84
	c4.09,1.39,7.09,2.24,7.82,3.6c1.95,3.57,1.2,9.9,1.32,19.02C207.44,231.62,207.32,279.51,202.94,284.47z"/>
<polygon class="st34" points="151.2,236.22 158.23,219.08 153.11,263.17 "/>
<path class="st25" d="M192.44,195.71c-0.15,2.42-1.24,4.55-2.88,6.11c-1.68,1.6-3.95,2.57-6.42,2.57c-5.11,0-9.25-4.09-9.35-9.15
	c0.4-0.11,0.79-0.23,1.17-0.35c3.88-1.16,6.65-1.93,6.65-1.93s3.21,0.47,9.74,2.4C191.69,195.49,192.06,195.6,192.44,195.71z"/>
<path class="st28" d="M172.1,160.12c0,0-4.18,0.39-5.84,7.43c-1.7,7.21,7.09,19.06,10.41,18.37
	C176.67,185.92,181.04,163.21,172.1,160.12z"/>
<path class="st28" d="M199.01,166.06c-0.45,1.02-1.14,1.91-1.7,2.87c-0.56,0.96-1.01,2.06-0.88,3.16c-0.11-1.8-1.3-3.31-2.33-4.79
	c-1.02-1.48-1.96-3.28-1.47-5.01c0.47-1.67,3.48-4.28,5.3-3.2C199.96,160.29,199.81,164.25,199.01,166.06z"/>
<g>
	<path class="st22" d="M191.32,175.32l-0.8,15.52l-0.23,4.43c-0.09,1.88-0.92,3.56-2.2,4.77c-1.27,1.21-2.99,1.94-4.87,1.94
		c-3.98,0-7.18-3.28-7.08-7.25l0.2-7.9l0.34-13.13L191.32,175.32z"/>
	<path class="st27" d="M191.32,178.41l-0.8,14.62c-6.87,0.28-11.89-2.52-14.19-6.24l0.34-10L191.32,178.41z"/>
	<path class="st24" d="M196.77,166.39c0,0,0.51,5.06-0.2,10.65c-0.82,6.47-0.53,14.07-10.07,14.58
		c-10.18,0.54-13.55-10.85-13.55-10.85s-5.41-1.01-5.78-4.66c-0.37-3.65,3.41-3.86,4.64-2.84c0,0,1.4-13.62,13.98-13.62
		C196.92,159.66,196.77,166.39,196.77,166.39z"/>
</g>
<g>
	<path class="st28" d="M185.12,176.17c0,0.56-0.45,1.01-1.01,1.01c-0.56,0-1.01-0.45-1.01-1.01s0.45-1.01,1.01-1.01
		C184.67,175.16,185.12,175.61,185.12,176.17z"/>
	<path class="st28" d="M194.86,175.65c0,0.56-0.45,1.01-1.01,1.01s-1.01-0.45-1.01-1.01c0-0.56,0.45-1.01,1.01-1.01
		S194.86,175.1,194.86,175.65z"/>
	<path class="st38" d="M180.14,173.28c0,0,1.49-2.46,4.68-1.57"/>
	<path class="st38" d="M190.3,171.67c0,0,2.3-2.1,4.56,0.2"/>
	<path class="st39" d="M188.29,174.17c0,0,1.09,2.78,2.02,4.52c0.93,1.73-1.82,2.5-1.82,2.5"/>
	<path class="st39" d="M184.63,184.3c0,0,2.25,2.18,5.14,0.85"/>
	<path class="st39" d="M171.65,177.29c0,0-0.03-3.13-2.37-2.28"/>
</g>
<path class="st28" d="M174.74,162.73c0,0,5.72,5.83,2.59,8.06c-3.48,2.48-4.03,6-4.03,6s0.07-1.24-1.48-3.51
	C170.27,171.01,166.89,162.95,174.74,162.73z"/>
<path class="st28" d="M172.97,163.12c-1.92-2.97-0.51-8.59,5.48-9.53s10.11,0.36,12.35-3.67c2.24-4.03,9.01-6.64,10.97-0.69
	c1.96,5.95-2.61,14.91-8.39,14.64c-5.77-0.27-5.51-0.99-9.17,1.17C180.56,167.2,176.1,167.97,172.97,163.12z"/>
<path class="st24" d="M143.42,225c0,0-11.33,21.43-11.58,28.01c-0.25,6.58,7,5.11,10.75-0.82c3.75-5.94,9.75-22.78,9.75-22.78
	L143.42,225z"/>
<g>
	<path class="st24" d="M224.21,244.61c0,0-16.9-12.5-17.85-13.21c-1.63-1.22-4.01-2.99-4.87-3.59c-1.36-0.95-9.31-2.33-10.42-2.15
		c-1.1,0.18-4.15,0.7-5.04,1.03c-0.89,0.33,0.23,1.47,1.11,2.01c0.88,0.54,4.78,2.56,8.09,3.17c1.84,0.34,3.42,1.27,4.71,2.2
		c1.03,0.74,18.85,18.91,19.52,19.35L224.21,244.61z"/>
	<path class="st24" d="M203.3,229.27c0,0-6.36-5.95-7.31-5.86c-0.94,0.09-0.27,1.43,2.23,3.46c0.85,0.69,1.76,1.78,2.52,2.14
		C202.23,229.71,203.3,229.27,203.3,229.27z"/>
</g>
<path class="st9" d="M198.24,251.25l-23.19,2.77c-1.35,0.16-2.44-1.09-2.1-2.4l5.54-21.3c0.2-0.77,0.85-1.34,1.64-1.43l23.19-2.77
	c1.35-0.16,2.44,1.09,2.1,2.4l-5.54,21.3C199.68,250.59,199.03,251.16,198.24,251.25z"/>
<path class="st0" d="M199.27,251.96l-23.19,2.77c-1.35,0.16-2.44-1.09-2.1-2.4l5.54-21.3c0.2-0.77,0.85-1.34,1.64-1.43l23.19-2.77
	c1.35-0.16,2.44,1.09,2.1,2.4l-5.54,21.3C200.71,251.3,200.06,251.86,199.27,251.96z"/>
<path class="st9" d="M181.96,235.45l1.09-4.18c0.11-0.42-0.24-0.82-0.67-0.77l-1.12,0.13c-0.25,0.03-0.46,0.21-0.52,0.46l-1.09,4.18
	c-0.11,0.42,0.24,0.82,0.67,0.77l1.12-0.13C181.69,235.88,181.9,235.69,181.96,235.45z"/>
<path class="st24" d="M136.17,246.67c7.08,0.28,29.21-0.18,32.14-1.18c1.26-0.43,4.36-1.08,5.15-2.31c0.8-1.25,1.48-3.15,2.31-3.29
	c0.64-0.11,0.49,1.95,0.3,2.7c-0.36,1.35-0.6,2.05-1.08,2.67c-0.16,0.21,5.29,0.99,8.71,0.12c2.35-0.6,1.91,1.28,0.33,2.07
	c0,0,0.63,1.64-1.03,2.18c0,0,0.29,1.82-1.31,1.96c-0.17,0.45-0.67,1.26-2.05,1.65c-2,0.56-5.47,0.55-8.11,0.66
	c-1.56,0.06-31.71,4.77-37.04,3.43C132.27,256.77,133.87,246.58,136.17,246.67z"/>
<path class="st42" d="M156.49,227.88c0,0-0.52,1.97-1.29,4c-0.86,2.24-2.03,4.54-3.18,4.33c0,0-15.64-4.94-15.12-6.54
	c0.39-1.19,1.06-2.74,1.89-4.46c2.59-5.38,6.7-12.4,8.36-15.12c5.66-9.29,7.98-8.11,7.98-8.11
	C163.06,201.6,156.49,227.88,156.49,227.88z"/>
<path class="st34" d="M155.2,231.88c-0.86,2.24-2.03,4.54-3.18,4.33c0,0-15.64-4.94-15.12-6.54c0.39-1.19,1.06-2.74,1.89-4.46
	C141.67,226.57,149.44,230.14,155.2,231.88z"/>
<path class="st34" d="M160.16,275.67c0,0,26-4.17,40-12.5C200.16,263.17,184.49,278.84,160.16,275.67z"/>
<path class="st11" d="M484.42,374.76h-67.61c-3.33,0-6.02-2.7-6.02-6.02v-32.66c0-3.33,2.7-6.02,6.02-6.02h67.61
	c3.32,0,6.02,2.7,6.02,6.02v32.66C490.44,372.06,487.75,374.76,484.42,374.76z"/>
<g>
	<path class="st43" d="M417.96,363.21c6.3,0,6.3-7.5,12.6-7.5c6.3,0,6.3-10,12.6-10c6.3,0,6.3,3.83,12.6,3.83
		c6.3,0,6.3-9.25,12.6-9.25c6.3,0,6.3,14.51,12.6,14.51"/>
	<path class="st13" d="M419.8,363.21c0-1.01-0.82-1.83-1.83-1.83c-1.01,0-1.83,0.82-1.83,1.83c0,1.01,0.82,1.83,1.83,1.83
		C418.98,365.04,419.8,364.22,419.8,363.21z"/>
	<path class="st13" d="M482.8,354.81c0-1.01-0.82-1.83-1.83-1.83c-1.01,0-1.83,0.82-1.83,1.83c0,1.01,0.82,1.83,1.83,1.83
		C481.98,356.64,482.8,355.82,482.8,354.81z"/>
</g>
<path class="st1" d="M93.43,138.87h67.53c4.52,0,8.19-3.67,8.19-8.19v-20.61c0-4.52-3.67-8.19-8.19-8.19H93.43
	c-4.52,0-8.19,3.67-8.19,8.19v20.61C85.24,135.21,88.91,138.87,93.43,138.87z"/>
<polygon class="st1" points="159.09,136.75 159.09,145.73 149.46,136.11 "/>
<g>
	<g>
		<line class="st44" x1="93" y1="110.96" x2="111.72" y2="110.96"/>
		<line class="st44" x1="118.39" y1="110.96" x2="161.39" y2="110.96"/>
	</g>
	<g>
		<line class="st44" x1="93" y1="120.38" x2="127.9" y2="120.38"/>
		<line class="st44" x1="133.24" y1="120.38" x2="143.57" y2="120.38"/>
		<line class="st44" x1="149.11" y1="120.38" x2="161.39" y2="120.38"/>
	</g>
	<g>
		<line class="st44" x1="93" y1="129.8" x2="100.9" y2="129.8"/>
		<line class="st44" x1="105.74" y1="129.8" x2="134.24" y2="129.8"/>
	</g>
</g>
<path class="st1" d="M513.75,116.48h-17.33c-3.22,0-5.83-2.61-5.83-5.83V93.32c0-3.22,2.61-5.83,5.83-5.83h17.33
	c3.22,0,5.83,2.61,5.83,5.83v17.33C519.58,113.87,516.97,116.48,513.75,116.48z"/>
<path class="st13" d="M514.95,100.49l-0.43-1.9c-0.08-0.37-0.46-0.6-0.83-0.52l-1.12,0.26c-0.29,0.07-0.58-0.07-0.74-0.32
	c-0.44-0.69-0.98-1.31-1.6-1.83c-0.25-0.21-0.33-0.55-0.19-0.84l0.56-1.15c0.17-0.34,0.02-0.76-0.32-0.92l-1.76-0.85
	c-0.34-0.17-0.76-0.02-0.92,0.32l-0.6,1.25c-0.13,0.28-0.44,0.42-0.74,0.38c-0.37-0.05-0.76-0.08-1.14-0.08s-0.77,0.03-1.14,0.08
	c-0.31,0.04-0.61-0.1-0.74-0.38l-0.6-1.25c-0.17-0.34-0.58-0.49-0.92-0.32l-1.76,0.85c-0.34,0.17-0.49,0.58-0.32,0.92l0.56,1.15
	c0.14,0.29,0.05,0.63-0.19,0.84c-0.62,0.53-1.17,1.14-1.6,1.83c-0.16,0.25-0.45,0.39-0.74,0.32l-1.12-0.26
	c-0.37-0.08-0.74,0.15-0.83,0.52l-0.43,1.9c-0.08,0.37,0.15,0.74,0.52,0.83l1.42,0.32c-0.01,0.2-0.03,0.39-0.03,0.59
	c0,0.95,0.17,1.87,0.48,2.71c0.1,0.28,0.03,0.6-0.21,0.79l-0.55,0.44c-0.3,0.24-0.35,0.67-0.11,0.97l1.22,1.52
	c0.24,0.3,0.67,0.35,0.97,0.11l0.38-0.31c0.26-0.21,0.62-0.19,0.87,0.01c0.8,0.62,1.71,1.1,2.71,1.39c0.3,0.09,0.52,0.35,0.52,0.67
	v0.4c0,0.38,0.31,0.69,0.69,0.69h1.95c0.38,0,0.69-0.31,0.69-0.69v-0.4c0-0.32,0.22-0.58,0.52-0.67c1-0.29,1.91-0.76,2.71-1.39
	c0.26-0.2,0.62-0.22,0.87-0.01l0.38,0.31c0.3,0.24,0.73,0.19,0.97-0.11l1.22-1.52c0.24-0.3,0.19-0.73-0.11-0.97l-0.55-0.44
	c-0.24-0.19-0.31-0.51-0.21-0.79c0.31-0.85,0.48-1.76,0.48-2.71c0-0.2-0.02-0.39-0.03-0.59l1.42-0.32
	C514.8,101.23,515.03,100.86,514.95,100.49z M505.09,107.17c-2.73,0-4.94-2.21-4.94-4.94c0-2.73,2.21-4.94,4.94-4.94
	c2.73,0,4.94,2.21,4.94,4.94C510.03,104.96,507.82,107.17,505.09,107.17z"/>
<ellipse transform="matrix(0.1602 -0.9871 0.9871 0.1602 329.7508 821.6616)" class="st34" cx="647.75" cy="217.04" rx="20.05" ry="20.05"/>
<g>
	
		<ellipse transform="matrix(0.2298 -0.9732 0.9732 0.2298 287.6896 797.5976)" class="st43" cx="647.75" cy="217.04" rx="11.27" ry="11.27"/>
	<polyline class="st43" points="647.75,209.67 647.75,217.04 643.86,220.94 	"/>
	<g>
		<g>
			<line class="st43" x1="647.75" y1="205.77" x2="647.75" y2="206.85"/>
			<line class="st43" x1="647.75" y1="227.24" x2="647.75" y2="228.31"/>
		</g>
		<g>
			<line class="st43" x1="659.02" y1="217.04" x2="657.94" y2="217.04"/>
			<line class="st43" x1="637.56" y1="217.04" x2="636.48" y2="217.04"/>
		</g>
	</g>
</g>
<path class="st34" d="M694.23,444.28H71.77c-0.55,0-1-0.45-1-1s0.45-1,1-1h622.47c0.55,0,1,0.45,1,1S694.79,444.28,694.23,444.28z"
	/>
</svg>
